<?xml version="1.0" standalone="no"?>
<!DOCTYPE svg PUBLIC "-//W3C//DTD SVG 20010904//EN"
 "http://www.w3.org/TR/2001/REC-SVG-20010904/DTD/svg10.dtd">
<svg version="1.0" xmlns="http://www.w3.org/2000/svg"
 width="1448.000000pt" height="1448.000000pt" viewBox="0 0 1448.000000 1448.000000"
 preserveAspectRatio="xMidYMid meet">
<metadata>
Created by potrace 1.11, written by Peter Selinger 2001-2013
</metadata>
<g transform="translate(0.000000,1448.000000) scale(0.100000,-0.100000)"
fill="#000000" stroke="none">
<path d="M0 7240 l0 -3200 7205 0 7205 0 0 3200 0 3200 -7205 0 -7205 0 0
-3200z m1368 2400 c81 1 154 1 162 1 8 0 80 0 160 0 80 0 152 0 160 0 8 0 80
0 160 0 80 0 152 0 160 0 8 0 80 0 160 0 80 0 152 0 160 0 8 0 80 0 160 0 80
0 152 0 160 0 8 0 80 0 160 0 80 0 152 0 160 0 8 0 80 0 160 0 80 0 152 0 160
0 8 0 80 0 160 0 80 0 152 0 160 0 8 0 80 0 160 0 80 0 152 0 160 0 8 0 80 0
160 0 80 0 152 0 160 0 8 0 80 0 160 0 80 0 152 0 160 0 8 0 80 0 160 0 80 0
152 0 160 0 8 -1 62 -1 120 0 58 0 112 0 120 0 12 0 193 0 235 0 8 0 656 0
720 0 21 0 222 0 240 0 8 0 656 0 720 0 21 0 222 0 240 0 8 0 656 0 720 0 21
0 222 0 240 0 8 0 656 0 720 0 21 0 222 0 240 0 8 0 656 0 720 0 21 0 222 0
240 0 8 0 656 0 720 0 21 0 222 0 240 0 8 0 656 0 720 0 21 0 222 0 240 0 8 0
656 0 720 0 11 0 67 0 125 0 124 0 90 0 328 -1 l192 -1 0 -2399 0 -2400 -577
0 c-318 -1 -587 -1 -598 -1 -33 0 -469 0 -485 0 -21 0 -1422 0 -1440 0 -18 0
-459 0 -480 0 -21 0 -1422 0 -1440 0 -18 0 -459 0 -480 0 -21 0 -1422 0 -1440
0 -18 0 -459 0 -480 0 -21 0 -1422 0 -1440 0 -18 0 -459 0 -480 0 -21 0 -1422
0 -1440 0 -18 0 -459 0 -480 0 -35 0 -1426 0 -1440 0 -8 0 -37 1 -63 1 l-48 0
1 73 c1 39 1 77 0 82 -2 6 -2 14 -1 18 1 5 1 29 1 55 0 195 0 275 1 422 0 47
0 92 0 100 -2 48 1 125 5 132 3 4 0 8 -6 8 -6 0 -9 4 -5 9 5 9 9 192 4 216 -1
6 -1 14 0 18 1 8 1 83 0 117 0 8 0 60 0 115 0 55 0 109 0 120 0 11 0 85 0 165
0 80 0 152 0 160 0 8 0 56 0 105 -1 50 -1 96 0 103 1 22 3 308 2 332 -2 48 1
125 5 132 3 4 0 8 -6 8 -6 0 -8 4 -5 10 3 5 5 38 5 72 0 35 -1 71 -1 81 0 9 1
47 1 85 1 142 1 238 1 252 -2 48 1 125 5 132 3 4 0 8 -6 8 -6 0 -8 5 -5 10 4
6 6 64 5 130 0 66 -1 128 -1 138 0 9 0 82 0 162 0 80 0 150 0 155 0 6 0 66 1
135 0 69 0 130 -1 135 -1 6 -1 14 0 18 1 5 1 29 1 55 0 195 0 275 1 422 0 47
0 91 0 98 -1 20 -1 124 0 170 l1 43 195 -1 c107 -1 197 1 200 4 3 3 10 3 14 0
5 -3 75 -5 157 -4z"/>
<path d="M2207 8844 c-3 -3 -140 -6 -304 -7 l-298 -2 -3 -40 c-1 -22 -2 -62
-1 -90 1 -27 1 -56 0 -62 -2 -27 -2 -40 1 -91 2 -28 -1 -52 -5 -52 -5 0 -5 -5
-2 -11 4 -5 6 -36 6 -67 -2 -76 -2 -80 0 -132 0 -25 0 -49 -1 -55 -1 -5 -1
-14 0 -20 5 -19 0 -187 -6 -196 -3 -5 -2 -9 3 -9 4 0 7 -33 6 -72 -3 -94 -3
-143 0 -196 1 -23 -2 -42 -6 -42 -5 0 -5 -5 -2 -10 4 -6 6 -34 6 -63 -1 -29
-1 -61 -1 -72 0 -129 -1 -168 -6 -176 -3 -5 -2 -9 3 -9 4 0 7 -33 6 -72 -3
-94 -3 -143 0 -196 1 -23 -2 -42 -6 -42 -5 0 -5 -5 -2 -10 4 -6 6 -34 6 -63
-1 -81 -1 -129 0 -307 0 -36 0 -74 -1 -85 -1 -11 -1 -26 -1 -32 0 -7 0 -49 0
-93 0 -44 0 -87 1 -95 0 -8 0 -35 0 -60 0 -25 0 -53 0 -62 0 -10 0 -45 -1 -78
0 -33 0 -66 0 -72 0 -7 0 -33 0 -58 0 -59 0 -63 2 -187 0 -59 -2 -111 -6 -117
-3 -6 -3 -11 2 -11 4 0 7 -20 5 -45 -2 -25 0 -45 4 -46 5 0 19 -2 32 -3 13 -2
25 1 28 6 3 4 10 5 16 2 14 -9 706 -9 714 -1 10 9 10 137 1 137 -5 0 -6 4 -2
9 8 14 9 166 1 179 -4 7 -4 12 1 12 4 0 8 27 8 60 0 33 -4 60 -8 60 -5 0 -5 5
-2 11 9 14 9 134 1 148 -4 6 -4 11 1 11 10 0 10 131 0 147 -4 6 -4 14 0 16 5
3 277 5 606 5 l598 0 200 -399 c109 -219 205 -399 212 -400 61 -4 771 -3 777
1 6 4 -769 1572 -786 1589 -4 5 -57 12 -79 12 -5 0 -113 -1 -240 -1 -126 0
-237 0 -245 0 -8 0 -78 0 -155 0 -77 0 -147 0 -155 0 -8 0 -80 0 -160 0 -80 0
-152 0 -160 0 -8 0 -96 0 -195 0 -99 -1 -187 -1 -196 -1 -12 1 -15 12 -15 54
1 28 -2 62 -6 75 -4 12 -4 22 0 22 4 0 7 54 7 120 0 66 -3 120 -7 120 -4 0 -5
7 -1 16 9 24 9 304 0 304 -5 0 -5 5 -2 11 4 6 7 25 7 44 l0 33 799 0 c439 0
798 -3 797 -6 0 -4 1 -9 2 -12 6 -15 4 -103 -3 -107 -4 -2 -4 -9 0 -15 9 -16
10 -138 0 -138 -5 0 -5 -5 -1 -12 10 -15 11 -149 1 -155 -4 -2 -4 -9 0 -16 3
-6 6 -65 5 -131 -3 -205 -3 -206 17 -207 102 -4 773 0 778 5 10 9 9 146 -1
146 -5 0 -4 5 1 13 5 6 7 50 6 97 -3 105 -3 94 0 160 1 30 -1 67 -4 82 -4 15
-4 30 -1 32 9 5 8 129 -1 143 -4 6 -4 13 0 17 10 10 10 439 0 454 -5 6 -6 12
-1 12 7 0 11 293 4 310 -1 3 -1 10 0 15 1 6 3 32 4 58 1 36 -3 51 -15 58 -9 4
-19 6 -22 2 -3 -3 -145 -5 -314 -4 -169 1 -315 2 -323 2 -8 0 -152 0 -320 0
-168 0 -312 0 -320 0 -8 0 -152 0 -320 0 -168 0 -312 0 -320 0 -262 -3 -622
-1 -628 3 -5 3 -12 3 -15 0z"/>
<path d="M5620 8840 c0 -6 -4 -9 -8 -6 -5 3 -8 -61 -7 -142 0 -81 -3 -155 -7
-164 -5 -10 -5 -18 -1 -18 4 0 7 -51 5 -112 -2 -132 -3 -112 1 -218 2 -47 -1
-93 -5 -102 -5 -10 -5 -18 -1 -18 4 0 7 -89 5 -197 -1 -109 -2 -205 -2 -213 0
-8 0 -85 0 -170 0 -186 0 -142 3 -338 1 -89 0 -162 -3 -162 -3 0 -6 -9 -6 -20
0 -11 3 -20 6 -20 8 0 5 -324 -4 -338 -4 -7 -4 -12 1 -12 4 0 7 -51 5 -112 -2
-132 -3 -112 1 -218 2 -47 -1 -93 -5 -102 -5 -10 -5 -18 -1 -18 4 0 7 -89 5
-197 -3 -263 -2 -286 11 -299 12 -12 778 -9 786 4 9 14 7 375 -3 390 -4 6 -4
12 1 12 10 0 10 211 -1 228 -4 7 -4 12 1 12 10 0 10 211 -1 228 -4 7 -4 12 1
12 10 0 10 211 -1 228 -4 7 -4 12 1 12 10 0 10 211 -1 228 -4 7 -4 12 1 12 4
0 8 51 7 114 l-2 114 787 0 c432 0 793 -1 801 -4 12 -3 15 -21 15 -87 -1 -45
-4 -88 -9 -95 -4 -6 -4 -12 1 -12 10 0 10 -611 -1 -628 -4 -6 -4 -12 1 -12 4
0 8 -171 8 -380 -1 -257 3 -380 10 -381 68 -5 770 -2 778 3 9 5 12 425 12
1603 0 1689 2 1604 -40 1595 -5 -1 -111 -1 -235 0 -124 0 -232 1 -240 1 -8 -1
-76 -1 -150 -1 l-135 0 -28 -53 c-15 -29 -27 -56 -27 -60 0 -4 -5 -13 -10 -20
-13 -15 -390 -769 -390 -780 0 -4 -5 -13 -10 -20 -16 -19 -325 -641 -322 -649
1 -5 -4 -8 -10 -8 -7 0 -190 356 -407 791 -217 434 -402 794 -411 799 -10 5
-20 7 -23 4 -3 -4 -109 -6 -234 -5 -125 1 -235 2 -243 2 -91 -3 -253 0 -261 4
-5 4 -9 1 -9 -5z"/>
<path d="M9609 8825 c-4 -114 0 -1577 4 -1581 4 -5 299 -82 377 -99 8 -2 152
-38 320 -80 168 -42 312 -78 320 -80 8 -2 65 -15 125 -30 61 -15 117 -29 125
-30 8 -2 16 -4 18 -5 1 -2 7 -4 12 -5 6 -1 11 -3 13 -4 1 -2 13 -5 27 -7 22
-4 920 -228 1023 -255 l37 -10 0 -99 0 -98 -1157 -1 c-637 0 -1178 0 -1203 -1
l-45 0 2 -377 c1 -208 2 -388 2 -400 1 -24 3 -24 176 -24 11 0 121 0 245 0
124 0 232 0 240 0 8 0 116 0 240 0 124 0 232 0 240 0 8 0 116 0 240 0 124 0
232 0 240 0 8 0 96 0 195 0 99 0 185 0 190 0 43 0 143 1 155 0 8 0 44 0 80 0
36 1 72 1 80 0 8 0 44 0 80 0 36 1 72 1 80 0 8 0 44 0 80 0 36 1 72 1 80 0 8
0 44 0 80 0 36 1 72 1 80 0 8 0 44 0 80 0 36 1 72 1 80 0 8 0 44 0 80 0 36 1
72 0 80 0 8 0 30 1 48 2 l32 2 0 798 0 798 -42 12 c-24 6 -54 13 -67 16 -14 2
-28 6 -33 9 -5 3 -21 8 -36 10 -15 3 -45 10 -67 16 -22 6 -47 12 -55 13 -8 2
-15 4 -15 5 0 1 -7 3 -15 5 -8 1 -58 13 -110 26 -52 13 -98 24 -102 25 -5 1
-9 2 -10 4 -2 1 -11 3 -22 5 -10 2 -41 9 -70 16 -28 7 -54 14 -58 15 -5 1 -9
2 -10 4 -2 1 -10 3 -18 5 -8 1 -73 17 -145 35 -71 17 -137 33 -145 35 -8 2
-15 4 -15 5 0 1 -9 3 -20 5 -11 2 -85 20 -165 40 -80 20 -152 38 -160 40 -8 2
-53 13 -100 25 -47 12 -92 24 -100 25 -8 2 -15 4 -15 5 0 1 -11 4 -24 6 -14 2
-52 12 -85 20 -34 9 -68 17 -76 19 -8 2 -134 33 -280 70 -146 37 -273 68 -283
70 -40 8 -57 17 -58 28 -3 40 1 180 5 184 3 4 408 6 576 3 8 0 116 0 240 0
124 0 234 0 245 0 11 0 316 0 678 1 l657 1 0 399 0 399 -22 1 c-13 0 -733 1
-1601 2 -1571 2 -1577 2 -1578 -18z"/>
</g>
</svg>
