<svg xmlns="http://www.w3.org/2000/svg" width="18.348mm" height="6.008mm" viewBox="0 0 52.011 17.031">
  <title>cocacola</title>
  <path d="M43.457,14.523l-.161.143c-.229.2-.464.423-.748.314a.284.284,0,0,1-.147-.215,3.7,3.7,0,0,1,.506-1.655l.066-.138a13.235,13.235,0,0,1,2.844-3.678.71.71,0,0,1,.684-.181.358.358,0,0,1,.12.233.388.388,0,0,1-.04.129c-.35.566-.684,1.161-1.009,1.732a23.993,23.993,0,0,1-2.115,3.316Zm-6.8-2.893a1.41,1.41,0,0,1-1.06-1.037,1.424,1.424,0,0,1,.777-1.47.779.779,0,0,1,.7-.129.708.708,0,0,1,.252.628,3.721,3.721,0,0,1-.04.467l0,.033a6.315,6.315,0,0,1-.623,1.508Zm-3.239,3.193A.748.748,0,0,1,33.3,14.4c-.017-.933.987-2.6,1.7-3.514h0a2.755,2.755,0,0,0,1.375,1.244c-.5,1.123-2.233,3.528-2.954,2.691Zm12.237.166c-.168.114-.4.026-.316-.236a13.624,13.624,0,0,1,1.093-2.023l2.431-4.313H47.2c-.079.131-.248.429-.248.429a2.269,2.269,0,0,0-.4-.475,1.466,1.466,0,0,0-1.416.1c-1.79,1.047-3.1,3.116-4.127,4.729,0,0-1.084,1.793-1.686,1.926-.47.038-.422-.595-.4-.742a12.1,12.1,0,0,1,1.029-3,23.093,23.093,0,0,0,2.749-2.246A27.531,27.531,0,0,0,46.521,4.7a3.881,3.881,0,0,1-.566.062,27.022,27.022,0,0,1-5.491,5.576A36.042,36.042,0,0,1,45.8,2.362l.356-.343A4.336,4.336,0,0,1,47.719.839c.047-.005.107,0,.16.11a2.065,2.065,0,0,1-.315,1.08l-.251.513A5.614,5.614,0,0,0,47.9,2.4a2.752,2.752,0,0,0,.46-1.76.505.505,0,0,0-.4-.423,3.009,3.009,0,0,0-2,.775L45.932,1c-3.043,2.384-5.612,5.82-7.858,10.511a1.611,1.611,0,0,1-.9.2,7.647,7.647,0,0,0,.641-1.737,4.643,4.643,0,0,0,.047-.576A1.212,1.212,0,0,0,37.4,8.342a1.607,1.607,0,0,0-1.32.048,9.07,9.07,0,0,0-3.672,3.668A8.051,8.051,0,0,0,31.347,14.9c-.091.828.093,1.36.564,1.627a1.58,1.58,0,0,0,1.333-.133A10.183,10.183,0,0,0,36.9,12.248a5.092,5.092,0,0,0,.9-.114.022.022,0,0,1,.015,0c-.021.071-.212.642-.212.642-.568,1.666-.831,2.8-.3,3.469.767.947,2.036-.033,3.068-1.328-.222,1.552.582,1.794,1.2,1.676a4.919,4.919,0,0,0,1.852-1.328c-.116.452-.085,1.261.556,1.342a1.715,1.715,0,0,0,1.147-.363c1.363-.742,2.995-3.215,3.419-3.931h-.555a8.509,8.509,0,0,1-2.333,2.671Zm-21-9.237h1.56l.881-1.43H25.532Zm24.924-3.8a6.34,6.34,0,0,1-3.916.961c-.413.467-.816.947-1.188,1.442,2.1.533,4.317-.652,5.556-1.779A8.758,8.758,0,0,0,52.011.006a10.423,10.423,0,0,1-2.435,1.946Zm-13.12-.361a5.814,5.814,0,0,1-3.007,4.648c-.331.067-.9-.081-.392-1.275a7.944,7.944,0,0,1,3.377-3.673.727.727,0,0,1,.022.3Zm-4.309,7.17a.971.971,0,0,0-.936-.538,4.268,4.268,0,0,0-3.243,2.727,7.8,7.8,0,0,0-.668,2.479,6.864,6.864,0,0,1,2.167-1.651,4.517,4.517,0,0,1,.778-1.88c.246-.366.738-.956,1.291-.8.483.162.313,1.5-.329,2.793a9,9,0,0,1-1.937,2.56c-.65.552-1.612,1.218-2.454.7a1.85,1.85,0,0,1-.743-1.818,14.919,14.919,0,0,1,2.912-6.78C30.6,4.393,32.378,2.171,34.774.986A1.62,1.62,0,0,1,36.107.834,8.742,8.742,0,0,0,32.785,4.36a2.29,2.29,0,0,0-.27,2.06.8.8,0,0,0,.84.371c1.314-.3,2.163-1.532,2.857-2.655a6.177,6.177,0,0,0,.76-2.641c0-.114-.006-.266-.015-.38.628-.333,1.915.257,1.915.257,1.007.333,3.15,1.974,3.872,2.288.353-.409.932-1.027,1.259-1.337l-.473-.29c-.756-.461-1.555-.9-2.342-1.332A4.684,4.684,0,0,0,37.207.335c-.291.1-.556.2-.556.2A2.141,2.141,0,0,0,34.537.149C32.15.834,29.934,2.5,27.558,5.4a19.2,19.2,0,0,0-3.408,6.166c-.445,1.3-.58,3.221.506,4.359a2.622,2.622,0,0,0,3.014.409,9.546,9.546,0,0,0,4.4-5.2,3.5,3.5,0,0,0,.079-2.374ZM11.372,6.553c0,.01-.318.733-.318.733-.046.038-.118.019-.2,0l-.142-.024a1.269,1.269,0,0,1-.882-.785,1.535,1.535,0,0,1,.7-1.418.782.782,0,0,1,.856-.085.9.9,0,0,1,.19.6,3.257,3.257,0,0,1-.2.98ZM10.7,7.928s-.014.043-.021.057L9.957,9.151A5.464,5.464,0,0,1,8.314,10.8c-.2.067-.475.11-.616-.066-.3-.357-.144-.852-.019-1.251l.044-.143A11.828,11.828,0,0,1,9.2,6.715a.065.065,0,0,1,.028-.009.039.039,0,0,1,0,.014,2.373,2.373,0,0,0,1.483,1.118s.006,0,.006.014a.233.233,0,0,1-.027.076Zm8.94-.766a22.7,22.7,0,0,1,1.477-1.827c.763-.671,1.068-.375,1.094-.166-.712,1.275-1.552,2.736-2.342,4.049,0-.005-.248.376-.248.376A3.651,3.651,0,0,1,18.343,10.9a.372.372,0,0,1-.306-.033.324.324,0,0,1-.138-.315,8.459,8.459,0,0,1,1.736-3.392ZM11.712,4.27c-.986-.648-2.968.59-4.556,2.711C5.7,8.885,5.077,11.1,5.76,12.12c1.014,1.2,2.9-.547,3.7-1.484l.1-.11a11.686,11.686,0,0,0,1.374-1.965s.374-.619.392-.647c.231-.043.51-.109.824-.2,0,.014-1.2,2.027-1.079,3.026a1.74,1.74,0,0,0,1.1,1.756c1.448.243,2.605-.88,3.626-1.879l.272-.262c-.025.1-.057.233-.057.233-.424,1.475.147,1.784.5,1.9,1.081.314,2.372-1.256,2.376-1.256-.033.494-.131.9.39,1.232a1.584,1.584,0,0,0,1.369-.345A14.645,14.645,0,0,0,24,8.352h-.566a10.226,10.226,0,0,1-2.3,2.453s-.165.084-.26.018c-.117-.1-.071-.308,0-.455,0-.01,3.485-6.046,3.485-6.046H22.718s-.18.29-.194.309c-.011-.009-.038-.059-.056-.083-1.018-1.409-3.324.758-5.06,3.27a16.487,16.487,0,0,1-2.4,2.838s-1.307,1.2-1.865.338a1.664,1.664,0,0,1-.027-1.238,10.3,10.3,0,0,1,3.046-4.544.95.95,0,0,1,.945-.243.412.412,0,0,1,.1.566.917.917,0,0,0-.728.281,1.13,1.13,0,0,0-.392,1.147c.588.837,1.762-.819,1.705-1.827a1.081,1.081,0,0,0-.5-.871,1.731,1.731,0,0,0-1.508.014,6.711,6.711,0,0,0-1.989,1.542c-.66.728-1.791,1.537-2.145,1.446.116-.309,1.072-2.265.066-3Zm8.26,10.586c-1.935-1.247-4.562-1.465-8.8-.29-4.515,1.061-6.021,1.741-8,.376-.76-.671-1.032-1.751-.829-3.307A16.759,16.759,0,0,1,6.358,3.951a9.559,9.559,0,0,1,3.984-3.1c1.186-.3,1.075.628.932.761a1.152,1.152,0,0,0-.6.152,1.566,1.566,0,0,0-.621,1.061c-.034.823.818.652,1.185.2A2.335,2.335,0,0,0,11.756.63a1.35,1.35,0,0,0-.94-.623A7.013,7.013,0,0,0,6.86,1.348a17.289,17.289,0,0,0-6,7.223c-.7,1.694-1.324,4.12-.382,6.1a4,4,0,0,0,4.049,1.946,31.915,31.915,0,0,0,3.829-.79c1.03-.247,6.3-2.06,8.036,1.1a2.34,2.34,0,0,1,2.016-1.143,6.634,6.634,0,0,1,4.135,1.257,10.493,10.493,0,0,0-2.569-2.175Z" fill="#fff"/>
</svg>
