<svg xmlns="http://www.w3.org/2000/svg" width="12.461mm" height="10.983mm" viewBox="0 0 35.321 31.133">
  <title>govru</title>
  <g>
    <rect x="7.55" y="12.672" width="0.774" height="2.108" fill="#fff"/>
    <rect x="8.884" y="12.672" width="0.774" height="2.108" fill="#fff"/>
    <rect x="10.218" y="12.672" width="0.774" height="2.108" fill="#fff"/>
    <rect x="11.578" y="12.672" width="0.774" height="2.108" fill="#fff"/>
    <rect x="12.859" y="12.672" width="0.827" height="2.108" fill="#fff"/>
    <rect x="14.193" y="12.672" width="0.827" height="2.108" fill="#fff"/>
    <rect x="15.553" y="12.672" width="0.774" height="2.108" fill="#fff"/>
    <rect x="16.887" y="12.672" width="0.774" height="2.108" fill="#fff"/>
    <rect x="18.221" y="12.672" width="0.774" height="2.108" fill="#fff"/>
    <rect x="19.581" y="12.672" width="0.774" height="2.108" fill="#fff"/>
    <rect x="20.862" y="12.672" width="0.827" height="2.108" fill="#fff"/>
    <rect x="22.196" y="12.672" width="0.827" height="2.108" fill="#fff"/>
    <rect x="23.556" y="12.672" width="0.774" height="2.108" fill="#fff"/>
    <rect x="24.89" y="12.672" width="0.774" height="2.108" fill="#fff"/>
    <rect x="26.224" y="12.672" width="0.774" height="2.108" fill="#fff"/>
    <rect x="27.585" y="12.672" width="0.774" height="2.108" fill="#fff"/>
    <rect x="7.55" y="15.02" width="0.774" height="0.827" fill="#fff"/>
    <rect x="8.884" y="15.02" width="0.774" height="0.827" fill="#fff"/>
    <rect x="10.218" y="15.02" width="0.774" height="0.827" fill="#fff"/>
    <rect x="11.578" y="15.02" width="0.774" height="0.827" fill="#fff"/>
    <polygon points="12.859 15.02 13.686 15.02 13.686 15.873 12.859 15.873 12.859 15.02" fill="#fff"/>
    <polygon points="14.193 15.046 15.02 15.02 15.02 15.873 14.193 15.873 14.193 15.046" fill="#fff"/>
    <rect x="15.553" y="15.02" width="0.774" height="0.827" fill="#fff"/>
    <rect x="16.887" y="15.02" width="0.774" height="0.827" fill="#fff"/>
    <rect x="18.221" y="15.02" width="0.774" height="0.827" fill="#fff"/>
    <rect x="19.581" y="15.02" width="0.774" height="0.827" fill="#fff"/>
    <polygon points="20.862 15.02 21.689 15.046 21.689 15.873 20.862 15.873 20.862 15.02" fill="#fff"/>
    <polygon points="22.196 15.046 23.023 15.02 23.023 15.873 22.196 15.873 22.196 15.046" fill="#fff"/>
    <rect x="23.556" y="15.02" width="0.774" height="0.827" fill="#fff"/>
    <rect x="24.89" y="15.02" width="0.774" height="0.827" fill="#fff"/>
    <rect x="26.224" y="15.02" width="0.774" height="0.827" fill="#fff"/>
    <rect x="27.585" y="15.02" width="0.774" height="0.827" fill="#fff"/>
    <rect x="9.444" y="11.018" width="0.694" height="0.293" fill="#fff"/>
    <rect x="10.458" y="11.018" width="0.774" height="0.293" fill="#fff"/>
    <rect x="11.551" y="11.018" width="0.774" height="0.293" fill="#fff"/>
    <rect x="12.645" y="11.018" width="0.694" height="0.293" fill="#fff"/>
    <rect x="17.954" y="11.018" width="0.774" height="0.293" fill="#fff"/>
    <rect x="16.86" y="11.018" width="0.774" height="0.293" fill="#fff"/>
    <rect x="15.847" y="11.018" width="0.694" height="0.293" fill="#fff"/>
    <rect x="13.659" y="11.018" width="0.774" height="0.293" fill="#fff"/>
    <rect x="14.753" y="11.018" width="0.774" height="0.293" fill="#fff"/>
    <rect x="24.357" y="11.018" width="0.774" height="0.293" fill="#fff"/>
    <rect x="23.263" y="11.018" width="0.774" height="0.293" fill="#fff"/>
    <rect x="22.249" y="11.018" width="0.694" height="0.293" fill="#fff"/>
    <rect x="21.155" y="11.018" width="0.774" height="0.293" fill="#fff"/>
    <rect x="20.062" y="11.018" width="0.774" height="0.293" fill="#fff"/>
    <rect x="19.048" y="11.018" width="0.72" height="0.293" fill="#fff"/>
    <rect x="9.444" y="10.004" width="0.694" height="0.587" fill="#fff"/>
    <rect x="25.451" y="11.018" width="0.694" height="0.293" fill="#fff"/>
    <rect x="10.458" y="10.004" width="0.774" height="0.587" fill="#fff"/>
    <rect x="11.551" y="10.004" width="0.774" height="0.587" fill="#fff"/>
    <rect x="12.645" y="10.004" width="0.72" height="0.587" fill="#fff"/>
    <rect x="13.659" y="10.004" width="0.774" height="0.587" fill="#fff"/>
    <rect x="14.753" y="10.004" width="0.774" height="0.587" fill="#fff"/>
    <rect x="15.847" y="10.004" width="0.694" height="0.587" fill="#fff"/>
    <rect x="16.86" y="10.004" width="0.774" height="0.587" fill="#fff"/>
    <rect x="22.249" y="10.004" width="0.694" height="0.587" fill="#fff"/>
    <rect x="21.155" y="10.004" width="0.774" height="0.587" fill="#fff"/>
    <rect x="20.062" y="10.004" width="0.774" height="0.587" fill="#fff"/>
    <rect x="19.048" y="10.004" width="0.72" height="0.587" fill="#fff"/>
    <rect x="17.954" y="10.004" width="0.774" height="0.587" fill="#fff"/>
    <rect x="25.451" y="10.004" width="0.694" height="0.587" fill="#fff"/>
    <rect x="24.357" y="10.004" width="0.774" height="0.587" fill="#fff"/>
    <rect x="23.263" y="10.004" width="0.774" height="0.587" fill="#fff"/>
    <rect x="9.444" y="8.91" width="0.694" height="0.587" fill="#fff"/>
    <rect x="10.458" y="8.91" width="0.774" height="0.587" fill="#fff"/>
    <rect x="11.551" y="8.91" width="0.774" height="0.587" fill="#fff"/>
    <rect x="12.645" y="8.91" width="0.72" height="0.587" fill="#fff"/>
    <rect x="13.659" y="8.91" width="0.774" height="0.587" fill="#fff"/>
    <rect x="14.753" y="8.91" width="0.774" height="0.587" fill="#fff"/>
    <rect x="15.847" y="8.91" width="0.694" height="0.587" fill="#fff"/>
    <rect x="16.86" y="8.91" width="0.774" height="0.587" fill="#fff"/>
    <rect x="22.249" y="8.91" width="0.694" height="0.587" fill="#fff"/>
    <rect x="21.155" y="8.91" width="0.774" height="0.587" fill="#fff"/>
    <rect x="20.062" y="8.91" width="0.774" height="0.587" fill="#fff"/>
    <rect x="19.048" y="8.91" width="0.72" height="0.587" fill="#fff"/>
    <rect x="17.954" y="8.91" width="0.774" height="0.587" fill="#fff"/>
    <rect x="25.451" y="8.91" width="0.694" height="0.587" fill="#fff"/>
    <rect x="24.357" y="8.91" width="0.774" height="0.587" fill="#fff"/>
    <rect x="23.263" y="8.91" width="0.774" height="0.587" fill="#fff"/>
    <rect x="9.444" y="7.87" width="0.694" height="0.587" fill="#fff"/>
    <rect x="10.458" y="7.87" width="0.774" height="0.587" fill="#fff"/>
    <rect x="11.551" y="7.87" width="0.774" height="0.587" fill="#fff"/>
    <rect x="12.645" y="7.87" width="0.72" height="0.587" fill="#fff"/>
    <rect x="13.659" y="7.87" width="0.774" height="0.587" fill="#fff"/>
    <rect x="14.753" y="7.87" width="0.774" height="0.587" fill="#fff"/>
    <rect x="15.847" y="7.87" width="0.694" height="0.587" fill="#fff"/>
    <rect x="16.86" y="7.87" width="0.774" height="0.587" fill="#fff"/>
    <rect x="22.249" y="7.87" width="0.694" height="0.587" fill="#fff"/>
    <rect x="21.155" y="7.87" width="0.774" height="0.587" fill="#fff"/>
    <rect x="20.062" y="7.87" width="0.774" height="0.587" fill="#fff"/>
    <rect x="19.048" y="7.87" width="0.72" height="0.587" fill="#fff"/>
    <rect x="17.954" y="7.87" width="0.774" height="0.587" fill="#fff"/>
    <rect x="25.451" y="7.87" width="0.694" height="0.587" fill="#fff"/>
    <rect x="24.357" y="7.87" width="0.774" height="0.587" fill="#fff"/>
    <rect x="23.263" y="7.87" width="0.774" height="0.587" fill="#fff"/>
    <rect x="9.444" y="6.803" width="0.694" height="0.587" fill="#fff"/>
    <rect x="10.458" y="6.803" width="0.774" height="0.587" fill="#fff"/>
    <rect x="11.551" y="6.803" width="0.774" height="0.587" fill="#fff"/>
    <rect x="12.645" y="6.803" width="0.72" height="0.587" fill="#fff"/>
    <rect x="13.659" y="6.803" width="0.774" height="0.587" fill="#fff"/>
    <rect x="14.753" y="6.803" width="0.774" height="0.587" fill="#fff"/>
    <rect x="15.847" y="6.803" width="0.694" height="0.587" fill="#fff"/>
    <rect x="16.86" y="6.803" width="0.774" height="0.587" fill="#fff"/>
    <rect x="22.249" y="6.803" width="0.694" height="0.587" fill="#fff"/>
    <rect x="21.155" y="6.803" width="0.774" height="0.587" fill="#fff"/>
    <rect x="20.062" y="6.803" width="0.774" height="0.587" fill="#fff"/>
    <rect x="19.048" y="6.803" width="0.72" height="0.587" fill="#fff"/>
    <rect x="17.954" y="6.803" width="0.774" height="0.587" fill="#fff"/>
    <rect x="25.451" y="6.803" width="0.694" height="0.587" fill="#fff"/>
    <rect x="24.357" y="6.803" width="0.774" height="0.587" fill="#fff"/>
    <rect x="23.263" y="6.803" width="0.774" height="0.587" fill="#fff"/>
    <rect x="9.444" y="5.709" width="0.694" height="0.587" fill="#fff"/>
    <rect x="10.458" y="5.709" width="0.774" height="0.587" fill="#fff"/>
    <rect x="11.551" y="5.709" width="0.774" height="0.587" fill="#fff"/>
    <rect x="12.645" y="5.709" width="0.72" height="0.587" fill="#fff"/>
    <rect x="13.659" y="5.709" width="0.774" height="0.587" fill="#fff"/>
    <rect x="14.753" y="5.709" width="0.774" height="0.587" fill="#fff"/>
    <rect x="15.847" y="5.709" width="0.694" height="0.587" fill="#fff"/>
    <rect x="16.86" y="5.709" width="0.774" height="0.587" fill="#fff"/>
    <rect x="22.249" y="5.709" width="0.694" height="0.587" fill="#fff"/>
    <rect x="21.155" y="5.709" width="0.774" height="0.587" fill="#fff"/>
    <rect x="20.062" y="5.709" width="0.774" height="0.587" fill="#fff"/>
    <rect x="19.048" y="5.709" width="0.72" height="0.587" fill="#fff"/>
    <rect x="17.954" y="5.709" width="0.774" height="0.587" fill="#fff"/>
    <rect x="25.451" y="5.709" width="0.694" height="0.587" fill="#fff"/>
    <rect x="24.357" y="5.709" width="0.774" height="0.587" fill="#fff"/>
    <rect x="23.263" y="5.709" width="0.774" height="0.587" fill="#fff"/>
    <path d="M33.961,16.113V11.045h-.32v.24H32.627v-.267h-1.6v.267H29.932v-.24h-.24v.506l-.827.507H27V5.389h.267v-1.6H27V3.521H23.53V3.255H22.7v.266H18.221v-1.6h-.587V.827h1.334V0h-1.6V1.974H16.86v1.6H12.325V3.308H11.5v.267H8.617l-.267.267v1.68h.267V4.429h.24v.827h.267V4.429h.267v.827h.32V4.429H9.9v.827h.321V4.429H10.4v.827h.32V4.429h.267v.827h.32V4.429H11.5v.827h.32V4.429h.187v.827h.32V4.429h.267v.827h.32V4.429H13.1v.827h.32V4.429h.187v.827h.32V4.429h.267v.827h.32V4.429H14.7v.827h.321V4.429h.186v.827h.32V4.429h.267v.827h.32V4.429H16.3v.827h.32V4.429h.187v.827h.32V4.429h.267v.827h.32V4.429H17.9v.827h.32V4.429h.187v.827h.32V4.429h.24v.827h.32V4.429h.187v.827h.32V4.429h.187v.827h.32V4.429h.267v.827h.32V4.429h.186v.827H21.4V4.429h.213v.827h.32V4.429H22.2v.827h.32V4.429H22.7v.827h.32V4.429h.187v.827h.32V4.429h.24v.827h.32V4.429h.187v.827h.293V4.429h.214v.827h.32V4.429h.267v.827h.32V4.429h.186v.827H26.2V4.429h.186v.827h.32V4.429h.267V5.442h-.24v6.723h-.587v-.56h-.693v.56h-.32v-.56h-.774v.56h-.32v-.56h-.774v.56h-.32v-.56h-.694v.56h-.32v-.56h-.773v.56h-.321v-.56h-.773v.56h-.32v-.56h-.694v.56h-.32v-.56h-.774v.56h-.32v-.56H16.86v.56h-.32v-.56h-.693v.56h-.321v-.56h-.773v.56h-.32v-.56h-.774v.56h-.32v-.56h-.694v.56h-.32v-.56h-.774v.56h-.32v-.56h-.773v.56h-.32v-.56H9.444v.56H8.857v-6.7h-.24l-.027,6.7H6.936l-.8-.827v-.267H5.9v.24H4.8v-.24H3.2v.267H2.188V11.1H1.867v5.069H0v.507H35.215v-.507l-1.254-.054ZM9.124,4.188H8.8V3.842h.32Zm.56,0h-.32V3.842h.32Zm.534,0H9.9V3.842h.321Zm.506,0H10.4V3.842h.32Zm.561,0h-.32V3.842h.32Zm.533,0H11.5V3.842h.32Zm.507,0h-.32V3.842h.32Zm.56,0h-.32V3.842h.32Zm.214,0V3.842h.32v.346Zm.827,0h-.32V3.842h.32Zm.56,0h-.32V3.842h.32Zm.213,0V3.842h.321v.346Zm.507,0V3.842h.32v.346Zm.881,0h-.32V3.842h.32Zm.507,0h-.321V3.842h.321Zm.533,0h-.32V3.842h.32Zm.56,0h-.32V3.842h.32Zm-.56-.853v-.32H17.9v.32Zm1.067.853h-.32V3.842h.32Zm.214,0V3.842h.32v.346Zm.88,0h-.32V3.842h.32Zm.507,0h-.32V3.842h.32Zm.533,0h-.32V3.842h.32Zm.561,0h-.32V3.842h.32Zm.507,0h-.321V3.842H21.4Zm.533,0h-.32V3.842h.32Zm.56,0h-.32V3.842h.32Zm.507,0h-.32V3.842H23Zm.534,0h-.32V3.842h.32Zm.56,0h-.32V3.842h.32Zm.507,0h-.32V3.842h.32Zm.533,0h-.32V3.842h.32Zm.561,0h-.32V3.842h.32Zm.507,0h-.321V3.842H26.2Zm.533,0h-.32V3.842h.32ZM5.416,16.113V12.405H5.149v3.708H4.562V12.085H4.8v-.24H3.2v.267h.32V16.14h-.56V12.432H2.694V16.14h-.48V11.605H5.922V16.14Zm23.423,0H7.016V12.405H28.839Zm4.3,0V12.405h-.32v3.708h-.507V12.085h.32v-.267h-1.6v.267h.267v4.028h-.507V12.405h-.347v3.708h-.507V11.578h3.709v4.535Z" fill="#fff"/>
    <path d="M.08,19.4H2.348v2.854H1.787V19.875H.667v2.374H.08V19.4Z" fill="#fff"/>
    <path d="M2.961,22.276V19.4H3.9a3.349,3.349,0,0,1,.694.053.72.72,0,0,1,.4.294.878.878,0,0,1,.16.56.815.815,0,0,1-.107.453.88.88,0,0,1-.24.294.715.715,0,0,1-.293.133,3.118,3.118,0,0,1-.587.054H3.548v1.093H2.961Zm.56-2.374v.8h.321a1.468,1.468,0,0,0,.453-.053.482.482,0,0,0,.187-.134.287.287,0,0,0,.053-.213.446.446,0,0,0-.08-.267.355.355,0,0,0-.24-.133c-.08,0-.213-.027-.427-.027H3.521Z" fill="#fff"/>
    <path d="M7.843,22.276H7.23l-.267-.667H5.816l-.24.64H4.962L6.083,19.4H6.7l1.147,2.881ZM6.8,21.129l-.4-1.067L6,21.129Z" fill="#fff"/>
    <path d="M8.163,19.4H9.311a2.66,2.66,0,0,1,.506.026.974.974,0,0,1,.294.107.636.636,0,0,1,.213.24.733.733,0,0,1,.08.347.615.615,0,0,1-.106.374.659.659,0,0,1-.294.24.632.632,0,0,1,.4.266.809.809,0,0,1,.134.427.858.858,0,0,1-.08.374.661.661,0,0,1-.24.293.9.9,0,0,1-.4.134c-.106,0-.32.026-.693.026H8.137V19.4Zm.587.48v.667h.8a.338.338,0,0,0,.24-.107.3.3,0,0,0,.08-.213.307.307,0,0,0-.08-.214.538.538,0,0,0-.214-.106H8.75Zm0,1.147V21.8h.534a1.305,1.305,0,0,0,.4-.027.529.529,0,0,0,.213-.107.322.322,0,0,0,.08-.24.5.5,0,0,0-.053-.213.346.346,0,0,0-.187-.134,1.783,1.783,0,0,0-.507-.053Z" fill="#fff"/>
    <path d="M11.071,19.4h.534v1.894L12.779,19.4h.587v2.854h-.534V20.382l-1.147,1.867H11.1V19.4Z" fill="#fff"/>
    <path d="M14.566,22.276V19.9h-.854v-.481H15.98V19.9h-.854v2.374Z" fill="#fff"/>
    <path d="M16.38,22.276V19.4h2.134v.48H16.967v.64h1.441V21H16.967v.774h1.6v.48H16.38Z" fill="#fff"/>
    <path d="M19.235,19.4h2v2.854h-.586V19.875H19.8V21.1a5.335,5.335,0,0,1-.027.747.6.6,0,0,1-.16.32.631.631,0,0,1-.427.107,2.316,2.316,0,0,1-.373-.027V21.8h.133a.23.23,0,0,0,.294-.294V19.4Z" fill="#fff"/>
    <path d="M21.849,19.4h.587v1.147h.774a1,1,0,0,1,.8.267.844.844,0,0,1,.24.613.818.818,0,0,1-.16.507.647.647,0,0,1-.347.267,1.564,1.564,0,0,1-.56.08H21.822V19.4Zm.587,2.4H23a1.2,1.2,0,0,0,.374-.027.307.307,0,0,0,.186-.133.325.325,0,0,0,.08-.24A.345.345,0,0,0,23.5,21.1a1.121,1.121,0,0,0-.48-.08h-.587V21.8Z" fill="#fff"/>
    <path d="M26.464,21.209l.561.187a1.294,1.294,0,0,1-.427.693,1.323,1.323,0,0,1-1.708-.16,1.526,1.526,0,0,1-.373-1.067,1.619,1.619,0,0,1,.373-1.12,1.23,1.23,0,0,1,.961-.4,1.163,1.163,0,0,1,.853.321A1.026,1.026,0,0,1,27,20.2l-.56.133a.521.521,0,0,0-.214-.346.654.654,0,0,0-.4-.134.621.621,0,0,0-.507.24,1.145,1.145,0,0,0-.187.747,1.18,1.18,0,0,0,.187.774.621.621,0,0,0,.507.24.653.653,0,0,0,.4-.133,1.28,1.28,0,0,0,.24-.507Z" fill="#fff"/>
    <path d="M28.065,22.276V19.9h-.854v-.481h2.268V19.9h-.854v2.374Z" fill="#fff"/>
    <path d="M29.852,19.4H31a2.66,2.66,0,0,1,.506.026.974.974,0,0,1,.294.107.636.636,0,0,1,.213.24.733.733,0,0,1,.08.347.615.615,0,0,1-.106.374.659.659,0,0,1-.294.24.632.632,0,0,1,.4.266.809.809,0,0,1,.134.427.858.858,0,0,1-.08.374.661.661,0,0,1-.24.293.894.894,0,0,1-.4.134c-.106,0-.32.026-.693.026h-.987V19.4Zm.587.48v.667h.8a.338.338,0,0,0,.24-.107.3.3,0,0,0,.08-.213.307.307,0,0,0-.08-.214.538.538,0,0,0-.214-.106h-.827Zm0,1.147V21.8h.534a1.305,1.305,0,0,0,.4-.027.529.529,0,0,0,.213-.107.322.322,0,0,0,.08-.24.5.5,0,0,0-.053-.213.346.346,0,0,0-.187-.134,1.779,1.779,0,0,0-.506-.053Z" fill="#fff"/>
    <path d="M32.547,20.862a2.077,2.077,0,0,1,.133-.747,1.754,1.754,0,0,1,.267-.4,1.191,1.191,0,0,1,.374-.267,1.478,1.478,0,0,1,.613-.107,1.347,1.347,0,0,1,1.014.4,1.547,1.547,0,0,1,.373,1.093,1.6,1.6,0,0,1-.373,1.094,1.485,1.485,0,0,1-2.028,0,1.416,1.416,0,0,1-.373-1.067Zm.587-.027a1.243,1.243,0,0,0,.213.747.768.768,0,0,0,.56.24.69.69,0,0,0,.561-.24,1.044,1.044,0,0,0,.213-.747,1.245,1.245,0,0,0-.213-.747.728.728,0,0,0-.561-.24.783.783,0,0,0-.586.24,1.391,1.391,0,0,0-.187.747Z" fill="#fff"/>
    <path d="M3.361,26.411V23.53H4.3a3.424,3.424,0,0,1,.694.053.725.725,0,0,1,.4.294.872.872,0,0,1,.16.56.815.815,0,0,1-.107.453.88.88,0,0,1-.24.294.715.715,0,0,1-.293.133,3.118,3.118,0,0,1-.587.054H3.948v1.04Zm.587-2.374v.8h.32a1.471,1.471,0,0,0,.454-.053.482.482,0,0,0,.187-.134.287.287,0,0,0,.053-.213.453.453,0,0,0-.08-.267.355.355,0,0,0-.24-.133c-.08,0-.214-.027-.427-.027H3.948Z" fill="#fff"/>
    <path d="M5.922,25a2.081,2.081,0,0,1,.134-.747,1.721,1.721,0,0,1,.267-.4,1.2,1.2,0,0,1,.373-.267,1.486,1.486,0,0,1,.614-.107,1.343,1.343,0,0,1,1.013.4A1.543,1.543,0,0,1,8.7,24.97a1.592,1.592,0,0,1-.374,1.094,1.305,1.305,0,0,1-1.013.4,1.306,1.306,0,0,1-1.014-.4A1.526,1.526,0,0,1,5.922,25Zm.587-.027a1.234,1.234,0,0,0,.214.747.769.769,0,0,0,.56.241.689.689,0,0,0,.56-.241,1.042,1.042,0,0,0,.214-.747,1.239,1.239,0,0,0-.214-.747.726.726,0,0,0-.56-.24.785.785,0,0,0-.587.24,1.394,1.394,0,0,0-.187.747Z" fill="#fff"/>
    <path d="M11.045,25.344l.56.187a1.288,1.288,0,0,1-.427.693,1.322,1.322,0,0,1-1.707-.16A1.522,1.522,0,0,1,9.1,25a1.614,1.614,0,0,1,.374-1.12,1.228,1.228,0,0,1,.96-.4,1.167,1.167,0,0,1,.854.321,1.032,1.032,0,0,1,.293.533l-.56.134a.52.52,0,0,0-.214-.347.654.654,0,0,0-.4-.134.621.621,0,0,0-.507.24,1.147,1.147,0,0,0-.186.747,1.181,1.181,0,0,0,.186.774.621.621,0,0,0,.507.24.653.653,0,0,0,.4-.133,1.294,1.294,0,0,0,.241-.507Z" fill="#fff"/>
    <path d="M13.979,25.344l.56.187a1.293,1.293,0,0,1-.426.693,1.323,1.323,0,0,1-1.708-.16A1.526,1.526,0,0,1,12.032,25a1.619,1.619,0,0,1,.373-1.12,1.229,1.229,0,0,1,.961-.4,1.165,1.165,0,0,1,.853.321,1.033,1.033,0,0,1,.294.533l-.561.134a.516.516,0,0,0-.213-.347.656.656,0,0,0-.4-.134.619.619,0,0,0-.507.24,1.147,1.147,0,0,0-.187.747,1.18,1.18,0,0,0,.187.774.619.619,0,0,0,.507.24.656.656,0,0,0,.4-.133.833.833,0,0,0,.24-.507Z" fill="#fff"/>
    <path d="M15.126,23.53h.534v1.894l1.174-1.894h.587v2.881h-.534V24.544L15.74,26.411h-.587V23.53Z" fill="#fff"/>
    <path d="M18.061,23.53h.533v1.894l1.174-1.894h.587v2.881h-.533V24.544l-1.148,1.867h-.587V23.53Zm1.467-.694H19.8a.7.7,0,0,1-.187.427.65.65,0,0,1-.854,0,.7.7,0,0,1-.186-.427h.266a.334.334,0,0,0,.107.214.4.4,0,0,0,.48,0,.245.245,0,0,0,.107-.214Z" fill="#fff"/>
    <path d="M22.809,25.344l.561.187a1.288,1.288,0,0,1-.427.693,1.323,1.323,0,0,1-1.708-.16A1.526,1.526,0,0,1,20.862,25a1.619,1.619,0,0,1,.373-1.12,1.232,1.232,0,0,1,.961-.4,1.167,1.167,0,0,1,.854.321,1.032,1.032,0,0,1,.293.533l-.56.134a.52.52,0,0,0-.214-.347.654.654,0,0,0-.4-.134.621.621,0,0,0-.507.24,1.147,1.147,0,0,0-.186.747,1.181,1.181,0,0,0,.186.774.621.621,0,0,0,.507.24.653.653,0,0,0,.4-.133,1.28,1.28,0,0,0,.24-.507Z" fill="#fff"/>
    <path d="M23.93,23.53h.587v1.227a.356.356,0,0,0,.267-.107A2.5,2.5,0,0,0,25,24.2a1.051,1.051,0,0,1,.374-.587,1.087,1.087,0,0,1,.586-.107h.08v.427h-.08a.679.679,0,0,0-.266.053.321.321,0,0,0-.134.134c-.026.053-.08.186-.16.373a1.035,1.035,0,0,1-.106.24.754.754,0,0,1-.214.187.536.536,0,0,1,.32.213,1.921,1.921,0,0,1,.267.481l.4.773h-.693l-.347-.747A.09.09,0,0,1,25,25.584a1.509,1.509,0,0,0-.08-.133c-.08-.134-.133-.24-.187-.267a.5.5,0,0,0-.213-.053v1.28H23.93V23.53Z" fill="#fff"/>
    <path d="M26.3,25a2.081,2.081,0,0,1,.134-.747,1.748,1.748,0,0,1,.266-.4,1.219,1.219,0,0,1,.374-.267,1.483,1.483,0,0,1,.614-.107,1.346,1.346,0,0,1,1.013.4,1.547,1.547,0,0,1,.374,1.093,1.6,1.6,0,0,1-.374,1.094,1.484,1.484,0,0,1-2.027,0A1.526,1.526,0,0,1,26.3,25Zm.614-.027a1.241,1.241,0,0,0,.213.747.77.77,0,0,0,.561.241.69.69,0,0,0,.56-.241,1.042,1.042,0,0,0,.213-.747,1.245,1.245,0,0,0-.213-.747.728.728,0,0,0-.56-.24.783.783,0,0,0-.587.24,1.394,1.394,0,0,0-.187.747Z" fill="#fff"/>
    <path d="M29.612,23.53h.534v1.894L31.32,23.53h.587v2.881h-.534V24.544l-1.147,1.867h-.587V23.53Zm1.494-.694h.267a.7.7,0,0,1-.187.427.648.648,0,0,1-.853,0,.7.7,0,0,1-.187-.427h.267a.333.333,0,0,0,.106.214.4.4,0,0,0,.481,0,.538.538,0,0,0,.106-.214Z" fill="#fff"/>
    <path d="M6.643,30.2v.347H6.082V30.2a1.327,1.327,0,0,1-.96-.347,1.159,1.159,0,0,1-.293-.773,1.182,1.182,0,0,1,.293-.8,1.226,1.226,0,0,1,.96-.32v-.293h.561v.293a1.336,1.336,0,0,1,.96.347,1.18,1.18,0,0,1,.294.8,1.066,1.066,0,0,1-.294.774A1.329,1.329,0,0,1,6.643,30.2Zm-.561-.48v-1.28a.748.748,0,0,0-.533.16.648.648,0,0,0-.16.48C5.389,29.506,5.6,29.719,6.082,29.719Zm.561,0a.9.9,0,0,0,.4-.08.469.469,0,0,0,.24-.213.712.712,0,0,0,.08-.374c0-.427-.24-.613-.694-.613v1.28Z" fill="#fff"/>
    <path d="M8.4,30.546V27.692h2.135v.48H8.99v.64h1.441v.48H8.99v.774h1.6v.48Z" fill="#fff"/>
    <path d="M11.365,27.665h1.974v2.374h.24v1.094H13.1v-.614H11.285v.614H10.8V30.039h.241a3.652,3.652,0,0,0,.24-.853c.026-.321.053-.721.053-1.228v-.293Zm.56.48a5.412,5.412,0,0,1-.24,1.894h1.094V28.145Z" fill="#fff"/>
    <path d="M14.059,30.546V27.692h2.134v.48H14.646v.64h1.441v.48H14.646v.774h1.6v.48Z" fill="#fff"/>
    <path d="M16.78,30.546V27.692h.934a3.349,3.349,0,0,1,.694.053.718.718,0,0,1,.4.293.877.877,0,0,1,.16.561.817.817,0,0,1-.107.453.88.88,0,0,1-.24.294.728.728,0,0,1-.293.133,3.131,3.131,0,0,1-.587.053h-.374v1.094H16.78Zm.587-2.374v.8h.32a1.476,1.476,0,0,0,.454-.053.482.482,0,0,0,.187-.134.287.287,0,0,0,.053-.213.453.453,0,0,0-.08-.267.355.355,0,0,0-.24-.133c-.08,0-.214-.027-.427-.027h-.267Z" fill="#fff"/>
    <path d="M21.742,30.546H21.1l-.24-.64H19.715l-.24.64h-.614l1.121-2.854H20.6l1.147,2.854ZM20.675,29.4l-.4-1.067-.4,1.067Z" fill="#fff"/>
    <path d="M22.116,27.665H22.7v2.374h1.12V27.665h.587v2.374h.24v1.094h-.48v-.614H22.143V27.665Z" fill="#fff"/>
    <path d="M25.1,27.665h.533v1.894l1.174-1.894H27.4v2.854h-.534V28.652l-1.147,1.867H25.1V27.665Z" fill="#fff"/>
    <path d="M28.038,27.665h.534v1.894l1.174-1.894h.587v2.854H29.8V28.652l-1.147,1.867h-.614V27.665Z" fill="#fff"/>
  </g>
</svg>
