<svg xmlns="http://www.w3.org/2000/svg" width="23.953mm" height="4.677mm" viewBox="0 0 67.898 13.258">
  <title>innopolis</title>
  <g>
    <path d="M27.963,2.893H23.624A2.033,2.033,0,0,0,21.575,4.7V7.533a1.983,1.983,0,0,0,2.049,1.748h4.219a2.034,2.034,0,0,0,2.049-1.808V4.7C30.012,3.676,28.927,2.893,27.963,2.893Zm-.3,5H23.745a.06.06,0,0,1-.061-.061h-.06a.059.059,0,0,1-.06-.06l-.061-.06h0l-.06-.06V7.593h0v-.12h0V7.352h0V4.761a.059.059,0,0,1,.06-.06.06.06,0,0,1,.061-.061l.06-.06.06-.06.061-.06h.06a.059.059,0,0,0,.06-.061h3.857a.7.7,0,0,1,.723.724V7.352A.815.815,0,0,1,27.662,7.9Z" fill="#fff"/>
    <path d="M47.369,2.772h-4.34A2.034,2.034,0,0,0,40.98,4.58V7.413A1.983,1.983,0,0,0,43.029,9.16h4.219A2.033,2.033,0,0,0,49.3,7.352V4.58C49.418,3.556,48.333,2.772,47.369,2.772Zm-.3,5H43.15a.059.059,0,0,1-.06-.06h-.061a.059.059,0,0,1-.06-.06h0l-.06-.061v-.06h0a.059.059,0,0,0-.06-.06v-.06h0V7.292h0v-.12l-.061-2.351V4.64h0V4.52a.059.059,0,0,1,.061-.06V4.4l.06-.06.06-.06.06-.06h.061l.06-.061h3.917a.7.7,0,0,1,.723.723v2.23A.684.684,0,0,1,47.067,7.774Z" fill="#fff"/>
    <path d="M1.627,3.013h-.12A1.584,1.584,0,0,0,0,4.58V9.341a.059.059,0,0,0,.06.06H1.687a.059.059,0,0,0,.061-.06L1.627,3.013C1.687,3.074,1.687,3.013,1.627,3.013Z" fill="#fff"/>
    <path d="M58.277,2.712h-.121a1.544,1.544,0,0,0-1.507,1.567V9.04a.059.059,0,0,0,.061.06h1.627a.059.059,0,0,0,.06-.06l-.12-6.328Z" fill="#fff"/>
    <path d="M37.666,2.832H33.387A2.034,2.034,0,0,0,31.338,4.64V7.473L31.4,13.2a.059.059,0,0,0,.06.06h.121a1.544,1.544,0,0,0,1.507-1.567V9.221h4.58a2.034,2.034,0,0,0,2.049-1.808V4.64A2.078,2.078,0,0,0,37.666,2.832Zm-.3,5H33.508a.059.059,0,0,1-.061-.06h0a.059.059,0,0,1-.06-.06h0l-.06-.06V7.593h0a.059.059,0,0,0-.061-.06v-.06h0V7.352h0V4.821h0V4.7a.06.06,0,0,1,.061-.061V4.58l.06-.06.06-.06.061-.061h0l.06-.06h0c.06,0,.06,0,.12-.06h3.676A.7.7,0,0,1,38.088,5v2.23A.723.723,0,0,1,37.364,7.834Z" fill="#fff"/>
    <path d="M66.111,5.3H61.953a.663.663,0,1,1,0-1.325h4.58a1.1,1.1,0,0,0,1.085-1.146v-.18a.06.06,0,0,0-.061-.061H61.712A1.892,1.892,0,0,0,59.783,4.46a1.918,1.918,0,0,0,1.868,1.868h4.4a.669.669,0,0,1,.663.663.707.707,0,0,1-.543.663h-5.3A1.144,1.144,0,0,0,59.723,8.8v.06a.13.13,0,0,0,.12.121H65.93a1.892,1.892,0,0,0,1.929-1.869C68.1,6.087,67.2,5.3,66.111,5.3Z" fill="#fff"/>
    <path d="M20.249,4.158V2.953a.059.059,0,0,0-.06-.06h-.181A1.492,1.492,0,0,0,18.5,4.4h0V7.593a.129.129,0,0,1-.12.121c-.06,0-.06,0-.06-.06l-4.7-4.52a.52.52,0,0,0-.362-.181H12.113c-.6,0-1.265.181-1.265,1.085V7.654a.13.13,0,0,1-.121.12c-.06,0-.06,0-.06-.06L5.906,3.254c-.181-.241-.3-.241-.422-.241H4.339A1.219,1.219,0,0,0,3.074,4.339V9.281a.059.059,0,0,0,.06.06H4.761a.059.059,0,0,0,.06-.06V4.46a.129.129,0,0,1,.121-.121c.06,0,.06,0,.06.06L9.4,8.678l.061.06c.241.242.542.543.843.543h1.628a.668.668,0,0,0,.662-.663V4.4a.13.13,0,0,1,.121-.12c.06,0,.06,0,.06.06l4.4,4.279.06.06c.241.241.542.543.844.482h1.627A.669.669,0,0,0,20.37,8.5V6.689Z" fill="#fff"/>
    <path d="M55.2,8.136H53.7a1.133,1.133,0,0,1-1.145-1.085V.181c0-.121-.06-.181-.12-.181a1.544,1.544,0,0,0-1.507,1.567l.06,5.785A1.983,1.983,0,0,0,53.033,9.1h2.23a.059.059,0,0,0,.061-.06l-.121-.9Z" fill="#fff"/>
  </g>
</svg>
