<svg xmlns="http://www.w3.org/2000/svg" width="30.806mm" height="4.364mm" viewBox="0 0 87.325 12.37">
  <title>minsport</title>
  <g>
    <path d="M86.962.009Q81.468.009,75.982,0c-2.154,0-4.3,0-6.453.036-.209-.009-.418-.027-.636-.027Q46.465,0,24.028,0H5.741A4.283,4.283,0,0,0,1.423,3.545C1.232,4.581,1.06,5.617.887,6.653c-.291,1.8-.564,3.6-.873,5.39-.045.273.009.327.273.327,2.045-.009,4.1-.009,6.144-.009q5.808,0,11.616-.009c.21,0,.409.009.609.009H52.7q14.807-.014,29.622-.009a3.441,3.441,0,0,0,3.4-2.636,17.783,17.783,0,0,0,.345-1.972c.246-1.563.537-3.127.764-4.69.127-.891.309-1.772.463-2.654C87.362.009,87.353.009,86.962.009ZM65.875,3.454c-.2,1.172-.373,2.354-.563,3.527-.237,1.417-.491,2.835-.7,4.262-.046.3-.164.328-.409.328q-8.522-.014-17.034-.009H28.955c-.791,0-1.582.027-2.373.045a.423.423,0,0,1-.518,0H20.92c-.046.073-.1.073-.146,0h-.4a1.053,1.053,0,0,1-.918-.027,1.5,1.5,0,0,0-.5,0c-.136,0-.281-.009-.427-.009H1.35c-.454,0-.445,0-.363-.437.227-1.381.464-2.763.691-4.144.191-1.155.354-2.318.572-3.463A3.334,3.334,0,0,1,5.677.809Q16.639.8,27.609.8H64.348c.1,0,.209-.009.309-.009h1.582c.109.082.036.2.054.3C66.157,1.881,66,2.663,65.875,3.454ZM75.5,5.863A3.365,3.365,0,0,1,74,7.789a3.638,3.638,0,0,1-1.972.591c-.937,0-1.864.009-2.8,0-.164,0-.245.037-.273.228-.054.427-.154.845-.218,1.272-.018.2-.1.236-.272.227q-.656-.013-1.309,0c-.182.009-.228-.027-.209-.236.1-.854.309-1.682.454-2.527.273-1.6.564-3.2.836-4.8.046-.218.119-.3.346-.3.772.018,1.545.009,2.317.009.755,0,1.518-.027,2.282.009a2.533,2.533,0,0,1,2.009.973A2.794,2.794,0,0,1,75.5,5.863Zm9.752-3.354A1.517,1.517,0,0,1,83.59,3.863c-.527-.018-1.054.018-1.581.018-.182,0-.228.091-.246.236-.327,1.9-.663,3.809-.982,5.718-.045.218-.109.336-.363.327-.436-.027-.873-.018-1.309-.009-.173,0-.227-.046-.191-.228.318-1.717.618-3.444.927-5.162.037-.227.055-.455.091-.682.037-.173-.045-.2-.182-.2h-1.4V3.89H77.046c-.182,0-.327.009-.2-.254a4.363,4.363,0,0,0,.136-.527,1.232,1.232,0,0,1,1.273-.855c2.263-.018,4.526-.009,6.78-.009C85.244,2.245,85.281,2.3,85.253,2.509Z" fill="#fff"/>
    <path d="M20.374,11.607a1.053,1.053,0,0,1-.918-.027A6.123,6.123,0,0,1,20.374,11.607Z" fill="#fff"/>
    <path d="M26.582,11.607a.423.423,0,0,1-.518,0Z" fill="#fff"/>
    <path d="M20.92,11.607c-.046.073-.1.073-.146,0Z" fill="#fff"/>
    <path d="M5.792,4.648q-.2,1.1-.394,2.2c-.124.7-.233,1.4-.374,2.091A1.487,1.487,0,0,1,3.26,10.1c-.215-.024-.116-.188-.1-.282.13-.778.272-1.554.411-2.331.2-1.126.388-2.253.6-3.376A2.394,2.394,0,0,1,6.708,2.247a.209.209,0,0,1,.211.171c.3,1.019.606,2.037.918,3.052.255.827.524,1.65.787,2.477.143-.048.178-.165.239-.253.86-1.261,1.715-2.526,2.577-3.786a3.66,3.66,0,0,1,3.141-1.66c.207,0,.253.044.214.26q-.549,3.03-1.071,6.065a1.772,1.772,0,0,1-1.794,1.534c-.184-.007-.218-.059-.186-.235q.444-2.463.873-4.93a.411.411,0,0,0-.021-.324c-.284.414-.562.8-.826,1.205-.763,1.159-1.509,2.33-2.285,3.479a1.931,1.931,0,0,1-1.89.8c-.175-.014-.168-.151-.2-.259q-.548-1.88-1.091-3.761Q6.1,5.36,5.883,4.636Z" fill="#fff"/>
    <path d="M58.4,10.168A4.847,4.847,0,0,1,56.023,9.8,3,3,0,0,1,54.291,6.63a4.841,4.841,0,0,1,4.457-4.417,8.924,8.924,0,0,1,2.753.1A2.922,2.922,0,0,1,63.9,4.756a4.356,4.356,0,0,1-.943,3.538,4.893,4.893,0,0,1-3.945,1.874C58.805,10.17,58.6,10.168,58.4,10.168Zm.366-1.524a6.143,6.143,0,0,0,1.012-.032,2.878,2.878,0,0,0,2.434-2.623,1.905,1.905,0,0,0-1.606-2.228,7.834,7.834,0,0,0-1.484-.048,2.912,2.912,0,0,0-3.081,2.52,1.943,1.943,0,0,0,1.036,2.211A3.8,3.8,0,0,0,58.765,8.644Z" fill="#fff"/>
    <path d="M22.667,4.724c-.365.346-.69.648-1.009.955-1.2,1.159-2.4,2.322-3.6,3.477a3.356,3.356,0,0,1-2.454.95c-.187,0-.252-.047-.217-.243q.655-3.672,1.3-7.345c.038-.219.117-.266.329-.274a1.189,1.189,0,0,1,1.231,1.408c-.124.582-.2,1.174-.327,1.757a8.5,8.5,0,0,0-.181,1.108c-.033.369-.122.733-.2,1.183.49-.467.923-.873,1.349-1.286q1.647-1.6,3.29-3.2a3.323,3.323,0,0,1,2.446-.967c.237,0,.265.081.221.289-.212,1.007-.389,2.023-.561,3.037C24.037,7,23.77,8.417,23.546,9.845c-.042.268-.165.279-.365.245a1.405,1.405,0,0,1-1.146-1.631q.316-1.791.631-3.581A1.109,1.109,0,0,0,22.667,4.724Z" fill="#fff"/>
    <path d="M37.508,7.226a1.941,1.941,0,0,0,.654,1.036,2.825,2.825,0,0,0,1.627.382c.527-.018,1.054-.009,1.582,0a1.147,1.147,0,0,1,1.19,1.063c.037.355-.054.464-.418.464H39.235a3.651,3.651,0,0,1-2.445-.8A2.834,2.834,0,0,1,35.726,6.99,4.555,4.555,0,0,1,36.6,4.236a4.8,4.8,0,0,1,3.317-1.982,35.437,35.437,0,0,1,3.8-.073c.145,0,.19.037.163.2a1.386,1.386,0,0,1-1.518,1.327,16.036,16.036,0,0,0-2.545.064A2.923,2.923,0,0,0,37.508,7.226Z" fill="#fff"/>
    <path d="M53.405,2.509c-.137.645-.246,1.29-.364,1.936-.145.9-.291,1.79-.445,2.69s-.327,1.791-.473,2.681c-.036.209-.109.3-.327.291-.427-.018-.855-.009-1.282,0-.172,0-.218-.036-.182-.227.3-1.609.537-3.227.873-4.835.055-.319.1-.637.164-.946.036-.191.009-.282-.209-.282-1.246.01-2.491.019-3.736,0-.2,0-.255.082-.291.264-.136.827-.291,1.654-.436,2.481-.191,1.091-.373,2.173-.555,3.254-.036.209-.118.309-.345.291-.418-.018-.836,0-1.245,0-.118-.009-.237.018-.2-.172.2-1.082.4-2.164.591-3.245.245-1.418.49-2.845.736-4.263.036-.218.191-.173.318-.173h4.381c.927,0,1.863.009,2.79,0C53.377,2.245,53.459,2.281,53.405,2.509Z" fill="#fff"/>
    <path d="M34.9,2.481c-.255,1.246-.409,2.509-.7,3.754-.064.264-.054.555-.136.827a13.493,13.493,0,0,1-.337,2,1.534,1.534,0,0,1-1.817,1.045c-.137-.036-.119-.127-.1-.209.136-.727.272-1.445.409-2.172.018-.064.027-.127.045-.2s.018-.155.027-.227c.037-.473.037-.473-.463-.473H28.336c-.427,0-.427.009-.5.427C27.7,8.1,27.546,8.944,27.4,9.8c-.036.218-.109.327-.363.309a11,11,0,0,0-1.218,0c-.191,0-.246-.054-.209-.245.254-1.409.5-2.809.745-4.218.136-.727.245-1.472.4-2.2a1.63,1.63,0,0,1,1.809-1.2c.127.027.145.082.127.182-.118.645-.227,1.3-.355,1.945-.027.191-.081.373-.118.563-.036.228.028.319.282.319,1.264-.019,2.518-.019,3.772,0,.318.009.391-.109.436-.382.128-.8.282-1.591.409-2.391.037-.172.091-.236.273-.236.436.018.873.018,1.3,0C34.872,2.245,34.935,2.309,34.9,2.481Z" fill="#fff"/>
    <path d="M70.853,6.748c-.446,0-.892,0-1.338,0-.177,0-.221-.039-.186-.224.155-.824.3-1.651.433-2.478.022-.13.081-.166.2-.166.953,0,1.906-.017,2.858.017a1.077,1.077,0,0,1,1.035,1.343,1.657,1.657,0,0,1-1.757,1.5C71.684,6.753,71.268,6.748,70.853,6.748Z" fill="#fff"/>
  </g>
</svg>
