<svg xmlns="http://www.w3.org/2000/svg" width="25.455mm" height="2.775mm" viewBox="0 0 72.155 7.867">
  <title>rosautodor</title>
  <g>
    <g>
      <path d="M2.578.019,2.536.178h.133c.518,0,.718.1.718.341a.834.834,0,0,1-.032.2L3.323.834c-.114.4-.338.544-.978.544H2.2l-.051.19H1.908l.052-.19H1.817c-.511,0-.709-.091-.709-.333A.8.8,0,0,1,1.144.834L1.176.716c.107-.395.343-.538.984-.538h.133L2.335.019Zm-.327.3H2.17c-.561,0-.651.087-.731.381L1.4.845a.721.721,0,0,0-.032.18c0,.147.113.209.492.209H2Zm-.006.911H2.39c.508,0,.593-.11.671-.388L3.1.7A.634.634,0,0,0,3.128.53C3.128.372,3,.323,2.572.323H2.5Z" fill="#fff"/>
      <path d="M5.657.019,5.614.168H4.772L4.633.682h.781L5.371.827h-.78l-.162.592H5.27l-.042.149H4.143L4.572.019Z" fill="#fff"/>
      <path d="M8.11.019l-.385,1.4h.158l-.145.526H7.51l.1-.377H6.283l-.1.377H5.953L6.1,1.419h.175a.983.983,0,0,0,.34-.59l.223-.81ZM7.037.168,6.853.846a.957.957,0,0,1-.323.573h.952L7.824.168Z" fill="#fff"/>
      <path d="M10.188.019l-.042.149H9.3L9.165.682h.78L9.9.827H9.122l-.161.592H9.8l-.041.149H8.675L9.1.019Z" fill="#fff"/>
      <path d="M10.941,1.568H10.7L11.126.019h.654c.421,0,.605.041.605.24a.49.49,0,0,1-.022.14L12.311.58c-.094.329-.285.384-.791.384h-.41ZM11.148.82h.375c.335,0,.467-.018.515-.195l.075-.266a.285.285,0,0,0,.01-.068c0-.119-.133-.127-.417-.127H11.33Z" fill="#fff"/>
      <path d="M14.074.019l.23,1.549h-.262L14,1.236h-.842l-.243.332h-.24L13.8.019Zm-.1,1.071L13.87.228l-.607.862Z" fill="#fff"/>
      <path d="M17.2.019l-.427,1.549h-.243l.384-1.4h-.964l-.262.949a.51.51,0,0,1-.531.451H15l.041-.151H15.1c.184,0,.269-.039.337-.283L15.745.019Z" fill="#fff"/>
      <path d="M18.305.682h.41c.418,0,.6.04.6.239a.527.527,0,0,1-.022.145l-.032.118c-.092.322-.289.384-.793.384h-.655L18.243.019h.243Zm-.208.742h.376c.334,0,.469-.017.518-.2l.058-.205a.265.265,0,0,0,.009-.064c0-.118-.132-.131-.421-.131h-.375Z" fill="#fff"/>
      <path d="M20.6.682h.965l.182-.663h.242l-.427,1.549h-.244l.2-.741h-.964l-.2.741h-.243L20.534.019h.244Z" fill="#fff"/>
      <path d="M23.855,0c.363,0,.515.1.515.32a.751.751,0,0,1-.032.206l-.149.538c-.1.36-.314.523-.774.523h-.207c-.362,0-.518-.1-.518-.32a.7.7,0,0,1,.032-.2l.149-.538c.1-.361.317-.526.777-.526Zm-.22.149c-.333,0-.43.1-.505.377l-.149.538a.818.818,0,0,0-.032.188c0,.135.084.187.327.187h.149c.333,0,.43-.1.5-.375l.148-.538a.782.782,0,0,0,.034-.189c0-.134-.085-.188-.328-.188Z" fill="#fff"/>
      <path d="M26.588.019l-.043.149H25.7l-.138.514h.78L26.3.827h-.78l-.162.592H26.2l-.042.149H25.075L25.5.019Z" fill="#fff"/>
      <path d="M32,.019l-.385,1.4h.158l-.145.526H31.4l.1-.377H30.172l-.1.377h-.228l.146-.526h.175a.983.983,0,0,0,.34-.59l.224-.81ZM30.927.168l-.184.678a.968.968,0,0,1-.325.573h.952L31.713.168Z" fill="#fff"/>
      <path d="M33.813,0c.363,0,.516.1.516.32A.751.751,0,0,1,34.3.526l-.15.538c-.1.36-.313.523-.773.523h-.207c-.363,0-.518-.1-.518-.32a.7.7,0,0,1,.032-.2L32.83.526c.1-.361.316-.526.777-.526Zm-.219.149c-.333,0-.431.1-.505.377l-.149.538a.775.775,0,0,0-.033.188c0,.135.085.187.327.187h.149c.334,0,.43-.1.506-.375l.148-.538a.766.766,0,0,0,.032-.189c0-.134-.083-.188-.327-.188Z" fill="#fff"/>
      <path d="M35.276,1.568h-.242L35.461.019h.654c.421,0,.6.041.6.24A.462.462,0,0,1,36.7.4L36.646.58c-.094.329-.286.384-.79.384h-.412ZM35.483.82h.376c.334,0,.467-.018.515-.195l.075-.266a.347.347,0,0,0,.01-.068c0-.119-.133-.127-.418-.127h-.375Z" fill="#fff"/>
      <path d="M38.626,0c.363,0,.515.1.515.32a.751.751,0,0,1-.032.206l-.15.538c-.1.36-.314.523-.773.523h-.207c-.363,0-.519-.1-.519-.32a.706.706,0,0,1,.033-.2l.149-.538c.1-.361.318-.526.777-.526Zm-.22.149c-.333,0-.43.1-.5.377l-.15.538a.818.818,0,0,0-.032.188c0,.135.084.187.327.187H38.2c.333,0,.43-.1.505-.375l.148-.538a.782.782,0,0,0,.034-.189c0-.134-.085-.188-.328-.188Z" fill="#fff"/>
      <path d="M41.261.682h.078l.87-.663h.266l-.962.732.628.817h-.282L41.287.827h-.068l-.2.741h-.243l.2-.741h-.068l-.981.741h-.281L40.727.751,40.166.019h.265l.509.663h.078L41.2.019h.243Z" fill="#fff"/>
      <path d="M43.479.682h.965l.18-.663h.244L44.44,1.568H44.2l.2-.741h-.966l-.2.741H42.99L43.416.019h.244Z" fill="#fff"/>
      <path d="M46.738,0c.362,0,.514.1.514.32a.715.715,0,0,1-.032.206l-.149.538c-.1.36-.314.523-.773.523H46.09c-.363,0-.519-.1-.519-.32a.706.706,0,0,1,.033-.2l.149-.538c.1-.361.317-.526.777-.526Zm-.221.149c-.333,0-.43.1-.5.377l-.149.538a.775.775,0,0,0-.033.188c0,.135.083.187.327.187h.149c.334,0,.43-.1.506-.375l.148-.538a.817.817,0,0,0,.032-.189c0-.134-.084-.188-.327-.188Z" fill="#fff"/>
      <path d="M49.469.019l-.041.149h-.842l-.139.514h.78l-.043.145H48.4l-.162.592h.843l-.043.149H47.957L48.384.019Z" fill="#fff"/>
      <path d="M54.139.019l.231,1.549h-.263l-.045-.332h-.841l-.244.332h-.24L53.861.019Zm-.1,1.071L53.935.228l-.608.862Z" fill="#fff"/>
      <path d="M56.768.019l-.043.149h-.879l-.387,1.4h-.242L55.644.019Z" fill="#fff"/>
      <path d="M58.732.019l-.041.149h-.843l-.139.514h.78l-.042.145h-.78l-.163.592h.843l-.042.149H57.22L57.647.019Z" fill="#fff"/>
      <path d="M59.732.682H60.7l.182-.663h.242l-.426,1.549h-.243l.2-.741H59.69l-.2.741h-.243L59.67.019h.244Z" fill="#fff"/>
      <path d="M63.275.019l-.041.149h-.521l-.386,1.4h-.243l.385-1.4h-.52l.042-.149Z" fill="#fff"/>
      <path d="M65.094.519a.58.58,0,0,0,.037-.188c0-.128-.082-.182-.292-.182h-.132c-.3,0-.389.106-.463.377l-.145.522a.964.964,0,0,0-.046.235c0,.116.074.156.3.156h.136c.317,0,.382-.079.463-.391h.259a.626.626,0,0,1-.719.539h-.233c-.357,0-.463-.12-.463-.292a.782.782,0,0,1,.032-.2l.159-.573c.1-.361.317-.526.774-.526h.129c.359,0,.511.088.511.289a.707.707,0,0,1-.045.231h-.26Z" fill="#fff"/>
      <path d="M67.546.019,67.5.168h-.521l-.385,1.4h-.244l.386-1.4h-.522L66.26.019Z" fill="#fff"/>
      <path d="M68.415.019h.639c.427,0,.624.037.624.221a.411.411,0,0,1-.016.1l-.039.137c-.041.149-.146.228-.372.273.181.033.266.1.266.223a.348.348,0,0,1-.014.1l-.042.149c-.075.269-.3.349-.79.349h-.683ZM68.27,1.424h.386c.359,0,.514-.032.566-.222l.038-.142a.282.282,0,0,0,.014-.073c0-.13-.146-.16-.453-.16h-.386Zm.208-.742h.368c.346,0,.486-.027.528-.185l.049-.174a.169.169,0,0,0,.006-.041c0-.1-.142-.118-.44-.118H68.62Z" fill="#fff"/>
      <path d="M71.64,0c.361,0,.515.1.515.32a.756.756,0,0,1-.033.206l-.149.538c-.1.36-.314.523-.774.523h-.207c-.362,0-.518-.1-.518-.32a.673.673,0,0,1,.033-.2l.148-.538c.1-.361.318-.526.777-.526Zm-.221.149c-.333,0-.43.1-.5.377l-.149.538a.818.818,0,0,0-.032.188c0,.135.084.187.327.187h.149c.333,0,.431-.1.5-.375l.149-.538A.817.817,0,0,0,71.9.337c0-.134-.083-.188-.326-.188Z" fill="#fff"/>
    </g>
    <g>
      <path d="M6.383,4.49C6.125,5.733,5.468,6.228,4.1,6.228H1.62L1.331,7.675H0l.978-4.9H4.771c1.162,0,1.676.325,1.676,1.144A3.142,3.142,0,0,1,6.383,4.49ZM4.337,3.749H2.116l-.3,1.5H4.034c.737,0,1.049-.36,1.049-1.017C5.083,3.919,4.9,3.749,4.337,3.749Z" fill="#fff"/>
      <path d="M13.712,4.463,13.408,6c-.241,1.221-.794,1.673-2.349,1.673H8.613c-1.243,0-1.773-.339-1.773-1.144A2.748,2.748,0,0,1,6.9,6l.3-1.539c.265-1.343.891-1.745,2.406-1.745h2.445c1.147,0,1.731.255,1.731,1.137A3.024,3.024,0,0,1,13.712,4.463Zm-2.237-.77H9.759c-.834,0-1.1.183-1.243.883L8.252,5.882a1.625,1.625,0,0,0-.041.31c0,.4.257.509.915.509h1.763c.85,0,1.075-.163,1.212-.827l.264-1.3a1.91,1.91,0,0,0,.04-.332C12.406,3.806,12.124,3.693,11.475,3.693Z" fill="#fff"/>
      <path d="M21.17,4.427H19.84a1.178,1.178,0,0,0,.023-.184c0-.388-.264-.55-.938-.55H17.217c-.89,0-1.106.134-1.26.9l-.239,1.215a1.817,1.817,0,0,0-.041.34c0,.451.3.55.931.55h1.708c.793,0,1.1-.127,1.21-.721h1.339c-.264,1.307-.706,1.695-2.349,1.695H16.038c-1.259,0-1.756-.275-1.756-1.094a3.388,3.388,0,0,1,.072-.636l.281-1.391c.289-1.434.89-1.836,2.526-1.836h2.213c1.131,0,1.852.247,1.852,1.193A2.487,2.487,0,0,1,21.17,4.427Z" fill="#fff"/>
      <path d="M34.382,5.091c.433.134.722.3.722.791a2.115,2.115,0,0,1-.04.353c-.209,1.052-.89,1.44-2.149,1.44H28.634l.977-4.9h4.01c1.1,0,1.708.255,1.708.946A1.273,1.273,0,0,1,34.382,5.091Zm-1.291.536H30.373L30.149,6.75h2.669c.746,0,.954-.205.954-.791C33.773,5.733,33.629,5.627,33.091,5.627ZM33.468,3.7H30.759l-.209,1.06h2.719a.668.668,0,0,0,.665-.7C33.934,3.884,33.838,3.7,33.468,3.7Z" fill="#fff"/>
      <path d="M42.223,3.749h-2.35l-.785,3.926H37.757l.784-3.926H36.218l.192-.974h6.005Z" fill="#fff"/>
      <path d="M49.3,4.463,49,6c-.241,1.221-.793,1.673-2.349,1.673H44.2c-1.243,0-1.771-.339-1.771-1.144A2.663,2.663,0,0,1,42.488,6l.3-1.539c.264-1.343.89-1.745,2.405-1.745h2.446c1.146,0,1.731.255,1.731,1.137A3.1,3.1,0,0,1,49.3,4.463Zm-2.238-.77H45.351c-.834,0-1.1.183-1.243.883l-.265,1.306a1.615,1.615,0,0,0-.04.31c0,.4.256.509.915.509h1.763c.85,0,1.074-.163,1.21-.827l.266-1.3A2.012,2.012,0,0,0,48,4.237C48,3.806,47.716,3.693,47.066,3.693Z" fill="#fff"/>
      <path d="M56.385,6.7H57l-.175.974H49.591l.186-.974h.377a2.359,2.359,0,0,0,.979-1.582l.472-2.344H57.17Zm-3.7-2.952-.32,1.611A2.443,2.443,0,0,1,51.646,6.7h3.408l.585-2.952Z" fill="#fff"/>
      <path d="M64.677,4.463,64.372,6c-.241,1.221-.794,1.673-2.349,1.673H59.577c-1.243,0-1.771-.339-1.771-1.144A2.663,2.663,0,0,1,57.861,6l.3-1.539c.265-1.343.89-1.745,2.406-1.745h2.445c1.146,0,1.732.255,1.732,1.137A3.107,3.107,0,0,1,64.677,4.463Zm-2.238-.77H60.724c-.834,0-1.1.183-1.243.883l-.264,1.306a1.615,1.615,0,0,0-.04.31c0,.4.256.509.914.509h1.764c.849,0,1.074-.163,1.21-.827l.265-1.3a1.91,1.91,0,0,0,.04-.332C63.37,3.806,63.089,3.693,62.439,3.693Z" fill="#fff"/>
      <path d="M71.413,4.49c-.257,1.243-.914,1.738-2.285,1.738H66.65l-.288,1.447H65.03l.979-4.9H69.8c1.162,0,1.675.325,1.675,1.144A3.142,3.142,0,0,1,71.413,4.49Zm-2.045-.741H67.147l-.3,1.5h2.222c.737,0,1.049-.36,1.049-1.017C70.114,3.919,69.93,3.749,69.368,3.749Z" fill="#fff"/>
      <path d="M6.439,4.675c-.257,1.243-.914,1.737-2.285,1.737H1.677L1.387,7.86H.057l.979-4.9H4.828C5.99,2.96,6.5,3.285,6.5,4.1A3.057,3.057,0,0,1,6.439,4.675ZM4.394,3.934H2.173l-.3,1.5H4.09c.738,0,1.05-.359,1.05-1.017C5.14,4.1,4.956,3.934,4.394,3.934Z" fill="#fff"/>
      <path d="M13.769,4.646l-.3,1.54c-.24,1.222-.794,1.674-2.349,1.674H8.67C7.427,7.86,6.9,7.521,6.9,6.716a2.68,2.68,0,0,1,.057-.53l.3-1.54C7.523,3.305,8.148,2.9,9.664,2.9h2.445c1.147,0,1.732.254,1.732,1.137A3.014,3.014,0,0,1,13.769,4.646Zm-2.238-.769H9.816c-.834,0-1.1.184-1.243.883L8.308,6.066a1.7,1.7,0,0,0-.04.31c0,.4.257.51.914.51h1.764c.85,0,1.075-.163,1.211-.827l.264-1.306a1.9,1.9,0,0,0,.041-.332C12.462,3.99,12.182,3.877,11.531,3.877Z" fill="#fff"/>
      <path d="M21.226,4.611H19.9a1.152,1.152,0,0,0,.024-.183c0-.388-.265-.551-.938-.551H17.273c-.889,0-1.106.134-1.257.9L15.775,6a1.875,1.875,0,0,0-.04.338c0,.452.3.552.93.552h1.708c.793,0,1.1-.128,1.21-.721h1.339c-.264,1.306-.705,1.7-2.349,1.7H16.1c-1.259,0-1.756-.276-1.756-1.094a3.362,3.362,0,0,1,.072-.636l.281-1.391c.289-1.434.89-1.836,2.526-1.836h2.213c1.13,0,1.853.247,1.853,1.194A2.435,2.435,0,0,1,21.226,4.611Z" fill="#fff"/>
      <path d="M34.439,5.276c.433.134.722.3.722.79a2.1,2.1,0,0,1-.04.353c-.209,1.052-.89,1.441-2.149,1.441H28.691l.977-4.9h4.01c1.1,0,1.708.253,1.708.945A1.277,1.277,0,0,1,34.439,5.276Zm-1.291.536H30.43l-.224,1.122h2.67c.745,0,.953-.205.953-.79C33.829,5.918,33.686,5.812,33.148,5.812Zm.377-1.928h-2.71l-.209,1.059h2.719a.668.668,0,0,0,.665-.7C33.99,4.067,33.894,3.884,33.525,3.884Z" fill="#fff"/>
      <path d="M42.279,3.934h-2.35L39.145,7.86H37.813L38.6,3.934H36.274l.192-.974h6.006Z" fill="#fff"/>
      <path d="M49.36,4.646l-.3,1.54c-.241,1.222-.794,1.674-2.349,1.674H44.261c-1.243,0-1.772-.339-1.772-1.144a2.673,2.673,0,0,1,.056-.53l.3-1.54c.265-1.341.891-1.743,2.407-1.743H47.7c1.147,0,1.733.254,1.733,1.137A3.023,3.023,0,0,1,49.36,4.646Zm-2.237-.769H45.407c-.833,0-1.1.184-1.242.883L43.9,6.066a1.615,1.615,0,0,0-.04.31c0,.4.257.51.915.51h1.763c.85,0,1.074-.163,1.211-.827l.265-1.306a1.988,1.988,0,0,0,.04-.332C48.054,3.99,47.772,3.877,47.123,3.877Z" fill="#fff"/>
      <path d="M56.442,6.886h.617l-.176.974H49.648l.187-.974h.376A2.363,2.363,0,0,0,51.19,5.3l.472-2.344h5.565Zm-3.7-2.952-.321,1.609A2.458,2.458,0,0,1,51.7,6.886h3.408L55.7,3.934Z" fill="#fff"/>
      <path d="M64.733,4.646l-.3,1.54c-.241,1.222-.794,1.674-2.349,1.674H59.634c-1.243,0-1.772-.339-1.772-1.144a2.673,2.673,0,0,1,.056-.53l.3-1.54c.264-1.341.89-1.743,2.405-1.743h2.446c1.146,0,1.732.254,1.732,1.137A2.951,2.951,0,0,1,64.733,4.646ZM62.5,3.877H60.78c-.833,0-1.1.184-1.242.883l-.265,1.306a1.615,1.615,0,0,0-.04.31c0,.4.257.51.914.51h1.764c.849,0,1.074-.163,1.21-.827l.265-1.306a1.888,1.888,0,0,0,.04-.332C63.426,3.99,63.146,3.877,62.5,3.877Z" fill="#fff"/>
      <path d="M71.47,4.675c-.257,1.243-.915,1.737-2.285,1.737H66.708l-.29,1.448H65.087l.978-4.9h3.794c1.162,0,1.675.325,1.675,1.143A3.057,3.057,0,0,1,71.47,4.675Zm-2.045-.741h-2.22l-.3,1.5h2.221c.738,0,1.05-.359,1.05-1.017C70.171,4.1,69.987,3.934,69.425,3.934Z" fill="#fff"/>
      <path d="M27.679,7.867,26.407,7.86,26.693,6.4H23.122l-.289,1.469H21.5L22.266,4a2.542,2.542,0,0,1,.2-.661.789.789,0,0,1,.575-.384,6.386,6.386,0,0,1,.971-.037h2.7c1.093,0,1.841.131,1.7,1.206C28.381,4.332,27.679,7.867,27.679,7.867ZM26.408,3.9H23.621l-.3,1.513h3.46l.158-1C26.969,4.108,26.883,3.9,26.408,3.9Z" fill="#fff"/>
    </g>
  </g>
</svg>
