<svg xmlns="http://www.w3.org/2000/svg" width="26.822mm" height="5.076mm" viewBox="0 0 76.031 14.39">
  <title>sber</title>
  <g>
    <path d="M19.826,8.877a3.363,3.363,0,0,0,1.155.791,4.538,4.538,0,0,0,1.663.284c.324,0,.627-.041.876-.062a3.53,3.53,0,0,0,.73-.175c.222-.061.405-.163.587-.223a4.612,4.612,0,0,1,.445-.222l-.226-.476a3.977,3.977,0,0,1-.386.176,4.161,4.161,0,0,1-.405.161,2.085,2.085,0,0,1-.506.1,3.27,3.27,0,0,1-.67.04,2.168,2.168,0,0,1-1.156-.284A2.286,2.286,0,0,1,21.2,8.26a3.665,3.665,0,0,1-.351-1.094,9.785,9.785,0,0,1-.1-1.378c0-.386.04-.791.061-1.2A3.014,3.014,0,0,1,21.1,3.535a2.192,2.192,0,0,1,.628-.791,2.086,2.086,0,0,1,1.136-.324A1.926,1.926,0,0,1,24,2.77a1.529,1.529,0,0,1,.587,1.075H25.1V2.29c-.162-.062-.325-.121-.507-.176A2.809,2.809,0,0,0,24,1.993c-.223-.04-.405-.04-.628-.061-.175,0-.386-.04-.526-.04a5.092,5.092,0,0,0-1.764.284A3.023,3.023,0,0,0,19.2,4.28,5.737,5.737,0,0,0,18.976,6,5.279,5.279,0,0,0,19.2,7.646,2.867,2.867,0,0,0,19.826,8.877Z" fill="#fff"/>
    <path d="M50.577,9.689a2.7,2.7,0,0,0,1.034-.325,1.73,1.73,0,0,0,.73-.79,3.045,3.045,0,0,0,.284-1.419,2.875,2.875,0,0,0-.176-1.094,1.758,1.758,0,0,0-.587-.75,2.889,2.889,0,0,0-1.075-.405,7.4,7.4,0,0,0-1.6-.121h-.67V2.917a.481.481,0,0,1,.121-.385,1.052,1.052,0,0,1,.506-.062H50.1a3.965,3.965,0,0,1,.73.041.817.817,0,0,1,.445.163.9.9,0,0,1,.284.385,4.292,4.292,0,0,1,.223.668h.393V1.985H46.385v.243c.04,0,.061.041.161.041.1.04.163.061.175.1a.755.755,0,0,1,.1.176c0,.1.04.175.04.324v6a.775.775,0,0,1-.04.324c0,.1-.04.162-.1.176a.272.272,0,0,1-.175.1.363.363,0,0,1-.161.041v.243H49.3A12.306,12.306,0,0,0,50.577,9.689Zm-1.913-.568a.293.293,0,0,1-.1-.223c0-.1-.04-.223-.04-.386V5.249h.67a1.654,1.654,0,0,1,1.3.467,2.3,2.3,0,0,1,.386,1.5,3.96,3.96,0,0,1-.121,1.094,1.541,1.541,0,0,1-.351.627,2.361,2.361,0,0,1-.466.284,2.715,2.715,0,0,1-.568.062c-.175-.041-.351-.041-.445-.062A.384.384,0,0,1,48.664,9.121Z" fill="#fff"/>
    <path d="M42.307,9.506c-.041,0-.062-.04-.162-.04-.1-.04-.163-.061-.175-.1a1.68,1.68,0,0,0-.1-.175c0-.1-.04-.175-.04-.324V6.708h.791a6.993,6.993,0,0,0,1.155-.1,2.746,2.746,0,0,0,.973-.35,1.733,1.733,0,0,0,.67-.751,2.906,2.906,0,0,0,.244-1.3,3.08,3.08,0,0,0-.223-1.2,2.08,2.08,0,0,0-.631-.682,2.113,2.113,0,0,0-.912-.284,8.986,8.986,0,0,0-1.075-.061H39.733v.243c.04,0,.061.041.163.041.1.04.161.061.175.1a.755.755,0,0,1,.1.176c0,.1.04.175.04.324V8.851a.777.777,0,0,1-.04.324c0,.1-.04.161-.1.175a.273.273,0,0,1-.175.1.354.354,0,0,1-.163.04v.223h2.554l.02-.223Zm-.426-6.648a.3.3,0,0,1,.04-.175.172.172,0,0,1,.061-.121.247.247,0,0,1,.176-.062c.1,0,.175-.04.35-.04a5.387,5.387,0,0,1,.568.061,1.383,1.383,0,0,1,.467.284,2.143,2.143,0,0,1,.324.526,3.167,3.167,0,0,1,.1.81,3.24,3.24,0,0,1-.284,1.5,1.053,1.053,0,0,1-1.014.526h-.79Z" fill="#fff"/>
    <path d="M38.719,7.965h-.506a6.306,6.306,0,0,1-.176.73.732.732,0,0,1-.243.4.6.6,0,0,1-.446.161,4.173,4.173,0,0,1-.79.04,3.5,3.5,0,0,1-.73-.04,1.2,1.2,0,0,1-.405-.121.315.315,0,0,1-.161-.244,1.391,1.391,0,0,1-.04-.445V5.979h1.344c.121,0,.244.04.386.04a3.131,3.131,0,0,1,.386.061,1.56,1.56,0,0,1,.324.121V5.188a.769.769,0,0,1-.324.121,7.69,7.69,0,0,1-.77.1H35.209V2.833a1.045,1.045,0,0,1,.062-.35c.061-.062.163-.062.324-.062h.852a3.965,3.965,0,0,1,.73.041.884.884,0,0,1,.445.161.917.917,0,0,1,.284.386,4.339,4.339,0,0,1,.223.669h.405V1.985H33.125v.243c.04,0,.061.041.161.041.1.04.161.061.175.1a.755.755,0,0,1,.1.176c0,.1.04.175.04.324V8.851a.777.777,0,0,1-.04.324c0,.1-.04.161-.1.175a.273.273,0,0,1-.175.1.349.349,0,0,1-.161.04v.223h5.594Z" fill="#fff"/>
    <path d="M30.165,9.689A2.706,2.706,0,0,0,31.2,9.364a1.892,1.892,0,0,0,.75-.79,3.032,3.032,0,0,0,.284-1.419,2.874,2.874,0,0,0-.175-1.094,1.768,1.768,0,0,0-.588-.75A2.884,2.884,0,0,0,30.4,4.906a7.412,7.412,0,0,0-1.6-.121h-.67V2.917a.488.488,0,0,1,.121-.385,1.054,1.054,0,0,1,.507-.062h.952a3.949,3.949,0,0,1,.729.041.883.883,0,0,1,.445.163.914.914,0,0,1,.285.385,4.288,4.288,0,0,1,.222.668h.405V1.985h-5.8v.243c.04,0,.061.041.163.041.1.04.161.061.175.1a.755.755,0,0,1,.1.176c0,.1.04.175.04.324V8.851a.85.85,0,0,1-.04.324c0,.1-.04.161-.1.175a.273.273,0,0,1-.175.1.354.354,0,0,1-.163.04v.284h2.919C29.378,9.75,29.758,9.75,30.165,9.689Zm-1.906-.568a.289.289,0,0,1-.1-.223c0-.1-.041-.223-.041-.386V5.249h.67a1.654,1.654,0,0,1,1.3.467,2.3,2.3,0,0,1,.386,1.5,3.96,3.96,0,0,1-.121,1.094,1.551,1.551,0,0,1-.35.627,2.4,2.4,0,0,1-.467.284,2.707,2.707,0,0,1-.568.062c-.175-.041-.324-.041-.445-.062a.35.35,0,0,1-.26-.1Z" fill="#fff"/>
    <rect x="18.935" y="11.957" width="57.043" height="0.75" fill="#fff"/>
    <path d="M71.416,6.831c.163.222.284.4.446.587.121.175.284.386.405.568a4.835,4.835,0,0,0,.405.568,5.6,5.6,0,0,1,.405.628c.121.175.222.4.324.587l2.63.041c-.284-.284-.526-.568-.81-.852-.244-.285-.466-.526-.629-.69-.244-.284-.467-.526-.668-.75s-.405-.466-.588-.689a7.982,7.982,0,0,1-.526-.689c-.142-.223-.35-.507-.506-.75l.121-.162c.175-.243.405-.506.669-.81a8.466,8.466,0,0,1,.791-.911,10.892,10.892,0,0,1,.815-.849,6.97,6.97,0,0,1,.73-.587H73.6a4.853,4.853,0,0,1-.284.568,5.072,5.072,0,0,1-.445.72c-.161.244-.351.526-.507.81s-.35.526-.526.791a7.176,7.176,0,0,1-.506.689c-.162.223-.284.386-.386.526C71.092,6.384,71.253,6.608,71.416,6.831Z" fill="#fff"/>
    <path d="M71.194,9.506c-.041,0-.062-.04-.163-.04-.1-.04-.162-.061-.176-.1a.694.694,0,0,1-.1-.175c0-.1-.041-.175-.041-.324V2.9a.794.794,0,0,1,.041-.324c0-.1.04-.161.1-.175a.755.755,0,0,1,.176-.1.354.354,0,0,1,.163-.04V2H68.639v.243c.041,0,.062.041.163.041.1.04.162.061.176.1a.751.751,0,0,1,.1.176c0,.1.041.175.041.324V8.865a.794.794,0,0,1-.041.324c0,.1-.04.161-.1.175a.271.271,0,0,1-.176.1.354.354,0,0,1-.163.04v.223h2.555Z" fill="#fff"/>
    <path d="M54.275,8.817c.1-.445.284-1.075.526-1.865h2.493l.35,1.013A7.523,7.523,0,0,1,58,9.1a2.589,2.589,0,0,1,.161.689h1.987c-.1-.162-.176-.386-.325-.628a9.789,9.789,0,0,1-.445-1.094l-1.8-5.109a2.75,2.75,0,0,1-.163-.568c-.041-.162-.041-.284-.062-.386H55.118v.244c.04,0,.061.04.161.04.1.04.161.061.175.1a.7.7,0,0,1,.1.175v.161a1.246,1.246,0,0,1-.1.507L54.2,6.314c-.222.568-.445,1.074-.587,1.439s-.324.729-.405.973c-.121.244-.223.466-.324.628a4.2,4.2,0,0,0-.223.405h1.418A8.17,8.17,0,0,1,54.275,8.817Zm1.784-5.554L57.08,6.405H54.936Z" fill="#fff"/>
    <path d="M63.1,9.506h-.063c-.04,0-.061-.04-.163-.04-.1-.04-.161-.061-.175-.1a.729.729,0,0,1-.1-.175c0-.1-.04-.175-.04-.324V5.884h3.02v2.96a.777.777,0,0,1-.04.324c0,.1-.04.161-.1.175a.273.273,0,0,1-.175.1.349.349,0,0,1-.161.04v.244h2.554V9.485c-.04,0-.061-.04-.161-.04-.1-.04-.163-.061-.175-.1a.7.7,0,0,1-.1-.175c0-.1-.04-.175-.04-.324V2.833a.777.777,0,0,1,.04-.324c0-.1.04-.161.1-.175a.729.729,0,0,1,.175-.1.349.349,0,0,1,.161-.04V1.985H65.145v.243c.04,0,.061.041.161.041.1.04.163.061.176.1a.751.751,0,0,1,.1.176c0,.1.041.175.041.324v2.5H62.639V2.858a.8.8,0,0,1,.041-.325c0-.1.04-.161.1-.175a.755.755,0,0,1,.176-.1.3.3,0,0,1,.161-.04V1.985H60.571v.243c.04,0,.061.041.161.041.1.04.161.061.175.1a.755.755,0,0,1,.1.176c0,.1.04.175.04.324v6a.845.845,0,0,1-.04.324c0,.1-.04.162-.1.176a.272.272,0,0,1-.175.1.363.363,0,0,1-.161.041v.243h2.554L63.1,9.492Z" fill="#fff"/>
    <path d="M13.746,2.8c-.163-.222-.325-.445-.467-.669L4.562,7.134.354,4.722a2.882,2.882,0,0,0-.175.81L4.6,8.093Z" fill="#fff"/>
    <path d="M4.562,9.019.042,6.424A1.984,1.984,0,0,0,0,6.91a7.48,7.48,0,0,0,14.96,0,7.328,7.328,0,0,0-.81-3.4Z" fill="#fff"/>
    <path d="M12.671,1.5A8.238,8.238,0,0,0,12,.931L4.562,5.249.975,3.2c-.121.223-.244.467-.386.73L4.522,6.2Z" fill="#fff"/>
    <path d="M11.272.445A7.217,7.217,0,0,0,10.4,0L4.562,3.359,1.948,1.885a7.207,7.207,0,0,0-.526.627L4.543,4.3Z" fill="#fff"/>
  </g>
</svg>
