<svg xmlns="http://www.w3.org/2000/svg" width="11.41mm" height="9.677mm" viewBox="0 0 32.342 27.43">
  <title>un</title>
  <path d="M16.168,0a11.308,11.308,0,0,0-5.112,1.214l.125.242A11.039,11.039,0,0,1,16.029.277v2.06a9.039,9.039,0,0,0-3.891.944l.125.242a8.767,8.767,0,0,1,3.766-.908V4.48a6.9,6.9,0,0,0-2.9.7h0a6.948,6.948,0,0,0-1.776,1.241L10.037,5.1A8.864,8.864,0,0,1,12.27,3.523l-.125-.242h0A9.263,9.263,0,0,0,9.849,4.9L8.386,3.44a11.232,11.232,0,0,1,2.8-2L11.063,1.2A11.489,11.489,0,0,0,5.924,6.374h0a11.38,11.38,0,0,0-1.179,5.042A11.5,11.5,0,0,0,5.2,14.634l.27-.069a11.282,11.282,0,0,1-.451-3.017H7.075a9.2,9.2,0,0,0,.389,2.51l.27-.069a8.943,8.943,0,0,1-.381-2.448H9.218a7.61,7.61,0,0,0,.063.811,1.229,1.229,0,0,0-.25.056l-.055.187c-.125.021-.209.236-.209.236-.1.035-.187.166-.152.2s-.056.049-.056.049v.256L8.5,13.42l.014.278c.069,0,.055.132.055.132-.118.013-.09.166-.09.166l-.243.083-.048.07-.3-.014-.084.083h0c-.027-.076-.048-.153-.076-.229l-.27.069a.342.342,0,0,0,.027.084h-.34l-.02-.056-.118-.021L7,13.934l-.174.014-.034.069-.187.014c.013.118-.188.291-.209.242s-.152-.173-.09-.2a2.109,2.109,0,0,1,.208-.048v-.083l-.43-.014L6.035,14l-.174.014V14.2l-.083.021c-.055.035.014.166.014.166.083.084-.014.209-.014.209-.069.069.056.2.056.2.09.02-.056.09-.056.09a.2.2,0,0,0,.09.152.118.118,0,0,0,.049.174l.014.2.083.048v.132l.049.083H6.25L6.243,15.4c-.16-.187.139-.236.152-.166s.139.1.139.1c.021.173.222.277.278.1s.1-.07.138.014a1.6,1.6,0,0,0,.257.284H7.38L7.4,15.9c.194-.014.257.014.333.278a.513.513,0,0,0,.3.34l.16-.014c0-.139.159.021.159.1s.312.34.312.34l.313.069.055.049c.194.242.395.471.61.7L8.185,19.219a11.158,11.158,0,0,1-2.712-4.654l-.27.069a11.513,11.513,0,0,0,2.878,4.883,11.307,11.307,0,0,0,3.156,2.233l.138-.243a11.064,11.064,0,0,1-3-2.094l1.457-1.457A9.032,9.032,0,0,0,12.388,19.7l.139-.243a8.9,8.9,0,0,1-2.5-1.7l.27-.27a.2.2,0,0,1,.028.1c.021.173.1.138.1.138l.659-.013.229-.2.589-.013c.3-.014.118-.424.056-.424a.158.158,0,0,1-.035-.145,7.127,7.127,0,0,0,1.512.888l.139-.243a6.665,6.665,0,0,1-1.72-1.054l-.312-.292L13,14.78a4.543,4.543,0,0,0,1.6.985h0c.16.055.326.1.493.145-.028.028-.042.049-.035.063.021.055-.09.118-.09.118l-.1.034-.07.1-.138.049-.021.243-.069.048v.1l-.084.021v.055l-.118.014.07.174.09.048c.16.021.09.222.09.222l.09.014.049.132.09.187c.035.139.139.1.187.1s.09.139.09.139l.458.014s-.021.048.056.069a2.043,2.043,0,0,0,.381.028V18.1a6.572,6.572,0,0,1-2.434-.52l-.139.243a6.877,6.877,0,0,0,2.573.554v1.866a8.839,8.839,0,0,1-3.5-.784l-.139.243a9.162,9.162,0,0,0,3.641.819v2.059A11.07,11.07,0,0,1,11.361,21.5l-.138.243a11.5,11.5,0,0,0,10.084-.111,11.637,11.637,0,0,0,2.934-2.122,11.447,11.447,0,0,0,2.205-3.093h0A11.448,11.448,0,0,0,20.419.825h0A11.235,11.235,0,0,0,16.168,0Zm.138.277a11,11,0,0,1,4.03.805h0a11.118,11.118,0,0,1,3.62,2.365L22.722,4.682a.182.182,0,0,1-.118,0c-.083-.035.035-.118.035-.118V4.473l-.07-.069s-.194.021-.208-.014-.048-.187-.048-.187L22.3,4l-.083-.035L22.2,3.9l-.125.014V3.773l-.069-.021-.07-.035-.014-.138-.256-.014-.084-.118-.09-.139L21.2,3.287l-.069-.069L21.016,3.2l-.084-.034-.034.055-.222.014-.014.069a1.293,1.293,0,0,1-.4.035c-.229-.118-.444-.236-.68-.333l-.1.257a5.564,5.564,0,0,1,.541.27c-.014.042-.028.07-.056.07-.055,0-.034.152-.034.152a1.123,1.123,0,0,1,.194.014c.049.014.049.132.049.132.173-.014.242.222.221.284s.07.056.07.056a1.09,1.09,0,0,1-.021.235c-.021.049.153.084.194.153a.4.4,0,0,1-.055.319c-.035.014.09.049.083.1s.035,0,.048.1.035.292.035.292l.16.013c.02-.152.319-.159.367-.138a.7.7,0,0,1,.347.444c0,.069-.125.083-.125.083l.007.076-.4.4c-.042-.027-.083-.041-.1-.02-.056.034-.035-.243-.035-.243s.1-.07.153-.035-.389-.582-.486-.527-.3-.055-.291-.166-.416-.458-.416-.458-.139-.09-.16-.021-.069.118,0,.153.056-.056.139.02.229.188.173.257a.281.281,0,0,1-.124.09l.083.1h.125l.02.2s.139.07.174.153a.221.221,0,0,1,.021.125,7.636,7.636,0,0,0-.8-.534.19.19,0,0,0,0-.063c-.021-.083.09-.118.153-.02l.118-.014.02-.1L19.7,5.077H19.58s-.014.09-.09.055a.27.27,0,0,0-.1-.034c-.063-.014-.049.118-.035.18-.18-.09-.36-.173-.548-.25h0a6.89,6.89,0,0,0-2.5-.513V3.454c.077,0,.111-.028.118-.056.014-.048.021-.055.091-.069s-.014-.152-.084-.139a.136.136,0,0,1-.125-.041V2.615a8.637,8.637,0,0,1,3.177.645L19.58,3a9.017,9.017,0,0,0-3.28-.659L16.306.277ZM18.235.77l-.111.069L18.047.791l-.034.062.09.056.021.013.02-.013.125-.084L18.235.77Zm.527.277-.091.077-.055-.063-.049.049.084.083.02.021.021-.021.118-.09-.048-.056ZM7.644,1.11A5.77,5.77,0,0,0,4.523,3.19,18.862,18.862,0,0,0,3.684,5.4,15.3,15.3,0,0,0,5.6,3.655,15.829,15.829,0,0,1,7.644,1.11Zm17.041,0a16.19,16.19,0,0,1,2.053,2.545A14.782,14.782,0,0,0,28.652,5.4a19.863,19.863,0,0,0-.839-2.213,5.791,5.791,0,0,0-3.128-2.08Zm-6.756.145c-.048.007-.1.028-.1.049-.014.048-.083.055-.083.055l-.263.021c-.021.07-.16.118-.174.07h0c-.028-.1-.173.131-.021.173a.541.541,0,0,0,.3,0l.034-.069.576.013a.319.319,0,0,0,.069-.117s.139-.049.194-.021.014-.167-.048-.139a.577.577,0,0,1-.173.014h-.209c0-.042-.048-.056-.1-.049Zm-.991.236-.153.056-.16.1-.173.02-.09.1.368.034.069.118.263.021.174.173c.152.049.187-.021.09-.1h0l-.153-.152V1.734l-.048-.049-.049-.166-.138-.028ZM4.551,2.67A3.15,3.15,0,0,0,3.039,3.683C2.123,4.7,2.2,6.2,2.324,7.539A6.2,6.2,0,0,1,2.3,8.725,4.253,4.253,0,0,1,3.566,7.213c1.193-.9,2.5-2.067,2.517-3.593-.4,1.1-1.595,1.561-2.392,2.31A3.69,3.69,0,0,0,2.754,7.3l-.027-.021c.1-.443.284-.839.416-1.269.333-1.172.27-2.566,1.408-3.343Zm23.234,0c1.13.777,1.068,2.171,1.415,3.343.125.423.312.826.416,1.269l-.028.021a3.676,3.676,0,0,0-.936-1.373c-.8-.756-2-1.207-2.393-2.31.021,1.533,1.325,2.7,2.518,3.593a4.336,4.336,0,0,1,1.269,1.512,5.249,5.249,0,0,1-.028-1.186c.125-1.339.2-2.837-.714-3.856A3.156,3.156,0,0,0,27.785,2.67ZM21.522,2.9c-.09,0-.229.063-.215.132a.187.187,0,0,0,.153.139l.173.055s.215.257.208.132a.458.458,0,0,0-.243-.43.109.109,0,0,0-.076-.028Zm-3.613.146-.049.1.062.028.049-.1-.062-.027Zm.215.111c-.007-.007-.07.083-.118.111.055.027.131.069.131.069a.152.152,0,0,1,.153.1c0,.035.125.021.125.021l.014-.083-.09-.118L18.255,3.2c0,.007-.131-.007-.131-.048Zm-.118.111c-.056-.028-.09-.042-.028,0A.021.021,0,0,0,18.006,3.267Zm-.382-.035-.007.069.1.007.07.111.055-.034-.083-.132-.007-.014h-.014A.592.592,0,0,1,17.624,3.232Zm-2.663.291c-.062,0-.118.014-.118.035a.391.391,0,0,0,.1.132s.173.014.187.048.125.049.139.014.056-.1-.049-.1-.083-.055-.117-.1a.257.257,0,0,0-.146-.028Zm9.19.118a11.132,11.132,0,0,1,2.365,3.614h0a11.054,11.054,0,0,1,.8,4.036H25.26a9.015,9.015,0,0,0-.638-3.225c-.055-.146-.118-.291-.187-.437.021-.062.055-.125.132-.1.118.035.034-.256.034-.256s-.159-.118-.152-.174-.16-.173-.153-.222-.152-.139-.138-.187-.084-.173-.084-.173L23.9,6.346l-.021-.1-.139-.014-.277-.34.014-.1L23.4,5.777V5.646L23.311,5.6l-.124-.014-.257-.277-.021-.132h-.125l.021-.2,1.346-1.332Zm-6.263,0v.1l.125.014-.035-.1-.09-.021Zm-9.7,0L9.641,5.105A8.937,8.937,0,0,0,7.97,7.5,9.033,9.033,0,0,0,7.075,11.3H5.015A11.134,11.134,0,0,1,6.153,6.519h0A11.127,11.127,0,0,1,8.185,3.641Zm10.265.548c-.014,0-.021.007-.021.014,0,.035.048.035.069.1s.014.187.118.208.125.049.139.09.138.056.138.056l.091.048.277.236v-.09s-.014-.09-.069-.09-.16-.07-.139-.118-.194-.09-.194-.09-.194-.188-.125-.167.035-.083.035-.083a1.017,1.017,0,0,1-.174.014c-.034-.014-.021-.118-.021-.118a.465.465,0,0,0-.124-.014Zm-6.34.083-.048.049.069.069.049-.048-.07-.07Zm-9.98.486c-.028-.007-.048.021-.069.028A5.492,5.492,0,0,0,.743,8.253c0,1.672.964,2.844,1.082,4.411.25-1.636,1.623-2.8,2.337-4.251A5.739,5.739,0,0,0,4.689,6.6,1.956,1.956,0,0,1,4.2,7.31c-.93.881-2.018,1.741-2.227,2.989a4.259,4.259,0,0,1-.1.534c-.041.021-.041-.027-.055-.041l.118-1.54c.111-1.5-.687-3.169.187-4.494Zm28.075,0c.874,1.325.077,3,.188,4.5l.118,1.54c-.014.014-.014.055-.056.041a4.656,4.656,0,0,1-.1-.534c-.208-1.241-1.3-2.108-2.226-2.989a1.959,1.959,0,0,1-.486-.714,5.765,5.765,0,0,0,.527,1.817c.715,1.442,2.088,2.608,2.338,4.251.117-1.574,1.082-2.739,1.082-4.411a5.483,5.483,0,0,0-1.318-3.467c-.028-.021-.042-.042-.07-.035Zm-14.176,0v2.06a4.688,4.688,0,0,0-1.817.43l.125.242h0a4.408,4.408,0,0,1,1.692-.4V8.961a2.378,2.378,0,0,0-.7.145h0l-.014-.131.055-.035L15.28,8.9l-.069.09L15.19,9.1l-.118.02v.056h-.083v.069a2.4,2.4,0,0,0-.472.333L13.192,8.253a4.392,4.392,0,0,1,1.145-.776l-.125-.243a4.49,4.49,0,0,0-1.207.825L11.549,6.6a6.582,6.582,0,0,1,4.48-1.845Zm.277,0A6.645,6.645,0,0,1,18.7,5.25a6.063,6.063,0,0,1,.6.285.145.145,0,0,0,.034.02,6.4,6.4,0,0,1,.93.611h0a.175.175,0,0,0,.1.118l.055.007c.035.027.076.062.111.09v.1a.24.24,0,0,1,.229.152L19.33,8.066a4.635,4.635,0,0,0-1.387-.9A4.682,4.682,0,0,0,16.3,6.811l.006-2.053Zm-6.47.534L11.16,6.617a7.158,7.158,0,0,0-1.3,1.9h0a6.99,6.99,0,0,0-.638,2.774H7.353a8.833,8.833,0,0,1,2.483-6Zm11.776.888c.16.1.285.312.264.353s.138.035.138.035c.021-.208.222-.139.229-.069s.049.222.049.222l.055.1.084.083.124-.014.035.069.153.021a1.4,1.4,0,0,1,.138.174c.014.034.188.02.229.034s.118.049.125.1a.664.664,0,0,0,.083.153s.139.035.153.083a1.209,1.209,0,0,0,.069.153l.118.1.014.1L23.8,7.9l.035.138.208-.014.118-.083c.034-.021.069-.041.1-.062.041.1.083.194.118.291a8.751,8.751,0,0,1,.617,3.114H23.124a6.56,6.56,0,0,0-.09-.978c.014-.048.021-.09,0-.1-.035-.034.035-.2.035-.2a.223.223,0,0,0,0-.187.237.237,0,0,1,.048-.243l-.09-.048-.09-.014-.069.014c-.021-.077-.042-.146-.07-.222h0l.056.014v-.07l-.084-.021c-.013-.048-.034-.1-.048-.145l-.014-.243-.083-.056.021-.09-.091-.034L22.6,8.5l-.083-.166H22.4c-.056-.111-.111-.222-.174-.326a.341.341,0,0,1,.049-.021c.062-.014.083-.021.09-.021l-.014-.125-.1-.069-.034-.139s-.125.021-.118.09a.038.038,0,0,1-.021.035c-.083-.132-.167-.257-.257-.382,0-.006.007-.013.007-.02.049-.084.021-.132-.055-.153s-.084-.021-.1-.118a.178.178,0,0,0-.118-.118l-.035-.138-.083.055c-.049-.055-.09-.1-.139-.159l.042-.132a.1.1,0,0,1-.083-.063l.36-.353Zm.742,1.782h0C22.354,7.969,22.368,7.962,22.354,7.962Zm-8.149-1.5-.042.056.07.055.041-.055Zm-.264.049.014.131h.174c.069,0-.056-.083-.056-.083s-.145.014-.132-.048Zm7.664.02-.069.007.014.1.069-.007-.014-.1Zm-10.258.285L12.8,8.267a4.561,4.561,0,0,0-.763,1.082c-.049,0-.1.007-.111.049-.035.09-.187.069-.187.069l-.021.049-.118.02-.021.07-.138.021.346-.014c.091-.014-.034.2-.09.187l-.159.014-.056.055h-.152l-.07.1-.222-.013s-.125.1-.118.138-.02.139-.055.139-.1.1-.083.139-.07.152-.07.152l-.02.118-.07.021v.319l-.139.09v.139l-.062.069H9.489a6.705,6.705,0,0,1,.6-2.642,6.9,6.9,0,0,1,1.255-1.824Zm9.613.021c.049.048.042.062.111.111a.133.133,0,0,0,.063.027c.034.042.076.084.111.125l-.028.035c0,.132.062.1.125.083.02.021.034.049.055.069.007.077.007.188.132.174h.007c.146.2.284.409.409.617l.007.014h0a.755.755,0,0,1,.056.1.156.156,0,0,0-.042.049l-.187.02v.188l-.091.034L21.7,8.6l.125-.014s0,.139.035.084.326.013.3.152c-.007.056.291.208.257.4a.46.46,0,0,1,.055.021c.056.16.1.326.146.486l-.021.041a.31.31,0,0,1,.042.035c.034.146.069.291.09.437-.007.125-.035.25-.1.284-.139.084.014.035.014.035l-.021.257c.035.118.09.055.125,0a.517.517,0,0,1,.055-.07c.021.174.028.354.035.534H21.439a.227.227,0,0,0,.021-.034l.055-.167.194-.055.021-.153-.1-.014s.118-.208.173-.208a3.4,3.4,0,0,0,.472-.021.621.621,0,0,0,.1-.242c0-.035.09-.049.125-.056a.43.43,0,0,0,.139-.152c.02-.049-.056-.34-.1-.292a.363.363,0,0,1-.153.07l-.035.131-.055.049a.244.244,0,0,1,0,.118c-.014.083-.118.132-.118.132l-.049.055a2.3,2.3,0,0,1-.312,0,.091.091,0,0,1,.035-.173c.069.014-.014-.2-.014-.2l.09-.014s.014-.208.049-.208-.014-.07-.056-.1-.1-.153-.152-.139a1.219,1.219,0,0,1-.229,0l-.035.069-.125.021s.014.09-.014.118c-.069.083-.332.257-.221-.035l.034-.069V9.6l-.208-.014s-.1-.035-.1-.083a.5.5,0,0,0-.014-.1l-.242-.271-.292-.034-.021-.056-.173-.021a.3.3,0,0,0-.076-.027,3.755,3.755,0,0,0-.264-.375c0-.007-.007-.021-.007-.028-.007-.041-.138-.222-.208-.229-.028-.027-.048-.055-.076-.083l1.47-1.442Zm1.131.145a.032.032,0,0,0-.028.035c0,.048.055.069.035.132a.075.075,0,0,0,.069.1.221.221,0,0,1,.125.048.291.291,0,0,1,.118.1l.118-.034s.014-.118-.035-.084-.083-.083-.125-.069-.069-.049-.118-.1-.034-.069-.09-.1c-.028-.021-.048-.035-.069-.028ZM16.306,7.1a4.305,4.305,0,0,1,2.83,1.172l-.076.077c-.035-.035-.16-.063-.16-.1s-.118-.105-.1-.035-.083.1-.1.083-.09.069-.09.069c0,.035-.021.084.049.1s.194-.049.208.02c.007.021.007.042.014.063l-.458.457c-.063,0-.118-.006-.118-.006-.035.1-.194-.014-.153-.084a.227.227,0,0,0,.049-.118l-.056-.013-.069.131c-.159,0-.208.09-.173.153s-.049-.014-.07.069.014.083.084.118-.035.035.013.09c.028.035.1.028.118.035l-.09.09a.362.362,0,0,1-.173.007.053.053,0,0,1-.035.049,2.362,2.362,0,0,0-.61-.368c.034-.028.1-.028.125-.1a1.761,1.761,0,0,0,.069-.34s-.187-.014-.194.049-.125.09-.125.09-.09.035-.056.083-.069.069-.069.069a.387.387,0,0,1,.007.063,2.194,2.194,0,0,0-.569-.1L16.306,7.1Zm6.132.4L22.3,7.5c.034.049.1.084.1.132s-.021.083.048.09.118-.014.139.049a.5.5,0,0,1,.014.2c-.014.048.014.118.069.118s.07.014.07.048.069-.131.069-.131a.587.587,0,0,1-.1-.153s-.055-.166-.055-.187-.084-.049-.118-.056-.1-.125-.1-.125Zm-1.1.049-.118.014.007.069.118-.014-.007-.069Zm.069.083v.056h.069V7.622Zm-.09.111a.19.19,0,0,1-.208.049s-.021.222-.09.27h-.16a1.065,1.065,0,0,0,.069.1c.035.035.118.1.035.153s.014.035.014.035-.014.242-.118.208-.139.131-.139.173.41.062.347,0c-.034-.035.049-.118.049-.118s.277.021.333.021.1-.014.069-.069-.139-.049-.139-.049a.394.394,0,0,1-.263-.035c-.125-.069.021-.09.048-.09s.125-.083.084-.138,0-.167,0-.118.124.069.152.034a.165.165,0,0,0-.055-.173c-.056-.035.1-.056.055-.118a.31.31,0,0,1-.083-.132Zm.229.354V8.17h.069V8.087Zm.152.042-.034.069.062.035.035-.07L21.7,8.129Zm1.124.1c-.028.007.021.138-.007.159s-.056.07-.09.1.069.083.069.118.021.208.021.208.083.035.09.083,0,.139.035.153.1.055.083.1a.456.456,0,0,0-.021.139l.049.1.09.055s.035-.277-.021-.291-.035-.173-.035-.173.056-.222-.034-.222-.021-.118-.083-.153-.021-.2-.049-.243-.021-.1-.083-.138c-.007-.007-.014-.014-.014-.007Zm-2.8.222-.118.013.007.07.118-.014-.007-.069Zm-1.748.007a.453.453,0,0,0-.069.006l-.187.021-.014.083.125.014s.055.049.055.084.083.069.125.069a.561.561,0,0,0,.173-.09s.056-.167.014-.153-.139.083-.152.014c.006-.042-.035-.048-.07-.048ZM13,8.461l1.131,1.131-.111-.007c-.049.1-.16-.014-.16-.014-.021-.069-.187,0-.187,0,0,.132-.222-.055-.222-.055l-.4-.292c-.229-.208-.576.056-.59.118.007.09-.069.09-.145.077A4.67,4.67,0,0,1,13,8.461Zm4.543.028-.069.014.02.1.07-.014-.021-.1Zm.375.021-.257.014v.069l.257-.014Zm-2.164.021V8.6h.09V8.531Zm.589.014-.007.069.083.014.007-.069-.083-.014Zm.153.034-.007.07.083.014.007-.07-.083-.014Zm-.937.021-.007.07.084.013.007-.069Zm1.9.007-.035.014.021.069.035-.014Zm2.8.028-.035.083.063.028.034-.083Zm-.86.014.125.027c.055.07.111.139.159.209l-.146-.021-.09-.014-.173-.014a.5.5,0,0,0-.208.257c-.076.152-.25-.007-.25-.118l.3-.3h.056c.069,0,.222-.021.222-.021Zm-2.747.021v.069h.09V8.67Zm-1.165.013-.014.07.09.021.014-.07A.543.543,0,0,1,15.481,8.683Zm-.028.1-.069.014.014.07.069-.014Zm1.367,0h-.07v.084h.07V8.78Zm3.627.035a.617.617,0,0,0-.125.014c-.055.014-.048.056,0,.118l.139-.021s.1-.048.083-.083-.048-.028-.1-.028Zm-.77.07c.042.062.083.124.125.18a.148.148,0,0,0-.007.111c.035.173.09.243-.021.243a.13.13,0,0,1-.138-.091s-.091-.034-.091.014-.034.139,0,.188-.048.117-.083.083-.125-.139-.1-.174-.159-.256.021-.291-.014-.139.055-.166l.091-.049h.09l.062-.048ZM.438,8.926a5.862,5.862,0,0,0-.354,1.249,7.105,7.105,0,0,0,.3,3.266c.375,1.262,1.6,2.157,2.234,3.315l.083.07a4.505,4.505,0,0,1,.041-1.9,28.6,28.6,0,0,0,.784-2.878,8.463,8.463,0,0,0,.208-2.379,3.855,3.855,0,0,1-.43,1.145c-.839,1.3-1.7,2.822-1.11,4.473-.013.021-.034.042-.055.028a12.19,12.19,0,0,1-.444-1.748c-.409-1.554-1.6-2.85-1.255-4.64Zm31.46,0c.346,1.79-.84,3.086-1.249,4.633a11.833,11.833,0,0,1-.444,1.748c-.02.014-.041-.014-.055-.028.589-1.651-.271-3.169-1.11-4.473a3.784,3.784,0,0,1-.43-1.145,8.478,8.478,0,0,0,.208,2.379c.181.992.514,1.921.784,2.878a4.5,4.5,0,0,1,.042,1.9l.083-.07c.624-1.151,1.859-2.052,2.233-3.315a7.1,7.1,0,0,0,.3-3.266,7.084,7.084,0,0,0-.36-1.242Zm-15.751.3.021.278-.125-.042H15.96L15.925,9.4l-.069-.014V9.64l.069.056.055.055.118.014.021.139.291.014.035.055.174.014.332.34-.02.1-.056.035c.021.083-.152.035-.152.035v.069l.083.014.083.048.118-.2c.125-.083.187.035.194.1s-.055.056-.055.056v.166l.069.021a.137.137,0,0,1-.049.222l-.034.118c-.035.1-.16.083-.16.083l-.048.069-.139.035.27.035c.028-.1.1-.118.132-.07a.269.269,0,0,1,.035.132l.069.014-.014.132.07.021v.374l.083.09c.139-.055.139.035.069.084s-.02.256-.02.256l-.056.056v.1l-.069.048v.132a.32.32,0,0,0-.292,0c-.1-.069-.326-.049-.326.014.07.09-.083.118-.083.118l-.083.09c.055.118-.055.132-.055.132v.222l-.139.131.007.209c-.07.006-.146.013-.215.013a2.177,2.177,0,0,1-1.45-.548c.007-.006.014-.006.021-.02a.233.233,0,0,1,.153-.1l.034-.084.312.014a.089.089,0,0,1,.174-.021c0,.056.118.014.118.014l.083-.131h.125l.014-.139.055-.035v-.208a.215.215,0,0,0,.16-.236l.048-.055L15.994,12c-.09-.035-.048-.118.014-.1s-.083-.1-.083-.1c-.069.056-.125-.069-.125-.069h-.173v-.166l-.021-.153-.173-.083-.125.118-.021.166v.1l-.118.021-.021.319-.09.035.014.118-.125.034-.125.035-.048.139-.09.055-.049.139-.056.333a2.287,2.287,0,0,1-.4-.569.728.728,0,0,0,.021-.159c-.1-.049-.049-.208.069-.07s-.069-.284-.069-.284l-.09-.083L14,11.763a1.883,1.883,0,0,1-.028-.347,1.02,1.02,0,0,1,.007-.146.058.058,0,0,1,.069-.014l.07.056.1.083.014.07-.07.034-.014.1.035.132h.09a.194.194,0,0,1,.347-.069l.069-.167c-.159-.083,0-.208.042-.152s.153-.153.153-.153.083.1,0-.035a.141.141,0,0,1,.055-.208c-.021-.138.153-.118.153-.118l.014-.187-.16-.014c-.035.167-.173.021-.1-.014a.639.639,0,0,0,.139-.1v-.1l.069-.02.014-.118h.173l.153-.07.035-.055.159-.014.229-.208-.021-.09c-.139,0,0-.1,0-.1l.021-.174h-.125L15.668,9.3a1.556,1.556,0,0,1,.479-.07Zm7.019.68-.014.09.069.007.014-.1Zm-.042.312-.035.069.063.035.035-.069Zm-11.964.465a.289.289,0,0,1,.187.055l.16-.014a.2.2,0,0,1,.083.091,2.561,2.561,0,0,0-.028.326.443.443,0,0,1-.027.048.281.281,0,0,0-.028.09H11.07v-.007l-.125-.014c-.138-.083-.069-.388-.069-.388a.405.405,0,0,1,.284-.187Zm4,.222-.021.055h-.055l-.014.1h.069l.014.07-.048.048-.021.056-.09.02-.208.2-.014.09-.056.083-.069.173-.243.014-.048.208.034.174.208.083.021-.118.069-.035.014-.118.049-.083.069-.083.021-.1.118-.069.139-.021.055-.07.021-.138.007-.1.048-.07.139-.055V11H15.3l-.014-.083-.125-.007Zm7.234.069-.014.069.125.021L22.521,11Zm-.284.1-.035.021-.083.049-.077-.049-.034.055.09.056.021.014.014-.007.069-.042.007.021.062-.028-.021-.055-.013-.035Zm1.005.493h1.866a8.78,8.78,0,0,1-.825,3.592h0A8.779,8.779,0,0,1,22.5,17.568l-.049-.049c-.007-.131-.013-.3-.013-.3l-.056-.055-.014-.292c.049-.152-.222-.374-.243-.326s-.173.014-.173.056-.09.277-.049.36c0,.007,0,.007.007.014l-.728-.728a6.888,6.888,0,0,0,1.339-1.983,7.164,7.164,0,0,0,.6-2.7Zm2.143,0h2.06a11.062,11.062,0,0,1-1.11,4.709h0a11.189,11.189,0,0,1-2.059,2.934l-1.457-1.457A9.02,9.02,0,0,0,24.4,15.286h0a9.056,9.056,0,0,0,.86-3.717Zm-4.036,0H22.84A6.666,6.666,0,0,1,21,16.035a4.726,4.726,0,0,0-.076-.492l-.091-.049.021-.284h-.125l-.208.27-.02.077-.118-.118.062-.063-.014-.138.083-.07V15.05l.07-.021.014-.256.055-.014V14.2l-.173-.166c-.014.055-.194.055-.194.055s-.049.083-.084.083.049.1.021.174-.118.069-.118.069l-.173.049-.049.055H19.7l-.014-.1c.021-.021.035-.048.056-.069l.145-.042L20,14.246l.056-.118c.013-.118.152-.1.152-.1s.264-.222.278-.326.1-.4.263-.4h.3c.118-.048.084-.2.084-.2l.152-.02.021.083s.208.021.229-.014.069-.118.125-.083.242-.084.242-.084c.014-.083.3-.048.3-.048l.034-.1s-.194-.271-.228-.271-.222-.166-.243-.1c-.188-.048-.174-.3-.174-.3l-.069-.166c0-.1-.173-.292-.208-.271a.142.142,0,0,1-.09-.145Zm-11.728,0h.811l.007.062-.173.187.02.188-.1.034-.02.083-.049.243.118.014c.055-.021.049.153,0,.173s-.173.07-.1.118-.187.035-.187-.034-.139-.132-.174-.1c-.02.014-.048-.021-.069-.056a7.811,7.811,0,0,1-.076-.908Zm1.193,0h.055a.363.363,0,0,1,.056.02l.159.014.014-.027h.548l.048.3-.152.132c-.125.069-.125.235.014.27.09.014.055.236-.084.083-.208,0,.118.188.021.139.208.1.16-.09.16-.09l.1-.083a4.347,4.347,0,0,0,.18.672h0a4.7,4.7,0,0,0,.985,1.609l-1.456,1.457a3.5,3.5,0,0,1-.271-.3.923.923,0,0,1,.062-.146c.153-.1-.034-.243-.034-.243a.548.548,0,0,0-.083-.3.417.417,0,0,1-.153-.409v-.187c-.173-.167.069-.188.069-.188a.186.186,0,0,0-.055-.242l-.014-.153-.187-.021-.021-.548-.416-.6c-.083-.021-.021-.167-.021-.167.1-.055-.021-.2-.021-.2l-.014-.256.243-.021.056-.09H10.6l-.013-.3c.034-.084.069-.1.1-.111Zm2.878,0H13.7c.007.083.014.166.027.242l-.069.021-.021-.048-.034.131h-.209l-.013-.138.124-.035.049-.069.014-.1Zm3.419.159c-.021,0-.041.014-.055.056v.152a1.494,1.494,0,0,0,.222.291c.055.035.152-.041.09-.083-.174-.118-.16-.27-.208-.374-.014-.021-.028-.042-.049-.042Zm-6.027.1.014.083h.055a1.17,1.17,0,0,1,.014.562s-.138.014-.159-.055-.083.152-.035.187.208,0,.222.132.1-.084.1-.084v-.8l-.215-.028Zm5.542.236-.208.153c.1.013.117.117.124.166.028.1.021-.166.07-.153s.014-.166.014-.166Zm-4.613.09a.464.464,0,0,1,.209.222,2,2,0,0,0,.457.014.554.554,0,0,1,.174.291c.125-.166.395-.014.194.083.187.118.187.222.187.222.153-.048.153.07.153.1a1.127,1.127,0,0,0,.048-.173c-.173-.132.229-.173.118.056l-.069.1.118.09.014.27c.256-.021.187-.34.187-.34l.118-.02c0-.1.083-.049.083-.049-.056-.277.055-.395.125-.437a2.283,2.283,0,0,0,.333.479L13.012,14.4a4.35,4.35,0,0,1-.915-1.484,3.892,3.892,0,0,1-.209-.756Zm10.445.278c-.1-.007-.215.062-.18.111.07.09.187.048.229.055s.09.035.049-.1a.1.1,0,0,0-.1-.062ZM11.368,12.6a.048.048,0,0,0-.048.049h0a.049.049,0,0,0,.1,0c.007-.021-.021-.049-.049-.049Zm-.125.16-.173.117-.118-.069v.278l.187.242.07-.166.021-.1-.084-.035.014-.173.07-.014.013-.076Zm4.266.291-.1.014.014.166.069.056.125.034s.173-.048.187-.187l-.263-.014-.028-.069Zm1.456.09c.1,0,.077.236.07.312-.07.028-.139.056-.208.076v-.256l.118-.132Zm-2.441.139a2.43,2.43,0,0,0,1.436.617V13.9s-.042.1.007.125.034.028.062.055L16,14.142c-.041-.056-.069.041-.041.069s-.063.007-.063.042-.028.055,0,.069-.007.028-.041.056.145.034.145.034-.034-.069.007-.069h.021v.118a.446.446,0,0,0-.049-.014v.083l-.09.014.084.09.062.007v.208c0,.153-.382.049-.416.014l-.014.208-.069.014.013.139-.013.2.124-.021v.083l.313.014.062-.062v.229l-.208.02-.09.049-.035-.069h-.09l-.056.076a4.5,4.5,0,0,1-.8-.194h0a4.3,4.3,0,0,1-1.547-.937l1.311-1.338Zm-10.993.111a11.492,11.492,0,0,1-.34,2.892,4.327,4.327,0,0,0,.375,2.24,3.653,3.653,0,0,1,.305.583,4.09,4.09,0,0,1-.714-.944C2.192,16.6.174,15.584.036,13.684a5.934,5.934,0,0,0,.284,2.49A5.9,5.9,0,0,0,2.331,18.7c.9.708,1.963,1.256,2.781,1.88a10.334,10.334,0,0,1-.527-1.207c-.492-1.949-.222-4.2-1.054-5.985Zm25.273,0c-.832,1.789-.561,4.036-1.04,5.971a9.4,9.4,0,0,1-.527,1.207c.818-.624,1.886-1.172,2.781-1.879a5.963,5.963,0,0,0,2.011-2.525,5.839,5.839,0,0,0,.285-2.49c-.139,1.9-2.157,2.913-3.121,4.474a4.131,4.131,0,0,1-.715.943,3.891,3.891,0,0,1,.306-.583,4.337,4.337,0,0,0,.374-2.24,10.484,10.484,0,0,1-.354-2.878Zm-10.049.041c.027,0,.048.014.041.056a.178.178,0,0,0,0,.152c.153-.138.278.014.264.049s.083.069.139.035.124.1.1.173-.229.056-.243-.014-.049-.048-.069-.014a.176.176,0,0,1-.153.035l-.049-.049c.007-.013.014-.027,0-.041s-.034-.014-.062-.014l-.1-.1c0-.069.021-.167.014-.194s.069-.07.118-.07Zm-7.5.042-.083.014-.014.1.09.014.007-.125Zm14.413.1a.3.3,0,0,0-.139.049l.041.055a.187.187,0,0,1,.111-.035v-.007l.07-.013c-.007-.021-.014-.042-.035-.049Zm-14.378.118a.049.049,0,1,0,.049.048A.052.052,0,0,0,11.292,13.691Zm5.743.055a.207.207,0,0,0,.014.063l.055.021-.1.083-.09.1-.118-.035-.139-.014-.048-.083-.084-.014-.013.167-.056.069-.139.139c.146,0,.049.076-.02.111v-.472a2.36,2.36,0,0,0,.437-.062l.02.02h.1l.007-.055a.577.577,0,0,0,.174-.042Zm-5.667.188a.047.047,0,0,0-.048.048h0a.049.049,0,1,0,.1,0,.047.047,0,0,0-.049-.048Zm4.356.034c-.056,0-.1.181-.132.222,0,0,.028.1.076.09s.084-.034.132-.041.063-.076.076-.153a.133.133,0,0,0-.013-.1s-.042.07-.111,0a.036.036,0,0,0-.028-.014Zm-4.571.1-.1.014v.084l.1-.014v-.084Zm6.943,0h.083l.014.056.354.035h.014c.138.083.069.187.02.208a.4.4,0,0,1-.125.02l-.02.049-.3.021-.02.118a.164.164,0,0,0-.174.222.192.192,0,0,1,0,.152l.125.056.16-.049c.02-.118.124-.139.222-.208s.242.132.194.222c-.007.014-.007.021-.014.028a4.9,4.9,0,0,1-.555.326h0a4.227,4.227,0,0,1-.964.333.022.022,0,0,0-.014-.007l-.125-.035-.014-.173c-.02-.118-.242-.118-.228-.035s-.41.035-.417.035V15.12L16.431,15l.264-.056c.021-.118.139.021.139.021.117-.014.138.069.138.069l.153.021c.125.035.048.049.055.1.014.07.07.049.07.049l.02-.153.07.014-.07-.083-.124-.056-.139-.055c-.09-.132.021-.1.118-.09h.152a1.348,1.348,0,0,1,.174.291c0,.056.083.069.083.069l.1-.013.035.083h.1l.034.069h.209l.013-.1-.194-.035-.014-.117-.138-.035c-.049-.2.034-.257.09-.167l.069.014-.021-.173.084-.021-.021-.243-.07-.02v-.084l.292.014a.353.353,0,0,1-.014-.236Zm8.343.534-.062.035c.007.014.007.035.014.049a.079.079,0,0,0,.021.055.055.055,0,0,0,.048.007l-.014-.069a.015.015,0,0,1,.014.014v-.014a.43.43,0,0,0-.021-.077Zm-.069.132-.069.014c.02.069.041.139.041.146l.063-.028a1.3,1.3,0,0,0-.035-.132Zm-5.41.07v.222h.083V14.8Zm-2.49.055-.09.056.035.062.09-.056Zm7.512.16c-.007.055.007.124.062.131l.014-.069h0a.08.08,0,0,1-.007-.062Zm-9.239.124v0Zm9.2.007a.163.163,0,0,0-.076.042c-.07.042-.042.222,0,.173s.1,0,.1-.131c.007-.07-.007-.084-.028-.084Zm-7.171.091.27.138c.035.049.187.035.187.035l.049.055a.184.184,0,0,1,.152.056c.056.069.361.014.361.014l.083.069.125.049.215.007.132.131a1.226,1.226,0,0,1-.659.035,2.031,2.031,0,0,0-.277-.139s-.188-.152-.222-.1-.2-.055-.2-.02-.152-.084-.152-.084l-.229-.083.173-.035-.027-.111c0-.007.007-.007.014-.013Zm-1.665.034-.083.063.034.034.035.056.083-.132-.069-.021Zm-10.854.652v.118h.09V16.2h.069L6.4,16.021l-.09-.034v-.056l-.055-.007Zm16.839.063-.007.1.111.007.007-.1-.111-.013Zm-.1.242-.021.07c.007,0,.014.007.021.014l.014.062c-.007.007-.014.014-.014.021l.049.048a.143.143,0,0,0,.041-.118.136.136,0,0,0-.09-.1Zm-2.011.208.506.507c-.021.083-.1.131-.145.1s.055.055.083.1a.066.066,0,0,0,.118,0,.729.729,0,0,0,.021-.139l.235.236c-.027.062-.062.118-.048.159h0l.1.049.014.2a.508.508,0,0,0,.388.056l.049.048a8.571,8.571,0,0,1-1.394,1.1v-.111c.208-.153.222-.423.02-.444-.145-.021-.083-.173.056-.2l.083-.035v-.111l.264-.243v-.187l-.576-.478c-.118-.042-.125-.188-.083-.326.1-.1.2-.188.3-.292Zm-14.156.028.084.208.048.1.09.132.125.118.049-.083-.083-.174-.084-.055-.055-.167-.174-.083Zm-2.254.167c.7,1.4.4,3.2,1.3,4.522A6.554,6.554,0,0,0,6.93,22.291l-.014.014a4.481,4.481,0,0,1-.937-.638C4.391,20.342,2,20.176,1.048,18.019a6.205,6.205,0,0,0,2.871,3.87c1.29.846,2.941.749,4.37,1.22-1.325-1.068-1.526-2.67-2.115-4.071a10.508,10.508,0,0,0-1.6-2.406Zm23.186,0a9.854,9.854,0,0,0-1.6,2.42c-.59,1.4-.791,3-2.115,4.071,1.428-.471,3.086-.381,4.369-1.22a6.252,6.252,0,0,0,2.871-3.87c-.95,2.157-3.343,2.323-4.931,3.648a4.514,4.514,0,0,1-.936.638l-.014-.014a7.016,7.016,0,0,0,1.047-1.138c.909-1.331.611-3.134,1.311-4.535Zm-18.088.506a.378.378,0,0,1,.257.166.219.219,0,0,0,.076.091l-.173.173c-.105-.111-.209-.222-.313-.34h.049a.114.114,0,0,1,.1-.09Zm6.832.652a.436.436,0,0,1,.194.055.373.373,0,0,0,.3.035l.125.153a6.539,6.539,0,0,1-.819.069v-.277A.339.339,0,0,1,16.508,17.79Zm5.992.166,1.456,1.457a11.226,11.226,0,0,1-2.767,1.976,11.1,11.1,0,0,1-4.883,1.2v-2.06a8.98,8.98,0,0,0,2.449-.374l.2.062.055.188.09-.014.07-.056.277-.014.139-.131.153-.021,1.088-.923a9.868,9.868,0,0,0,1.672-1.29Zm-5.236.34.02.056.2.055.138.035.049.2.1.014.035.132c.124.09-.035.291-.035.291v.256l.09.049-.014.1.153.153.173.014.284.3a8.807,8.807,0,0,1-2.156.3v-1.88a7.185,7.185,0,0,0,.964-.083Zm-2.789.187-.069.056-.035.028.035.027.083.056.042-.056-.042-.034.035-.028-.049-.049Zm.819.84-.028.062.069.035-.02.021.048.048.056-.055.034-.035-.041-.021-.118-.055Zm-5.833.589.09.139.014.1.118.035.048.069.084-.049-.056-.152-.152-.132-.146-.014Zm-2.6.132c.867,1.165,1.11,2.857,2.691,3.447a4.415,4.415,0,0,1,.839.277,2.192,2.192,0,0,1-.853-.111c-2.032-.423-4.522.132-6.048-1.6a5.18,5.18,0,0,0,2.92,2.407c1.776.582,3.628-.069,5.292-.479.243-.062.534-.041.756-.125a5.108,5.108,0,0,1-2.545-1.13A26.712,26.712,0,0,0,6.86,20.044Zm18.615,0a27.314,27.314,0,0,0-3.051,2.684,5.173,5.173,0,0,1-2.546,1.13c.222.084.514.063.756.125,1.672.416,3.517,1.068,5.292.479a5.278,5.278,0,0,0,2.92-2.407c-1.526,1.734-4.016,1.179-6.048,1.609a2.329,2.329,0,0,1-.853.111,4.637,4.637,0,0,1,.839-.277c1.582-.6,1.824-2.289,2.691-3.454ZM14.489,23.817a11.483,11.483,0,0,0-4.328,1.325A4.4,4.4,0,0,1,6.174,24.8,4.566,4.566,0,0,0,8.2,26.182a4.8,4.8,0,0,0,4.217-.631C13.269,25,14,24.226,15.023,24.226a2.831,2.831,0,0,1,.541.056,12.3,12.3,0,0,0-3.745,2.552,4.872,4.872,0,0,0,.659.6,12.571,12.571,0,0,1,3.7-2.961,12.455,12.455,0,0,1,3.7,2.961,5.386,5.386,0,0,0,.659-.6,12.28,12.28,0,0,0-3.745-2.552,2.839,2.839,0,0,1,.541-.056c1.02,0,1.755.777,2.608,1.325a4.811,4.811,0,0,0,4.217.631A4.65,4.65,0,0,0,26.176,24.8a4.423,4.423,0,0,1-3.988.347,11.511,11.511,0,0,0-4.328-1.325,5.781,5.781,0,0,0-1.678.263,5.72,5.72,0,0,0-1.693-.263Z" fill="#fff"/>
</svg>
