<svg xmlns="http://www.w3.org/2000/svg" width="9.841mm" height="10.149mm" viewBox="0 0 27.897 28.769">
  <title>burgerking</title>
  <g>
    <path d="M21.35,3.726c-.71-1.21-2.32-1.95-4.85-2.22a11.585,11.585,0,0,0-3.39.15,10.888,10.888,0,0,0-3.32,1.08c-2.33,1.26-3.67,2.92-4.02,5a.493.493,0,0,0,.02.41c.07.08.19.09.35.04,3.11-1.04,5.53-1.79,7.23-2.25q4.05-1.065,7.77-1.71a.323.323,0,0,0,.28-.17A.3.3,0,0,0,21.35,3.726Zm-12.66.7a6.888,6.888,0,0,0-1.24,2.42.289.289,0,0,1-.11.21.192.192,0,0,1-.17.06A.214.214,0,0,1,7,7.036a.323.323,0,0,1-.07-.22,2.872,2.872,0,0,1,.31-.91,7.164,7.164,0,0,1,.74-1.15,6.951,6.951,0,0,1,2.59-2.05A7.19,7.19,0,0,0,8.69,4.426Zm10.22-.46a2.294,2.294,0,0,1-.56.16l-.75.18a1.2,1.2,0,0,0,.55-.34.708.708,0,0,0,.23-.52.763.763,0,0,0-.26-.5,2.65,2.65,0,0,0-.72-.49,6.812,6.812,0,0,0-2.68-.65,7.353,7.353,0,0,1,1.68.06,7.843,7.843,0,0,1,1.5.38,4.475,4.475,0,0,1,1.08.58.859.859,0,0,1,.4.65C19.38,3.7,19.22,3.866,18.91,3.966Z" fill="#fff" fill-rule="evenodd"/>
    <path d="M18.778.682A13.824,13.824,0,0,0,14.49,0,14.546,14.546,0,0,0,8.577,1.211,14.064,14.064,0,0,0,4,4.416a14.443,14.443,0,0,0-2.95,4.568A13.819,13.819,0,0,0,0,14.267a14.559,14.559,0,0,0,1.1,5.594,14.312,14.312,0,0,0,3.02,4.614,14.117,14.117,0,0,0,10.2,4.294,13.907,13.907,0,0,0,9.061-3.148,14.816,14.816,0,0,0,2.682-2.854,13.31,13.31,0,0,0,1.549-2.759L25.2,18.7a13.288,13.288,0,0,1-4.244,5.442A11.031,11.031,0,0,1,14.445,26.3a13.732,13.732,0,0,1-5.059-.847,11.98,11.98,0,0,1-4.072-2.51l-1.395.6v-2.16a11.816,11.816,0,0,1-1.772-3.46,13.456,13.456,0,0,1-.63-4.141,13.773,13.773,0,0,1,1.032-5.3A12.85,12.85,0,0,1,5.416,4.2,13.129,13.129,0,0,1,9.8,1.319,14.869,14.869,0,0,1,15.376.274a15.671,15.671,0,0,1,3.4.408Z" fill="#fff" fill-rule="evenodd"/>
    <path d="M25.966,10.558a.842.842,0,0,0-.465-.433,3.844,3.844,0,0,0-1.128-.236,4.632,4.632,0,0,0-1.249.089,4.136,4.136,0,0,0-2.058,1.032,4.062,4.062,0,0,0-1.236,3.129,2.862,2.862,0,0,0,1.089,2.466,3.113,3.113,0,0,0,2.269.529,3.862,3.862,0,0,0,2.357-1.013,1.788,1.788,0,0,0,.491-1.319c.013-.382.013-1.192,0-2.415l-3.014.656v.7c.006.51.242.72.72.625l.383-.1.006.574a.221.221,0,0,1-.07.172,1.072,1.072,0,0,1-.644.3,1.143,1.143,0,0,1-1.1-.306,1.833,1.833,0,0,1-.363-1.229,2.2,2.2,0,0,1,.446-1.37,1.777,1.777,0,0,1,1.026-.638,2.966,2.966,0,0,1,1.07-.07l.625.121a.753.753,0,0,0,.611-.152.917.917,0,0,0,.294-.51.983.983,0,0,0-.064-.606Z" fill="#fff" fill-rule="evenodd"/>
    <path d="M17.816,11.661a1.569,1.569,0,0,0-.268.974l-.006,2.129a30.463,30.463,0,0,0-1.994-2.307,1,1,0,0,0-1.122-.172l-1.032.312V19.7l1-.344a1.536,1.536,0,0,0,.79-.542,1.638,1.638,0,0,0,.223-.924l-.013-2.453,2.148,2.478a1.112,1.112,0,0,0,1.191.281,1.015,1.015,0,0,0,.535-.369,1.084,1.084,0,0,0,.236-.67V11c-.37.077-.707.16-1.019.249a1.26,1.26,0,0,0-.669.408Z" fill="#fff" fill-rule="evenodd"/>
    <path d="M11.565,13.139a1.692,1.692,0,0,0-.8.541,1.938,1.938,0,0,0-.281,1.141l-.006,5.9,1.16-.414a1.752,1.752,0,0,0,.847-.573,1.638,1.638,0,0,0,.249-.969l.006-6.009c-.44.128-.828.255-1.179.383Z" fill="#fff" fill-rule="evenodd"/>
    <path d="M6.372,15.133l-2.147.892-.013,7.08,1.517-.638a.773.773,0,0,0,.477-.363,1.206,1.206,0,0,0,.16-.694V19.16l1.7,1.8a1.226,1.226,0,0,0,.745.369,1.178,1.178,0,0,0,.918-.274,1.056,1.056,0,0,0,.4-.8,1.013,1.013,0,0,0-.242-.732L8.335,17.975l1.586-2.5a.906.906,0,0,0,.115-.739.871.871,0,0,0-.51-.567,1.018,1.018,0,0,0-.8-.045,1,1,0,0,0-.516.408L6.378,17.637l-.006-2.5Z" fill="#fff" fill-rule="evenodd"/>
    <path d="M23.89,17.706c-.07-.09-.21-.11-.39-.06q-3.195.75-7.33,2.05-4.44,1.395-7.2,2.58l-.18.09a.237.237,0,0,0-.11.13.331.331,0,0,0,.1.37,3.174,3.174,0,0,0,1.06.74,8.525,8.525,0,0,0,1.85.63,11.442,11.442,0,0,0,5.14-.06,10.227,10.227,0,0,0,5.68-3.33,8.1,8.1,0,0,0,1.09-1.73,5.53,5.53,0,0,0,.36-.99C24,17.926,23.98,17.786,23.89,17.706Zm-1.3,1.62a7.315,7.315,0,0,1-1.84,2.42,8.068,8.068,0,0,1-2.44,1.47,8.105,8.105,0,0,0,2.3-1.93,7.542,7.542,0,0,0,1.26-2.15.611.611,0,0,1,.25-.33.367.367,0,0,1,.29-.03.294.294,0,0,1,.2.19A.418.418,0,0,1,22.59,19.326Z" fill="#fff" fill-rule="evenodd"/>
    <path d="M6,9.927a1.563,1.563,0,0,0-1.3.02c-.267.1-.8.305-1.593.63l.007,5.162,1.9-.81a3.513,3.513,0,0,0,1.166-.72,1.6,1.6,0,0,0,.464-1.179.922.922,0,0,0-.261-.649,1,1,0,0,0-.592-.319,1.606,1.606,0,0,0,.675-1.287A.9.9,0,0,0,6,9.927Zm-1.338,2.04-.242.1V10.979a.685.685,0,0,1,.529-.1.324.324,0,0,1,.2.357.779.779,0,0,1-.484.727Zm.376.821a.424.424,0,0,1,.223.415.794.794,0,0,1-.535.783l-.293.134V12.865a.677.677,0,0,1,.6-.077Z" fill="#fff" fill-rule="evenodd"/>
    <path d="M10.253,8.672a.446.446,0,0,0-.2-.427A.561.561,0,0,0,9.6,8.226c-.2.058-.408.128-.637.217v3.205c-.013.478-.159.746-.452.822a.337.337,0,0,1-.338-.076.547.547,0,0,1-.108-.37L8.054,9.4a.467.467,0,0,0-.191-.434A.552.552,0,0,0,7.4,8.946l-.65.236v3.18a1.278,1.278,0,0,0,.5,1.153A1.514,1.514,0,0,0,8.6,13.63a2.387,2.387,0,0,0,1.191-.708,2.4,2.4,0,0,0,.465-1.555V8.672Z" fill="#fff" fill-rule="evenodd"/>
    <path d="M19.753,7.315V6.6l1.1-.229a.481.481,0,0,0,.395-.542V5.276c-.911.153-1.841.344-2.784.561l-.019,4.709c1.032-.249,1.822-.427,2.389-.548a.562.562,0,0,0,.465-.612V8.838l-1.548.338.006-.912.969-.2a.473.473,0,0,0,.4-.51l-.006-.523-1.37.287Z" fill="#fff" fill-rule="evenodd"/>
    <path d="M10.61,12.757l.771-.261a.732.732,0,0,0,.528-.7l.007-1.262,1.108,1.153a.722.722,0,0,0,.568.217.706.706,0,0,0,.426-.185.634.634,0,0,0,.211-.491.682.682,0,0,0-.2-.478l-.841-.8a1.983,1.983,0,0,0,.816-1.535.971.971,0,0,0-.465-.892,1.573,1.573,0,0,0-1.217-.128,17.784,17.784,0,0,0-1.714.523v4.843Zm1.3-2.951V8.462c.5-.185.752-.076.759.325a1.143,1.143,0,0,1-.759,1.019Z" fill="#fff" fill-rule="evenodd"/>
    <path d="M24.468,5.187A1.518,1.518,0,0,0,23.3,4.926l-1.708.286V9.851l.707-.134a.634.634,0,0,0,.555-.662V7.921L23.94,9.2a.683.683,0,0,0,.885.115.583.583,0,0,0,.287-.452.6.6,0,0,0-.159-.491l-.841-.943a1.557,1.557,0,0,0,.79-1.319,1.082,1.082,0,0,0-.434-.924ZM22.85,7.2l-.007-1.255c.491-.1.746.019.752.37,0,.4-.248.694-.745.885Z" fill="#fff" fill-rule="evenodd"/>
    <path d="M18.122,6.844a.554.554,0,0,0-.287-.517,1.864,1.864,0,0,0-.93-.165,2.7,2.7,0,0,0-2.046.9,2.963,2.963,0,0,0-.688,2.014,2.113,2.113,0,0,0,.682,1.721,1.891,1.891,0,0,0,1.625.343,2.694,2.694,0,0,0,1.319-.592,1.027,1.027,0,0,0,.35-.816V7.907l-1.931.434v.535a.361.361,0,0,0,.128.293.341.341,0,0,0,.306.07l.28-.063.006.528a.282.282,0,0,1-.2.255.923.923,0,0,1-.447.09c-.477-.007-.713-.357-.726-1.052a1.936,1.936,0,0,1,.293-1.064,1.269,1.269,0,0,1,.72-.51,2.231,2.231,0,0,1,.752-.012.725.725,0,0,0,.574-.1.569.569,0,0,0,.217-.471Z" fill="#fff" fill-rule="evenodd"/>
    <polygon points="27.253 18.746 26.775 18.746 26.775 18.823 26.96 18.823 26.96 19.192 27.081 19.192 27.081 18.823 27.253 18.823 27.253 18.746" fill="#fff" fill-rule="evenodd"/>
    <polygon points="27.438 18.829 27.546 19.192 27.667 19.192 27.775 18.829 27.775 19.192 27.897 19.192 27.897 18.746 27.718 18.746 27.61 19.09 27.495 18.746 27.317 18.746 27.317 19.192 27.438 19.192 27.438 18.829" fill="#fff" fill-rule="evenodd"/>
  </g>
</svg>
