<svg xmlns="http://www.w3.org/2000/svg" width="31.856mm" height="3.468mm" viewBox="0 0 90.3 9.83">
  <title>cipr</title>
  <g>
    <rect width="2.07" height="7.77" fill="#fff"/>
    <polygon points="21.61 7.77 21.61 9.83 0 9.83 0 7.77 17.6 7.77 17.6 0 19.67 0 19.67 7.77 21.61 7.77" fill="#fff"/>
    <polygon points="43.31 0 43.31 9.83 41.24 9.83 41.24 2.06 38.06 2.06 30.35 9.83 23.43 9.83 23.43 0 25.49 0 25.49 7.77 29.56 7.77 37.21 0 43.31 0" fill="#fff"/>
    <polygon points="55.11 0 55.11 2.06 49.16 2.06 49.16 9.83 47.1 9.83 47.1 0 55.11 0" fill="#fff"/>
    <polygon points="66.92 0 66.92 9.83 64.85 9.83 64.85 2.06 58.85 2.06 58.85 0 66.92 0" fill="#fff"/>
    <rect x="47.05" width="0.05" height="2.06" fill="#fff"/>
    <path d="M70.65,0V9.83h2.06V5.95H88.23v.07H90.3V0ZM88.23,3.88H72.71V2.06H88.23Z" fill="#fff"/>
  </g>
</svg>
