<svg xmlns="http://www.w3.org/2000/svg" width="8.722mm" height="8.432mm" viewBox="0 0 24.725 23.901">
  <title>er</title>
  <g>
    <path d="M3.071,15.52H1.3v.469H2.707c0,.52-.052.885-.208.885H1.3v.468h1.77v.989H0V14.583H3.071v.937Z" fill="#fff" fill-rule="evenodd"/>
    <g>
      <path d="M6.507,18.9v-.573H4.581V18.9H3.435V17.29a1.454,1.454,0,0,0,.261-.052,1.161,1.161,0,0,0,.572-.885,7.728,7.728,0,0,0,.209-1.77H7.235v2.759H7.7V18.9ZM5.466,15.573a4.349,4.349,0,0,1-.417,1.717h.885V15.573Z" fill="#fff"/>
      <path d="M6.507,18.9v-.573H4.581V18.9H3.435V17.29a1.454,1.454,0,0,0,.261-.052,1.161,1.161,0,0,0,.572-.885,7.728,7.728,0,0,0,.209-1.77H7.235v2.759H7.7V18.9ZM5.466,15.573a4.349,4.349,0,0,1-.417,1.717h.885V15.573Z" fill="#fff" fill-rule="evenodd"/>
      <path d="M10.827,18.331V16.405s-.833,1.093-.989,1.406a.807.807,0,0,1-.677.52H8.224V14.583h1.2v2.239s1.093-1.614,1.353-1.978a.7.7,0,0,1,.52-.261h.781v3.748Z" fill="#fff"/>
      <path d="M10.827,18.331V16.405s-.833,1.093-.989,1.406a.807.807,0,0,1-.677.52H8.224V14.583h1.2v2.239s1.093-1.614,1.353-1.978a.7.7,0,0,1,.52-.261h.781v3.748Z" fill="#fff" fill-rule="evenodd"/>
      <polygon points="14.002 15.885 15.199 15.885 15.199 14.583 16.501 14.583 16.501 18.331 15.147 18.331 15.147 16.926 14.002 16.926 14.002 18.331 12.701 18.331 12.701 14.583 14.002 14.583 14.002 15.885 14.002 15.885" fill="#fff"/>
      <polygon points="14.002 15.885 15.199 15.885 15.199 14.583 16.501 14.583 16.501 18.331 15.147 18.331 15.147 16.926 14.002 16.926 14.002 18.331 12.701 18.331 12.701 14.583 14.002 14.583 14.002 15.885 14.002 15.885" fill="#fff" fill-rule="evenodd"/>
      <path d="M21.185,18.331h-1.4l-.26-.78H18.374l-.208.78H16.709l1.353-3.748H19.78l1.4,3.748ZM18.531,16.77h.78l-.364-1.354-.416,1.354Z" fill="#fff"/>
      <path d="M21.185,18.331h-1.4l-.26-.78H18.374l-.208.78H16.709l1.353-3.748H19.78l1.4,3.748ZM18.531,16.77h.78l-.364-1.354-.416,1.354Z" fill="#fff" fill-rule="evenodd"/>
      <path d="M23.424,18.331V16.874c-.156,0-.365.052-.417.208s-.312.729-.364.937c-.1.26-.156.312-.313.312H21.081l.365-.833a2.164,2.164,0,0,1,.52-.78,1.439,1.439,0,0,1,.364-.209,1.23,1.23,0,0,1-.624-.208.843.843,0,0,1-.364-.728.884.884,0,0,1,.312-.677,1.641,1.641,0,0,1,1.041-.313h2.03v3.748Zm-.313-2.967a.492.492,0,0,0-.364.1.285.285,0,0,0-.156.26.314.314,0,0,0,.156.312.964.964,0,0,0,.364.1h.365v-.781Z" fill="#fff"/>
      <path d="M23.424,18.331V16.874c-.156,0-.365.052-.417.208s-.312.729-.364.937c-.1.26-.156.312-.313.312H21.081l.365-.833a2.164,2.164,0,0,1,.52-.78,1.439,1.439,0,0,1,.364-.209,1.23,1.23,0,0,1-.624-.208.843.843,0,0,1-.364-.728.884.884,0,0,1,.312-.677,1.641,1.641,0,0,1,1.041-.313h2.03v3.748Zm-.313-2.967a.492.492,0,0,0-.364.1.285.285,0,0,0-.156.26.314.314,0,0,0,.156.312.964.964,0,0,0,.364.1h.365v-.781Z" fill="#fff" fill-rule="evenodd"/>
      <path d="M19.155,23.849V21.663s-.885,1.3-1.093,1.613c-.26.417-.416.573-.781.573h-.988v-4.06h1.353v1.665l-.052.625s1.249-1.614,1.457-1.978a.624.624,0,0,1,.625-.312h.833l-.052,4.06Z" fill="#fff"/>
      <path d="M19.155,23.849V21.663s-.885,1.3-1.093,1.613c-.26.417-.416.573-.781.573h-.988v-4.06h1.353v1.665l-.052.625s1.249-1.614,1.457-1.978a.624.624,0,0,1,.625-.312h.833l-.052,4.06Z" fill="#fff" fill-rule="evenodd"/>
      <path d="M23.319,23.849V22.287a.563.563,0,0,0-.468.209c-.052.156-.312.78-.416,1.041s-.156.312-.313.312H20.769l.416-.885a1.716,1.716,0,0,1,.521-.833,1.454,1.454,0,0,1,.416-.26,1.567,1.567,0,0,1-.676-.208.731.731,0,0,1-.365-.781.955.955,0,0,1,.313-.781,1.819,1.819,0,0,1,1.093-.312h2.238v4.06Zm-.364-3.228a.966.966,0,0,0-.364.105.371.371,0,0,0-.156.312.44.44,0,0,0,.1.312.773.773,0,0,0,.468.1h.364v-.833Z" fill="#fff"/>
      <path d="M23.319,23.849V22.287a.563.563,0,0,0-.468.209c-.052.156-.312.78-.416,1.041s-.156.312-.313.312H20.769l.416-.885a1.716,1.716,0,0,1,.521-.833,1.454,1.454,0,0,1,.416-.26,1.567,1.567,0,0,1-.676-.208.731.731,0,0,1-.365-.781.955.955,0,0,1,.313-.781,1.819,1.819,0,0,1,1.093-.312h2.238v4.06Zm-.364-3.228a.966.966,0,0,0-.364.105.371.371,0,0,0-.156.312.44.44,0,0,0,.1.312.773.773,0,0,0,.468.1h.364v-.833Z" fill="#fff" fill-rule="evenodd"/>
      <path d="M1.666,19.789a2.123,2.123,0,0,1,1.457.364,1.281,1.281,0,0,1,.469,1.093A1.424,1.424,0,0,1,2.134,22.7H1.405v1.145H0v-4.06Zm-.261,1.926H1.77a.459.459,0,0,0,.468-.469c0-.208-.052-.52-.468-.52H1.405v.989Z" fill="#fff"/>
      <path d="M1.666,19.789a2.123,2.123,0,0,1,1.457.364,1.281,1.281,0,0,1,.469,1.093A1.424,1.424,0,0,1,2.134,22.7H1.405v1.145H0v-4.06Zm-.261,1.926H1.77a.459.459,0,0,0,.468-.469c0-.208-.052-.52-.468-.52H1.405v.989Z" fill="#fff" fill-rule="evenodd"/>
      <path d="M7.548,20.361a2.24,2.24,0,0,1,.572,1.458A1.988,1.988,0,0,1,5.934,23.9a2.264,2.264,0,0,1-1.457-.469,2.236,2.236,0,0,1-.625-1.613,1.931,1.931,0,0,1,2.134-2.082,2.047,2.047,0,0,1,1.614.624Zm-1.562.417c-.625,0-.677.676-.677,1.041s.052.989.677.989c.573,0,.677-.573.677-.937-.052-.729-.365-1.093-.677-1.093Z" fill="#fff"/>
      <path d="M7.548,20.361a2.24,2.24,0,0,1,.572,1.458A1.988,1.988,0,0,1,5.934,23.9a2.264,2.264,0,0,1-1.457-.469,2.236,2.236,0,0,1-.625-1.613,1.931,1.931,0,0,1,2.134-2.082,2.047,2.047,0,0,1,1.614.624Zm-1.562.417c-.625,0-.677.676-.677,1.041s.052.989.677.989c.573,0,.677-.573.677-.937-.052-.729-.365-1.093-.677-1.093Z" fill="#fff" fill-rule="evenodd"/>
      <path d="M11.868,20.986a3.268,3.268,0,0,0-.833-.1.978.978,0,0,0-1.093.937c0,.52.26.937,1.041.937.417,0,.781-.052.885-.052l.156,1.093a9.229,9.229,0,0,1-1.353.1A2.082,2.082,0,0,1,8.38,21.819a2.048,2.048,0,0,1,2.343-2.082,4.354,4.354,0,0,1,1.353.156l-.208,1.093Z" fill="#fff"/>
      <path d="M11.868,20.986a3.268,3.268,0,0,0-.833-.1.978.978,0,0,0-1.093.937c0,.52.26.937,1.041.937.417,0,.781-.052.885-.052l.156,1.093a9.229,9.229,0,0,1-1.353.1A2.082,2.082,0,0,1,8.38,21.819a2.048,2.048,0,0,1,2.343-2.082,4.354,4.354,0,0,1,1.353.156l-.208,1.093Z" fill="#fff" fill-rule="evenodd"/>
      <path d="M15.668,20.986a3.4,3.4,0,0,0-.885-.1.978.978,0,0,0-1.093.937c0,.52.26.937,1.093.937.364,0,.729-.052.885-.052l.1,1.093a8.716,8.716,0,0,1-1.3.1,2.055,2.055,0,0,1-2.291-2.082,2.006,2.006,0,0,1,2.291-2.082,4.74,4.74,0,0,1,1.4.156l-.208,1.093Z" fill="#fff"/>
      <path d="M15.668,20.986a3.4,3.4,0,0,0-.885-.1.978.978,0,0,0-1.093.937c0,.52.26.937,1.093.937.364,0,.729-.052.885-.052l.1,1.093a8.716,8.716,0,0,1-1.3.1,2.055,2.055,0,0,1-2.291-2.082,2.006,2.006,0,0,1,2.291-2.082,4.74,4.74,0,0,1,1.4.156l-.208,1.093Z" fill="#fff" fill-rule="evenodd"/>
      <path d="M23.946,4.116l-.109-.042a7.654,7.654,0,0,0-1.193-.424c-.164-.727-1.151-1.1-1.973-1.4a1.779,1.779,0,0,0-.836-.741,1.382,1.382,0,0,0-1.1.055L14,.113l-.3-.054-.109.315c-.055.055-.151.37-.412.411a9.3,9.3,0,0,1-2.864-.3A18.651,18.651,0,0,0,6.2,0,5.286,5.286,0,0,0,2.551,1.936,5.4,5.4,0,0,0,1.3,5.267c0,.26.055.466.055.726L1.4,6.2l.219.11a.7.7,0,0,1,.3.205l-.206.411L1.14,8.186a6.351,6.351,0,0,0-.412,2.289A3.446,3.446,0,0,0,1.4,12.709l.11.206H4.731l.054-.315c0-.1.055-.206.055-.3a1.587,1.587,0,0,0-.205-.836.873.873,0,0,0-.425-.37.258.258,0,0,1-.151-.26V10.79c.055-.219.37-.479.987-.74l.055-.041c.315.521.63,1.042.781,1.343l.315.521a2.577,2.577,0,0,0,1.042.987l.1.055H10.72v-.466a2.853,2.853,0,0,0-.055-.631,2.278,2.278,0,0,0,1.3,1.042l.11.055h3.385v-.466c-.109-.932-.37-1.4-.836-1.4a.886.886,0,0,1-.726-.261,3.615,3.615,0,0,1,.877-1,7.88,7.88,0,0,0,2.769,3.07l.055.055h3.536l-.11-.521c-.206-.781-.576-1.3-1.138-1.4-.685-.11-.891-.206-1.041-.466a3.344,3.344,0,0,1-.315-.946c-.11-.411-.206-.836-.316-1.137a1.674,1.674,0,0,0-.109-.261l.219-.055a5.614,5.614,0,0,0,2.81-1.041,2.543,2.543,0,0,0,1.3-.11,1.623,1.623,0,0,0,.616-.836V6.1l.165-.055A2.515,2.515,0,0,0,24.262,4.6V4.54A.413.413,0,0,0,23.946,4.116ZM10.665,11.777c-.1-.425-.274-.658-.562-.726L9.788,11c-.37-.11-.37-.11-.425-.206v-.109a1.592,1.592,0,0,1,.165-.631s.054-.3.1-.562a4.2,4.2,0,0,1,1.151-.164,6.416,6.416,0,0,0-.151,1.412C10.624,11.2,10.665,11.558,10.665,11.777ZM23,5.678a2.367,2.367,0,0,1-.672.261c.151,0,.261,0,.315.054.1.11-.315.631-.37.631a3.508,3.508,0,0,1-1.3.041c-.205.48-1.864,1-2.645,1.1a3.66,3.66,0,0,1-.521-.877c-.466.261-.425.672.055,1.659.247.685.411,1.877.617,2.247.26.357.63.466,1.357.617.52.055.726.781.781,1.1H17.7a7.553,7.553,0,0,1-2.6-2.975,3.583,3.583,0,0,1,.782-1.137c-.316-.165-1.042.836-1.3,1.042-.616.575-1.041.986-1.1,1.356,0,.3.425.617,1.151.672.316,0,.412.781.412,1.042H12.132a2.022,2.022,0,0,1-1.042-.782,7.63,7.63,0,0,1,.151-2.809,10.049,10.049,0,0,0-1.919.205c-.11.727-.425,1.3-.315,1.768s.575.412.987.521c.315.11.37.781.37,1.1H7.444a2.358,2.358,0,0,1-.932-.836c-.219-.37-1.85-3.441-2.193-3.441.055.22.412.836.576,1.412-.781.37-1.151.672-1.247,1.1a.724.724,0,0,0,.466.781c.315.041.315.781.26.987H1.715c-.987-1.357-.521-3.276-.205-4.167.37-.891.63-1.247.781-1.617s-.206-.672-.521-.781A4.994,4.994,0,0,1,6.252.429c3.015-.11,4.989,1.041,6.963.726a1.011,1.011,0,0,0,.74-.63,18.619,18.619,0,0,1,4.783,1.507,1.056,1.056,0,0,1,1.617.576c1.357.466,2.029.781,1.878,1.3a13.628,13.628,0,0,1,1.6.576C24.042,4.6,23.522,5.377,23,5.678Z" fill="#fff" fill-rule="evenodd"/>
      <path d="M21.654,4.381c-.156,0-.677.365-.833.365-.156-.157-.625-.833.833-.677.208,0,.052-.208-.1-.312a10.4,10.4,0,0,0-1.614-.573c-.156-.625-.885-.885-1.093-.156a15.041,15.041,0,0,0-4.008-1.406c-.156.1-.208.625-1.093.781-1.093.208-3.279-.468-5.778-.781S3.488,2.559,3.227,4.85a2.536,2.536,0,0,1,2.551.885C8.172,8.753,7.7,9.847,8.12,10.055c.469-1.041,1.2-3.383.469-4.789.26-.1.676.26,1.093.625a2.674,2.674,0,0,0,1.926.781c.26-.989,1.4-1.978,1.718-1.926a9.4,9.4,0,0,0-1.25,2.862c-.468,1.458-.312,3.123,0,3.176a7.911,7.911,0,0,1,1.041-2.551c1.145-1.822,3.332-3.383,4.945-3.019A1.618,1.618,0,0,0,17.125,6a2.059,2.059,0,0,1,1.2.729C18.9,6.2,19.988,6.307,20.717,6a.456.456,0,0,1,.416-.521c.469-.052,1.093.156,1.51-.052a1.393,1.393,0,0,0,.52-.78,3.871,3.871,0,0,0-1.509-.261Z" fill="#fff" fill-rule="evenodd"/>
    </g>
  </g>
</svg>
