<svg xmlns="http://www.w3.org/2000/svg" width="9.153mm" height="12.833mm" viewBox="0 0 25.947 36.377">
  <title>kazanexpo</title>
  <g>
    <path d="M10.091,7.913A5.35,5.35,0,0,0,7.1,4.519L6.393,4.2l.425-.654c.058-.086,1.374-2.079,3.349-2.079a3.046,3.046,0,0,1,1.3.294,5.359,5.359,0,0,1,.421-.672A5.6,5.6,0,1,0,8.573,11.2a5.561,5.561,0,0,0,2.961-.849,6.019,6.019,0,0,1-1.075-1.614c-.133-.282-.252-.556-.368-.821m8.475-5.179a3.578,3.578,0,0,0-3.381-2.6l-.01,0-.006,0a3.582,3.582,0,0,0-3.385,2.6c-2.438-1.848-4.4,1.175-4.4,1.175,2.474,1.129,2.8,2.649,3.686,4.541a4.244,4.244,0,0,0,4.106,2.687,4.247,4.247,0,0,0,4.11-2.687c.884-1.892,1.21-3.412,3.685-4.541C22.97,3.909,21.007.886,18.566,2.734Z" fill="#fff"/>
    <path d="M1.459,18.341l2.086-3.178H5.23L2.818,18.689l2.456,4.468H3.6L1.929,19.969l-.47.708v2.48H0V15.163H1.459Zm8.633,4.816V19.194A1.987,1.987,0,0,0,7.87,17.185a2.13,2.13,0,0,0-2.246,1.941H7.059a.753.753,0,0,1,.821-.651.712.712,0,0,1,.8.753v.348H7.733c-1.278,0-2.234.594-2.234,1.763a1.87,1.87,0,0,0,1.91,1.918,1.531,1.531,0,0,0,1.28-.515v.415ZM8.677,21.046a.941.941,0,0,1-1.034.978.666.666,0,0,1-.729-.685c0-.37.328-.618.819-.618h.944Zm6.5,2.111V21.833H12.61l2.357-3.482V17.265H10.905v1.323H13.17l-2.357,3.48v1.089Zm5.183,0V19.194a1.985,1.985,0,0,0-2.223-2.009A2.129,2.129,0,0,0,15.9,19.126h1.435a.754.754,0,0,1,.82-.651.712.712,0,0,1,.8.753v.348h-.942c-1.279,0-2.233.594-2.233,1.763a1.869,1.869,0,0,0,1.909,1.918,1.527,1.527,0,0,0,1.28-.515v.415Zm-1.416-2.111a.94.94,0,0,1-1.032.978.666.666,0,0,1-.729-.685c0-.37.325-.618.819-.618h.942Zm3.9-3.786H21.412v5.9h1.436V19.474a.9.9,0,0,1,.877-.919.749.749,0,0,1,.786.842v3.76h1.436V19.4a1.956,1.956,0,0,0-1.942-2.2,1.7,1.7,0,0,0-1.157.391Z" fill="#fff"/>
    <path d="M7,34.009V32.56H3.837V30.529H6.766V29.081H3.837V27.464H7V26.015H2.377v7.994Zm.481-5.894,1.886,2.964-1.9,2.93H9.123l1.067-1.718,1.055,1.718h1.694l-1.964-2.952,1.92-2.942h-1.65L10.19,29.854,9.135,28.115Zm7.53,5.625a1.757,1.757,0,0,0,1.056.369A2.023,2.023,0,0,0,18.1,31.887V30.236a2,2,0,0,0-2.031-2.2,1.743,1.743,0,0,0-1.056.359v-.281H13.576v8.263h1.437Zm1.649-1.853a.826.826,0,1,1-1.649,0V30.159a.743.743,0,0,1,.831-.763.755.755,0,0,1,.818.84Zm6.907-1.651a2.116,2.116,0,0,0-2.31-2.2,2.126,2.126,0,0,0-2.3,2.2v1.651a2.108,2.108,0,0,0,2.3,2.222,2.144,2.144,0,0,0,2.31-2.222Zm-1.435,1.651a.815.815,0,0,1-.875.877.8.8,0,0,1-.864-.877V30.236a.773.773,0,0,1,.864-.84c.682.033.884.448.875.84Z" fill="#fff"/>
  </g>
</svg>
