<svg xmlns="http://www.w3.org/2000/svg" width="12.351mm" height="6.131mm" viewBox="0 0 35.01 17.379">
  <title>kazanmayor</title>
  <g>
    <path d="M0,0H1.9l2,4.887h.085L5.987,0h1.9V7.273H6.393V2.539H6.332L4.45,7.237H3.435L1.552,2.521h-.06V7.273H0Z" fill="#fff"/>
    <path d="M11.229,2.948a.941.941,0,0,0-.632.216.721.721,0,0,0-.245.572H8.992a1.863,1.863,0,0,1,.3-1.044,2.042,2.042,0,0,1,.8-.707,2.5,2.5,0,0,1,1.136-.256,2.487,2.487,0,0,1,1.387.368,2.329,2.329,0,0,1,.852.991,3.275,3.275,0,0,1,.29,1.4v.132a3.3,3.3,0,0,1-.288,1.4,2.314,2.314,0,0,1-.851.989,2.506,2.506,0,0,1-1.39.366,2.512,2.512,0,0,1-1.165-.26,1.917,1.917,0,0,1-.788-.742,2.225,2.225,0,0,1-.284-1.147h1.36a.96.96,0,0,0,.234.648.814.814,0,0,0,.643.275.917.917,0,0,0,.567-.165,1.071,1.071,0,0,0,.335-.43,2,2,0,0,0,.156-.559H10.82V4.1h1.467a1.737,1.737,0,0,0-.3-.806A.874.874,0,0,0,11.229,2.948Z" fill="#fff"/>
    <path d="M14.744,9.318v-7.5h1.491v.916H16.3a2.015,2.015,0,0,1,.291-.45,1.5,1.5,0,0,1,.5-.382,1.7,1.7,0,0,1,.763-.154,2.049,2.049,0,0,1,1.1.31,2.2,2.2,0,0,1,.8.934,3.563,3.563,0,0,1,.3,1.561,3.612,3.612,0,0,1-.293,1.539,2.22,2.22,0,0,1-.8.949,2.044,2.044,0,0,1-1.122.321,1.738,1.738,0,0,1-.748-.146,1.494,1.494,0,0,1-.5-.367,1.907,1.907,0,0,1-.3-.45h-.047V9.318Zm1.482-4.772a2.05,2.05,0,0,0,.3,1.17,1.033,1.033,0,0,0,1.7-.008,2.086,2.086,0,0,0,.295-1.162,2.05,2.05,0,0,0-.293-1.152,1.048,1.048,0,0,0-1.7-.011A2.01,2.01,0,0,0,16.226,4.546Z" fill="#fff"/>
    <path d="M22.514,5.277l1.964-3.459h1.491V7.273H24.527V3.8L22.57,7.273h-1.5V1.818h1.446Z" fill="#fff"/>
    <path d="M30.376,7.273V5.306h-.97L28.358,7.273H26.91l1.175-2.2a1.752,1.752,0,0,1-.756-.592,1.455,1.455,0,0,1-.263-.875,1.57,1.57,0,0,1,.613-1.294,2.593,2.593,0,0,1,1.675-.5h2.432V7.273Zm0-2.99V3H29.354a.921.921,0,0,0-.634.192.58.58,0,0,0-.212.455.562.562,0,0,0,.208.449.925.925,0,0,0,.623.183Z" fill="#fff"/>
    <path d="M4.372,17.273l-2.365-3.1H1.538v3.1H0V10H1.538v2.9H1.9L4.56,10H6.541L3.363,13.47l2.93,3.8Z" fill="#fff"/>
    <path d="M8.878,17.376a2.021,2.021,0,0,1-1.3-.408,1.461,1.461,0,0,1-.516-1.218,1.465,1.465,0,0,1,.288-.959,1.665,1.665,0,0,1,.755-.51,4.241,4.241,0,0,1,1.007-.211,7.877,7.877,0,0,0,1.016-.149q.3-.078.3-.341v-.021a.657.657,0,0,0-.211-.522.884.884,0,0,0-.6-.185,1.072,1.072,0,0,0-.649.177.838.838,0,0,0-.321.451l-1.4-.113a1.864,1.864,0,0,1,.775-1.183,2.716,2.716,0,0,1,1.6-.436,3.334,3.334,0,0,1,1.137.191,1.9,1.9,0,0,1,.854.6,1.643,1.643,0,0,1,.324,1.056v3.679H10.515v-.756h-.042a1.569,1.569,0,0,1-.6.619A1.906,1.906,0,0,1,8.878,17.376Zm.434-1.044a1.169,1.169,0,0,0,.816-.29.928.928,0,0,0,.319-.719v-.578a.877.877,0,0,1-.275.106c-.124.031-.257.058-.4.08s-.266.042-.378.059a1.49,1.49,0,0,0-.641.223.555.555,0,0,0-.243.487.542.542,0,0,0,.225.472A.969.969,0,0,0,9.312,16.332Z" fill="#fff"/>
    <path d="M12.845,15.728h1.467a.509.509,0,0,0,.241.426,1.043,1.043,0,0,0,.6.157,1.075,1.075,0,0,0,.622-.173.565.565,0,0,0,.251-.5.6.6,0,0,0-.215-.479.854.854,0,0,0-.573-.185H14.45v-.991h.784a.817.817,0,0,0,.542-.161.518.518,0,0,0,.19-.41.56.56,0,0,0-.195-.444.781.781,0,0,0-.533-.171.977.977,0,0,0-.559.151.474.474,0,0,0-.229.392H12.99a1.343,1.343,0,0,1,.3-.848,1.853,1.853,0,0,1,.781-.554,2.952,2.952,0,0,1,1.1-.2,2.686,2.686,0,0,1,1.58.411,1.309,1.309,0,0,1,.579,1.126.994.994,0,0,1-.286.724,1.616,1.616,0,0,1-.794.416v.057a1.325,1.325,0,0,1,.856.369,1.194,1.194,0,0,1,.355.909,1.331,1.331,0,0,1-.3.87,1.872,1.872,0,0,1-.817.556,3.406,3.406,0,0,1-1.192.193,3.37,3.37,0,0,1-1.17-.191,1.869,1.869,0,0,1-.818-.56A1.462,1.462,0,0,1,12.845,15.728Z" fill="#fff"/>
    <path d="M19.947,17.376a2.023,2.023,0,0,1-1.3-.408,1.463,1.463,0,0,1-.515-1.218,1.459,1.459,0,0,1,.288-.959,1.654,1.654,0,0,1,.755-.51,4.221,4.221,0,0,1,1.007-.211,7.883,7.883,0,0,0,1.015-.149q.3-.078.3-.341v-.021a.654.654,0,0,0-.211-.522.884.884,0,0,0-.6-.185,1.074,1.074,0,0,0-.649.177.836.836,0,0,0-.32.451l-1.4-.113a1.865,1.865,0,0,1,.776-1.183,2.715,2.715,0,0,1,1.6-.436,3.334,3.334,0,0,1,1.137.191,1.894,1.894,0,0,1,.854.6,1.643,1.643,0,0,1,.325,1.056v3.679H21.584v-.756h-.042a1.569,1.569,0,0,1-.6.619A1.9,1.9,0,0,1,19.947,17.376Zm.434-1.044a1.169,1.169,0,0,0,.816-.29.929.929,0,0,0,.32-.719v-.578a.9.9,0,0,1-.276.106c-.124.031-.257.058-.4.08l-.378.059a1.49,1.49,0,0,0-.642.223.555.555,0,0,0-.243.487.541.541,0,0,0,.226.472A.964.964,0,0,0,20.381,16.332Z" fill="#fff"/>
    <path d="M25.639,11.818v2.124H27.5V11.818h1.435v5.455H27.5V15.132H25.639v2.141H24.193V11.818Z" fill="#fff"/>
    <path d="M31.555,15.277l1.964-3.459H35.01v5.455H33.568V13.8l-1.957,3.469h-1.5V11.818h1.446Z" fill="#fff"/>
  </g>
</svg>
