<svg xmlns="http://www.w3.org/2000/svg" width="22.73mm" height="4.311mm" viewBox="0 0 64.432 12.221">
  <title>pyaterochka</title>
  <g>
    <path d="M10.421,1.883a.059.059,0,0,0-.049-.017c-.017,0-.033.017-.049.017a4.841,4.841,0,0,1-1.011.908,4.6,4.6,0,0,1-2.495.743,5.085,5.085,0,0,1-3.376-1.42c-.016-.016-.033-.033-.033-.05s.017-.033.033-.049A11.254,11.254,0,0,1,6.605.149c.032-.017.049-.033.049-.066S6.621.033,6.588.017C6.409,0,6.23,0,6.05,0A6.062,6.062,0,0,0,0,6.111a6.114,6.114,0,0,0,2.12,4.657c.016.017.033.017.065.017.017,0,.033-.017.049-.05l.245-.793a.089.089,0,0,1,.081-.049c3.229.71,4.615-1.057,4.387-2.164-.2-.941-1.712-1.767-3.93-.5a.031.031,0,0,1-.049,0,.016.016,0,0,1-.016-.017.083.083,0,0,1-.033-.066l.75-3.881c0-.016.017-.033.033-.049s.049,0,.065,0c.212.132.848.545,1.533.957a.089.089,0,0,1,.033.067c-.017.165-.115.776-.147,1.04a.1.1,0,0,0,.016.066c.016.017.033.017.065.017,3.719-1.008,4.5,1.354,4.4,2.477-.228,2.56-3.016,3.914-5.495,3.947-.033,0-.065.017-.065.05s.016.066.048.066a6.071,6.071,0,0,0,1.892.313A6.086,6.086,0,0,0,12.1,6.094,6.173,6.173,0,0,0,10.421,1.883Z" fill="#fff"/>
    <path d="M4.486,2.048A3.855,3.855,0,0,0,10.405.413,17.316,17.316,0,0,1,4.486,2.048Z" fill="#fff"/>
    <path d="M4.486,2.048A16.7,16.7,0,0,0,10.405.413,8.146,8.146,0,0,0,4.486,2.048Z" fill="#fff"/>
    <path d="M35.16,4.526a1.871,1.871,0,0,0-1.6,1.106h-.017c0-.627-.244-1.106-.946-1.106a1.83,1.83,0,0,0-1.565,1.156h-.016c.049-.2.1-.479.146-.71a.245.245,0,0,0-.065-.215.261.261,0,0,0-.212-.1h-.832L29.305,8.9a.238.238,0,0,0,.245.3h.88l.066-.38c.44-2.527,1.043-3.221,1.533-3.221.342,0,.391.331.31.777l-.457,2.477a.249.249,0,0,0,.065.231.263.263,0,0,0,.212.1h.864l.066-.38c.44-2.51,1.043-3.22,1.533-3.22.326,0,.375.314.293.776L34.459,8.9a.233.233,0,0,0,.048.2.264.264,0,0,0,.18.082h.9l.5-2.874a3.035,3.035,0,0,0,.066-.627C36.138,4.922,35.779,4.526,35.16,4.526Zm4.99-.958.391.066c.114.016.212.033.245-.149l.13-.495c.033-.149-.016-.182-.163-.215L40.4,2.709c-.082,0-.212-.033-.245.149L40,3.37C39.987,3.485,40.019,3.551,40.15,3.568ZM28.735,4.658H27.022c-1.272,0-2.12.545-2.12,1.569a.879.879,0,0,0,.75.925v.016a1.549,1.549,0,0,0-.489.463c-.31.4-.538.66-.734.66a.108.108,0,0,0-.081.066l-.1.711c0,.033,0,.066.033.082a.119.119,0,0,0,.081.033h.359c.587,0,.783-.231,1.353-.958.441-.594.6-.776.881-.776h.2l-.278,1.6a.123.123,0,0,0,.017.083c.016.033.049.033.081.033h1a.092.092,0,0,0,.1-.083l.766-4.327a.129.129,0,0,0-.016-.083A.719.719,0,0,0,28.735,4.658ZM27.316,6.64H26.7c-.391,0-.571-.132-.571-.4,0-.446.278-.677.816-.677h.587ZM25.75,2.56a99.182,99.182,0,0,1,12.28.694.186.186,0,0,0,.212-.115l.081-.248.131-.413c.016-.033,0-.05-.016-.083a.235.235,0,0,0-.066-.049,96.879,96.879,0,0,0-12.785-.909,44.948,44.948,0,0,0-9.7,1.338.211.211,0,0,0-.163.182l-.114.611c0,.033,0,.066.032.082a.071.071,0,0,0,.082.017c.848-.2,2.038-.4,3.6-.595L18.281,8.985c-.032.1-.032.215.163.215h1.011c.066,0,.147-.017.18-.182L20.613,3.3a.527.527,0,0,1,.392-.4c.424-.049,1.157-.082,1.6-.132L21.51,8.985c-.032.215.065.2.147.2h1.06a.222.222,0,0,0,.245-.215l1.027-5.962a.513.513,0,0,1,.391-.379C24.9,2.61,25.228,2.577,25.75,2.56ZM38.911,3.4l.44.066c.114.016.212.033.261-.149l.147-.512c.032-.165-.017-.2-.164-.231l-.407-.05a.192.192,0,0,0-.261.149l-.147.529C38.731,3.3,38.764,3.37,38.911,3.4Zm1.712,2.312c0-.743-.506-1.173-1.37-1.173A2.737,2.737,0,0,0,36.676,7.5a1.627,1.627,0,0,0,1.713,1.816,2.575,2.575,0,0,0,1.794-.66l-.473-.81a1.734,1.734,0,0,1-1.142.479c-.489,0-.685-.313-.7-.825C39.367,7.333,40.623,6.821,40.623,5.715ZM37.948,6.722c.163-.66.539-1.255,1.109-1.255.278,0,.424.116.424.38C39.465,6.326,38.845,6.64,37.948,6.722Zm6.214-2.2c-.783,0-1.191.545-1.566,1.189H42.58c.049-.165.081-.314.114-.479a.47.47,0,0,0-.1-.413.484.484,0,0,0-.375-.182H41.65l-1.19,6.573h.668a.614.614,0,0,0,.6-.511l.261-1.47a2.115,2.115,0,0,0,.619.066c1.55,0,2.675-1.272,2.675-3.237C45.319,5.137,44.863,4.526,44.162,4.526ZM42.645,8.407a1.676,1.676,0,0,1-.457-.05l.049-.247c.343-1.668.914-2.511,1.452-2.511.277,0,.407.265.407.677C44.064,7.6,43.428,8.407,42.645,8.407ZM62.883,4.526c-1.663,0-2.821,1.338-2.821,3.286,0,.925.472,1.487,1.158,1.487.733,0,1.174-.545,1.516-1.206h.016c-.048.2-.081.446-.114.677a.355.355,0,0,0,.1.3.348.348,0,0,0,.277.132h.767a19.525,19.525,0,0,1,.277-2.329l.375-2.064A3.687,3.687,0,0,0,62.883,4.526ZM63.1,5.748c-.31,1.7-.9,2.51-1.386,2.51-.278,0-.408-.214-.408-.66,0-1.272.668-2.164,1.4-2.164a2.076,2.076,0,0,1,.423.05ZM58.5,7.4a1.826,1.826,0,0,0-.391-.561l1.973-2.18H59a.661.661,0,0,0-.49.231L57.126,6.508h-.244l.261-1.487a.277.277,0,0,0-.066-.247.308.308,0,0,0-.228-.116h-.864L55.2,9.2h.864a.405.405,0,0,0,.392-.331l.277-1.536h.13c.261,0,.424.281.7.892.327.71.49.975,1.061.975H59.1l.163-.909h-.1C58.953,8.291,58.773,8.011,58.5,7.4Zm-4.86-2.46C53.457,6.1,52.87,6.854,52.3,6.854c-.294,0-.391-.214-.31-.71l.147-.892a.536.536,0,0,0-.114-.412.484.484,0,0,0-.375-.182h-.6l-.277,1.536a3.641,3.641,0,0,0-.049.561c0,.76.359,1.173,1,1.173a1.9,1.9,0,0,0,1.647-1.107h.016c-.13.694-.309,1.718-.374,2.362h1.157c.017-.33.1-1.073.31-2.329l.391-2.213h-1.19Zm-5.349-.413A2.7,2.7,0,0,0,45.743,7.4a1.754,1.754,0,0,0,1.794,1.9,2.622,2.622,0,0,0,2.512-2.874A1.721,1.721,0,0,0,48.287,4.526Zm-.636,3.848c-.456,0-.684-.4-.684-.991,0-.842.472-1.916,1.223-1.916.456,0,.685.347.685.975C48.875,7.267,48.451,8.374,47.651,8.374Z" fill="#fff"/>
  </g>
</svg>
