<svg xmlns="http://www.w3.org/2000/svg" width="29.386mm" height="6.758mm" viewBox="0 0 83.299 19.156">
  <title>recordati</title>
  <g>
    <path d="M30.115,18.979c-.57,0-1.14,0-1.71,0-.1,0-.142-.073-.2-.129q-1.939-1.937-3.877-3.876c-.052-.052-.1-.107-.183-.2,0,.12-.011.19-.011.26,0,1.248,0,2.5,0,3.743,0,.165-.045.209-.205.2-.306-.013-.614-.011-.92,0-.143,0-.184-.036-.182-.18.008-.62,0-1.241,0-1.861q0-3.232,0-6.465c0-.173.032-.228.219-.227,1.4.009,2.8,0,4.194,0a2.847,2.847,0,0,1,.357,5.677c-.135.013-.271.02-.432.031l2.971,2.971Zm-4.307-4.235c.457,0,.913,0,1.37,0A1.785,1.785,0,0,0,27.6,14.7a1.64,1.64,0,0,0-.3-3.231c-1.009-.012-2.018,0-3.026-.01-.118,0-.147.035-.146.149q.006,1.493,0,2.985c0,.132.042.156.162.154C24.8,14.74,25.3,14.744,25.808,14.744Z" fill="#fff"/>
    <path d="M58.437,15.969l3,2.993c-.587,0-1.157,0-1.727,0-.1,0-.143-.066-.2-.122l-3.892-3.891c-.051-.051-.1-.1-.187-.177v.237c0,1.255,0,2.51,0,3.764,0,.15-.031.2-.188.192-.3-.015-.6-.013-.9,0-.153.006-.2-.028-.2-.2.009-1.029,0-2.059,0-3.089,0-1.739,0-3.478,0-5.217,0-.167.039-.215.211-.214,1.418.007,2.837,0,4.255,0a2.846,2.846,0,0,1,.54,5.64C58.934,15.936,58.717,15.934,58.437,15.969Zm-1.309-4.508c-.511,0-1.023,0-1.534,0-.138,0-.167.041-.167.172q.008,1.472,0,2.944c0,.128.026.174.166.173.975-.007,1.949,0,2.924-.007a1.639,1.639,0,1,0-.019-3.278C58.041,11.458,57.585,11.461,57.128,11.461Z" fill="#fff"/>
    <path d="M44.413,14.614a4.541,4.541,0,1,1,4.478,4.542A4.522,4.522,0,0,1,44.413,14.614Zm1.293,0a3.244,3.244,0,1,0,3.244-3.245A3.24,3.24,0,0,0,45.706,14.612Z" fill="#fff"/>
    <path d="M61.975,14.617c0-1.385,0-2.769,0-4.153,0-.169.043-.216.213-.214,1,.008,1.992,0,2.987,0a4.359,4.359,0,0,1,.962,8.594,3.641,3.641,0,0,1-.888.115c-1.03,0-2.059-.005-3.089,0-.164,0-.184-.055-.184-.2C61.977,17.385,61.975,16,61.975,14.617Zm1.3-.019c0,1,0,2,0,3.006,0,.134.035.169.167.167.532-.008,1.064-.01,1.6,0a3.153,3.153,0,0,0,.218-6.3c-.6-.016-1.2,0-1.8-.011-.166,0-.183.056-.182.2C63.279,12.634,63.277,13.616,63.277,14.6Z" fill="#fff"/>
    <path d="M43.985,16.223c.2.394.4.786.611,1.172a.152.152,0,0,1-.033.209,4.416,4.416,0,0,1-3.871,1.518,4.531,4.531,0,0,1-.377-8.968,4.437,4.437,0,0,1,4.227,1.44.2.2,0,0,1,.04.279c-.2.367-.394.743-.6,1.139a3.239,3.239,0,0,0-2.893-1.641,3.062,3.062,0,0,0-2.317,1.034,3.237,3.237,0,0,0,.238,4.653A3.281,3.281,0,0,0,43.985,16.223Z" fill="#fff"/>
    <path d="M72.875,10.239l4.413,8.723c-.485,0-.939,0-1.394,0-.092,0-.106-.065-.136-.124-.2-.4-.411-.8-.6-1.2a.294.294,0,0,0-.324-.193c-.941.007-1.882,0-2.823.007a.237.237,0,0,1-.261-.161c-.14-.322-.3-.638-.461-.991-.23.449-.443.866-.656,1.284s-.423.82-.626,1.234a.217.217,0,0,1-.228.148c-.428-.009-.857,0-1.314,0Zm0,2.955-1.547,3.038h3.122Z" fill="#fff"/>
    <path d="M31.978,14.089v.975c0,.839,0,1.678,0,2.516,0,.151.033.193.189.192,1.207-.007,2.414,0,3.621-.008.164,0,.2.045.2.2-.013.286-.008.573,0,.859,0,.106-.028.14-.136.14q-2.506-.006-5.012,0c-.155,0-.138-.079-.138-.176q0-1.687,0-3.375c0-1.65,0-3.3,0-4.95,0-.166.036-.216.209-.215q2.435.011,4.869,0c.171,0,.221.045.212.214-.014.272-.011.546,0,.818.006.144-.037.183-.181.182-1.2-.006-2.4,0-3.6-.007-.171,0-.231.027-.227.218.013.715.01,1.431,0,2.147,0,.158.043.189.193.188,1.2-.006,2.4,0,3.6-.007.167,0,.224.038.215.211-.015.285-.008.572,0,.859,0,.1-.028.143-.137.143q-1.288-.006-2.577,0a.273.273,0,0,1-.207-.108q-.516-.522-1.034-1.043Z" fill="#fff"/>
    <path d="M79.243,15.21c0,1.186,0,2.373,0,3.56,0,.165-.046.2-.2.2-.3-.012-.6-.014-.9,0-.17.008-.213-.04-.213-.211.006-2.353,0-4.706.01-7.059,0-.2-.045-.247-.242-.241-.566.015-1.132,0-1.7.008-.139,0-.171-.041-.167-.172q.014-.439,0-.879c0-.126.031-.162.159-.162q2.6.006,5.2,0c.119,0,.151.036.148.15-.007.294-.01.587,0,.88.005.14-.031.185-.178.183-.579-.009-1.159,0-1.739-.009-.161,0-.185.048-.184.193C79.246,12.836,79.243,14.023,79.243,15.21Z" fill="#fff"/>
    <path d="M82.026,14.605c0-1.384,0-2.768,0-4.152,0-.157.033-.211.2-.2.3.014.6.012.9,0,.147-.006.178.042.177.182,0,1.37,0,2.741,0,4.111,0,1.411,0,2.822,0,4.234,0,.152-.035.2-.189.188-.3-.013-.6-.013-.9,0-.155.008-.189-.037-.189-.189C82.029,17.386,82.026,16,82.026,14.605Z" fill="#fff"/>
    <polygon points="9.579 18.943 0 9.365 0 18.94 9.579 18.943" fill="#fff"/>
    <polygon points="11.525 18.834 0.238 7.547 0.238 0 19.221 18.982 11.525 18.834" fill="#fff"/>
    <polygon points="2.431 0 10.123 0 19.374 9.25 15.535 13.089 2.431 0" fill="#fff"/>
  </g>
</svg>
