<svg xmlns="http://www.w3.org/2000/svg" width="17.387mm" height="8.489mm" viewBox="0 0 49.286 24.062">
  <title>redbull</title>
  <g>
    <path d="M24.746,13.344a4.974,4.974,0,0,1,.975.079,5.82,5.82,0,0,1,1.769.739,6.318,6.318,0,0,1,1.32,1.213c.048.073.075.106.117.106a.348.348,0,0,0,.14-.054.77.77,0,0,1,.355-.077,1.523,1.523,0,0,1,.823.273,4.279,4.279,0,0,0,.784.336,3.654,3.654,0,0,1,.827.386c.39.3.5.348.721.349a1.651,1.651,0,0,1,.925.456,1.275,1.275,0,0,0,.909.346,2.255,2.255,0,0,1,1.136.521,1.925,1.925,0,0,0,1.051.449c.083.007.149.012.2.012a.327.327,0,0,0,.28-.112c.278-.278.1-.7-.476-1.145-.39-.3-.5-.47-.5-.8,0-.405.238-.639.76-.733a3.251,3.251,0,0,0,.636-.239,1.244,1.244,0,0,1,.379-.156c.046,0,.07.028.107.079a.9.9,0,0,1,0,.772,1,1,0,0,1-.678.476.614.614,0,0,0-.216.056,2.551,2.551,0,0,0,.281.281,1.372,1.372,0,0,1,.549,1.473,1.282,1.282,0,0,1-1.214.839,1.447,1.447,0,0,1-.2-.014l-.275-.042-.038.238c-.021.13-.069.359-.107.508-.061.239-.055.28.046.354a.77.77,0,0,0,.369.084.538.538,0,0,1,.555.444c.044.175.115.266.2.266a.218.218,0,0,0,.137-.065.374.374,0,0,1,.258-.113,1.022,1.022,0,0,1,.59.329,1.451,1.451,0,0,1,.5.692c.108.295.118.381.055.456a.641.641,0,0,1-.417.223.146.146,0,0,1-.073-.017.665.665,0,0,0-.255-.03c-.076,0-.161,0-.246.012l-.413.038-.233-.26c-.159-.177-.231-.234-.33-.234a.389.389,0,0,0-.078.009.437.437,0,0,1-.09.008,1.118,1.118,0,0,1-.668-.3c-.149-.125-.207-.153-.526-.153l-.245,0-.21,0a1.133,1.133,0,0,1-.677-.154,1.311,1.311,0,0,1-.676-.681.476.476,0,0,0-.27-.277,7.5,7.5,0,0,0-.92-.032,10.074,10.074,0,0,0-1.307.049c-.2.122.076.22.654.236.389.01.581.1.578.279a1.525,1.525,0,0,1-.169.408c-.122.223-.211.314-.322.33a.9.9,0,0,0-.376.262c-.19.206-.258.24-.48.24a2.729,2.729,0,0,1-.734-.181,4.338,4.338,0,0,0-.765-.219.55.55,0,0,1-.435-.222l-.144-.185-.274.347a5.6,5.6,0,0,1-2.734,1.753,6.619,6.619,0,0,1-1.476.156,4.428,4.428,0,0,1-.587-.033,5.38,5.38,0,0,1-3.316-1.849l-.292-.364-.139.177a.579.579,0,0,1-.461.222,4.043,4.043,0,0,0-.765.221,2.456,2.456,0,0,1-.7.177c-.225,0-.292-.034-.483-.24a.9.9,0,0,0-.372-.262q-.15-.021-.318-.3c-.311-.511-.2-.7.4-.718.579-.016.851-.114.655-.236a10.083,10.083,0,0,0-1.308-.049,7.5,7.5,0,0,0-.92.032.472.472,0,0,0-.269.277,1.31,1.31,0,0,1-.677.681,1.133,1.133,0,0,1-.677.154l-.21,0-.245,0c-.319,0-.377.028-.525.153a1.118,1.118,0,0,1-.668.3.447.447,0,0,1-.091-.008.381.381,0,0,0-.078-.009c-.1,0-.17.057-.329.234l-.234.26-.412-.038c-.086-.008-.171-.012-.247-.012a.669.669,0,0,0-.255.03.142.142,0,0,1-.072.017.643.643,0,0,1-.418-.223c-.063-.075-.052-.161.056-.456a1.438,1.438,0,0,1,.505-.692,1.017,1.017,0,0,1,.59-.329.376.376,0,0,1,.258.113.213.213,0,0,0,.136.065c.088,0,.16-.091.2-.266a.538.538,0,0,1,.555-.444.77.77,0,0,0,.369-.084c.1-.074.107-.115.046-.354-.038-.149-.086-.378-.107-.508l-.038-.238-.274.042a1.461,1.461,0,0,1-.2.014,1.282,1.282,0,0,1-1.213-.839,1.319,1.319,0,0,1,.516-1.441,3.772,3.772,0,0,0,.314-.314.662.662,0,0,0-.216-.055,1,1,0,0,1-.679-.476.908.908,0,0,1,0-.772c.037-.051.06-.079.106-.079a1.225,1.225,0,0,1,.379.156,3.251,3.251,0,0,0,.636.239c.522.094.764.328.76.733,0,.335-.11.507-.5.8-.577.441-.754.867-.475,1.145a.325.325,0,0,0,.279.112c.054,0,.119-.005.2-.012a1.921,1.921,0,0,0,1.051-.449,2.254,2.254,0,0,1,1.137-.521,1.273,1.273,0,0,0,.908-.346,1.651,1.651,0,0,1,.925-.456c.222,0,.332-.054.722-.349a3.612,3.612,0,0,1,.827-.386,4.3,4.3,0,0,0,.794-.343,1.548,1.548,0,0,1,.826-.259.868.868,0,0,1,.252.034l.232.073.323-.364a5.506,5.506,0,0,1,2.634-1.615,6.257,6.257,0,0,1,1.427-.141m0-.25a6.5,6.5,0,0,0-1.492.15,5.762,5.762,0,0,0-2.755,1.69l-.217.243-.077-.024a1.086,1.086,0,0,0-.327-.046,1.793,1.793,0,0,0-.967.3,4.087,4.087,0,0,1-.732.313,3.865,3.865,0,0,0-.9.423c-.377.286-.434.3-.572.3a1.877,1.877,0,0,0-1.09.52,1.03,1.03,0,0,1-.742.282,2.462,2.462,0,0,0-1.307.588,1.673,1.673,0,0,1-.9.383c-.074.006-.132.011-.18.011-.065,0-.065,0-.1-.038a.164.164,0,0,1-.055-.136c0-.061.052-.288.506-.635a1.16,1.16,0,0,0,.6-1c0-.535-.32-.865-.965-.982a3.053,3.053,0,0,1-.57-.218,1.23,1.23,0,0,0-.49-.181.373.373,0,0,0-.308.181,1.146,1.146,0,0,0-.017,1.035,1.232,1.232,0,0,0,.635.545l0,0a1.556,1.556,0,0,0-.581,1.707,1.529,1.529,0,0,0,1.449,1.006,1.554,1.554,0,0,0,.234-.017l.029,0c.023.138.072.371.111.523.01.04.017.072.023.1a.668.668,0,0,1-.2.03.788.788,0,0,0-.8.634l-.007.027a.511.511,0,0,0-.347-.129,1.2,1.2,0,0,0-.756.392,1.676,1.676,0,0,0-.574.793c-.1.268-.182.5-.013.7a.893.893,0,0,0,.61.313.389.389,0,0,0,.2-.052c-.008.005,0,.007.021.007l.106,0c.069,0,.146,0,.224.011l.413.038.125.011.083-.093.234-.26a.894.894,0,0,1,.157-.155.527.527,0,0,0,.155.021,1.361,1.361,0,0,0,.829-.359c.1-.087.112-.094.364-.094l.24,0,.215,0a1.362,1.362,0,0,0,.794-.183,1.553,1.553,0,0,0,.786-.8c.049-.1.1-.138.111-.142a7.786,7.786,0,0,1,.806-.023.4.4,0,0,0-.065.09.822.822,0,0,0,.149.793.756.756,0,0,0,.5.417.981.981,0,0,1,.224.183.755.755,0,0,0,.667.321,2.676,2.676,0,0,0,.8-.2,3.813,3.813,0,0,1,.706-.206.856.856,0,0,0,.566-.246l.1.12a5.668,5.668,0,0,0,3.477,1.94,4.626,4.626,0,0,0,.622.036,6.878,6.878,0,0,0,1.538-.164,5.824,5.824,0,0,0,2.869-1.84l.078-.1a.8.8,0,0,0,.546.252,4.21,4.21,0,0,1,.708.2,2.945,2.945,0,0,0,.823.2.76.76,0,0,0,.664-.321.836.836,0,0,1,.241-.186c.23-.032.374-.238.492-.455a1.614,1.614,0,0,0,.2-.524.426.426,0,0,0-.121-.318,7.229,7.229,0,0,1,.8.025.3.3,0,0,1,.1.14,1.551,1.551,0,0,0,.787.8,1.358,1.358,0,0,0,.793.183l.215,0,.24,0c.252,0,.261.007.364.094a1.361,1.361,0,0,0,.83.359.7.7,0,0,0,.139-.013c.031,0,.071.033.173.147l.233.26.084.093.125-.011.412-.038c.078-.007.155-.011.224-.011a1,1,0,0,1,.163.01.3.3,0,0,0,.165.037.893.893,0,0,0,.61-.313c.168-.2.084-.434-.013-.7a1.686,1.686,0,0,0-.575-.793,1.2,1.2,0,0,0-.755-.392.594.594,0,0,0-.351.117l0-.015a.788.788,0,0,0-.8-.634.713.713,0,0,1-.2-.029c.006-.025.013-.057.024-.1.038-.152.088-.385.11-.523l.03,0a1.552,1.552,0,0,0,1.682-.989,1.553,1.553,0,0,0-.582-1.709,1.236,1.236,0,0,0,.633-.545,1.143,1.143,0,0,0-.017-1.035.372.372,0,0,0-.308-.181,1.227,1.227,0,0,0-.489.181,3.057,3.057,0,0,1-.571.218c-.645.117-.97.447-.965.982a1.162,1.162,0,0,0,.6,1c.454.347.5.574.507.635a.165.165,0,0,1-.056.136c-.038.038-.038.038-.1.038-.047,0-.106-.005-.18-.011a1.666,1.666,0,0,1-.9-.383,2.469,2.469,0,0,0-1.307-.588,1.031,1.031,0,0,1-.743-.282,1.875,1.875,0,0,0-1.089-.52c-.139,0-.2-.013-.572-.3a3.9,3.9,0,0,0-.9-.423,4.3,4.3,0,0,1-.723-.306,1.771,1.771,0,0,0-.963-.316,1.017,1.017,0,0,0-.438.09,6.82,6.82,0,0,0-1.357-1.237,6.072,6.072,0,0,0-1.852-.774,5.125,5.125,0,0,0-1.029-.085Z" fill="#fff"/>
    <path d="M11.283,22.431c-.149-.094-.023-.433.213-.573.116-.068.21-.147.21-.176a.95.95,0,0,1,.278-.244,1.363,1.363,0,0,0,.429-.489c.144-.285.166-.3.465-.342a1.009,1.009,0,0,0,.478-.184c.149-.128.156-.155.085-.31a2.843,2.843,0,0,1-.131-.6,3.136,3.136,0,0,0-.076-.45,1.452,1.452,0,0,0-.359.023c-.666.088-1.033-.068-1.277-.546-.263-.514-.135-.879.515-1.465.474-.428.483-.533.053-.582a.844.844,0,0,1-.729-.5c-.092-.183-.1-.263-.049-.378l.066-.146.29.162a2.171,2.171,0,0,0,.6.211c.733.116.944.678.422,1.123-.648.552-.82.749-.856.977-.083.516.247.827.815.768a1.875,1.875,0,0,0,1.056-.488,2.746,2.746,0,0,1,1.226-.54,1.562,1.562,0,0,0,.948-.4,1.254,1.254,0,0,1,.873-.406.936.936,0,0,0,.634-.3,1.63,1.63,0,0,1,.709-.378,6.166,6.166,0,0,0,.9-.374,1.279,1.279,0,0,1,1.219-.149,9.9,9.9,0,0,1,1.737,1.427c.13.163.327.4.436.525a2.1,2.1,0,0,1,.519,1.152,4.391,4.391,0,0,0,.519,1.584,1.793,1.793,0,0,1,.243.368,1.293,1.293,0,0,0,.353.4c.2.143.228.19.149.22a.553.553,0,0,1-.554-.2c-.379-.456-.552-.637-.58-.609s0,.072.046.122a1.323,1.323,0,0,1,.152.356.69.69,0,0,0,.36.449c.334.217.358.277.11.277a1.142,1.142,0,0,1-.729-.321c-.24-.2-.276-.208-.494-.055a1.312,1.312,0,0,1-.628.15,2.719,2.719,0,0,0-.692.129c-.289.123-.444.123-.567,0a.448.448,0,0,1,0-.552c.094-.145.093-.152-.029-.152-.155,0-.123-.137.085-.37a1.909,1.909,0,0,0,.239-.354l.1-.2h-.247a2.43,2.43,0,0,0-.523.074.642.642,0,0,1-.317.033c-.023-.023.007-.143.066-.268.136-.285.205-.739.1-.676a.241.241,0,0,0-.071.185.953.953,0,0,1-.185.4c-.147.2-.224.256-.371.256-.207,0-.3.139-.2.3.352.58.413.753.348,1-.072.27-.016.315.131.106s.117-.421-.089-.808a2.983,2.983,0,0,1-.185-.382c0-.02.075-.028.167-.017.251.029.541.488.541.856a.762.762,0,0,1-.571.772c-.126.024-.463.122-.749.218-.7.235-.808.229-1.055-.055a1,1,0,0,0-.322-.263c-.127-.033-.52-.53-.464-.586a1.313,1.313,0,0,1,.342-.069c.335-.04.3-.059.7.425.133.161.24.231.354.231a.9.9,0,0,0,.6-.336c.056-.145-.148-.418-.507-.678a2.126,2.126,0,0,1-.473-.462l-.136-.218-.031.215-.031.216-.308-.016c-.169-.01-.64-.027-1.047-.039s-.775-.026-.819-.03c-.141-.013-.274-.434-.23-.727.024-.157.016-.266-.019-.266s-.079.166-.1.369c-.1.844-.475,1.182-1.448,1.3a5.017,5.017,0,0,0-.838.161c-.255.092-.579.346-.579.454,0,.086.068.072.147-.029a1.6,1.6,0,0,1,.37-.247,1.382,1.382,0,0,1,.794-.158,1.473,1.473,0,0,0,1.317-.472c.234-.238.334-.3.378-.249.077.094-.212.65-.388.746-.067.037-.206.123-.308.191-.158.105-.271.121-.788.107l-.6-.016-.283.216a.779.779,0,0,1-.6.216.534.534,0,0,0-.538.247c-.178.2-.269.246-.433.245A.688.688,0,0,1,11.283,22.431Zm10.807-1.45c.093-.069.1-.105.046-.163s-.108-.053-.233.029c-.156.1-.161.222-.009.222A.439.439,0,0,0,22.09,20.981Zm.582-1.348c0-.219-.33-.72-.474-.72-.043,0-.135.111-.2.247-.132.259-.111.309.065.151.095-.086.122-.08.3.067a.474.474,0,0,1,.193.311c0,.081.027.148.061.148S22.672,19.745,22.672,19.633Zm-2.405-2.209c-.064-.23-.216-.408-.288-.336-.023.023.027.177.109.344C20.256,17.77,20.361,17.766,20.267,17.424ZM37.279,22.24a.533.533,0,0,0-.538-.247.781.781,0,0,1-.6-.216l-.283-.216-.6.016c-.518.014-.63,0-.789-.107-.1-.068-.24-.154-.308-.191-.175-.1-.464-.652-.388-.746.044-.055.144.011.378.249a1.469,1.469,0,0,0,1.307.472,1.517,1.517,0,0,1,1.122.37c.147.136.2.153.2.064,0-.108-.324-.362-.58-.454a4.981,4.981,0,0,0-.829-.161c-1.026-.124-1.346-.412-1.457-1.313-.024-.2-.07-.354-.1-.354s-.042.112-.019.266c.044.293-.089.714-.229.727-.044,0-.413.017-.82.03s-.877.029-1.047.039l-.308.016-.031-.216-.031-.215-.135.218a2.171,2.171,0,0,1-.473.462c-.36.26-.564.533-.508.678a.9.9,0,0,0,.6.336c.114,0,.22-.07.353-.231.4-.484.367-.465.7-.425a1.3,1.3,0,0,1,.342.069c.056.056-.337.553-.464.586a1,1,0,0,0-.321.263c-.248.284-.361.29-1.055.055-.286-.1-.624-.194-.75-.218a.763.763,0,0,1-.571-.772c0-.368.29-.827.541-.856.092-.011.167,0,.167.017a3.061,3.061,0,0,1-.184.382c-.207.387-.231.606-.089.808s.2.163.128-.112a.46.46,0,0,1,0-.354,2.072,2.072,0,0,0,.373-.841c-.022-.058-.111-.1-.223-.1-.148,0-.225-.053-.372-.256a.953.953,0,0,1-.185-.4.241.241,0,0,0-.071-.185c-.1-.063-.033.391.1.676.059.125.089.245.067.268a.641.641,0,0,1-.317-.033,2.438,2.438,0,0,0-.524-.074h-.247l.1.2a1.959,1.959,0,0,0,.239.354c.209.233.24.37.086.37-.123,0-.124.007-.029.152a.449.449,0,0,1,0,.552c-.122.123-.277.123-.567,0a2.719,2.719,0,0,0-.691-.129,1.313,1.313,0,0,1-.629-.15c-.218-.153-.253-.149-.493.055a1.142,1.142,0,0,1-.729.321c-.249,0-.225-.06.109-.277a.69.69,0,0,0,.36-.449,1.318,1.318,0,0,1,.153-.356c.042-.05.062-.105.045-.122s-.2.153-.58.609a.553.553,0,0,1-.554.2c-.079-.03-.047-.077.15-.22a1.289,1.289,0,0,0,.352-.4,1.756,1.756,0,0,1,.244-.368,4.431,4.431,0,0,0,.519-1.584,2.087,2.087,0,0,1,.518-1.152c.11-.126.306-.362.436-.525a9.865,9.865,0,0,1,1.738-1.427,1.277,1.277,0,0,1,1.218.149,6.166,6.166,0,0,0,.9.374,1.63,1.63,0,0,1,.709.378.936.936,0,0,0,.633.3,1.329,1.329,0,0,1,.9.426,1.78,1.78,0,0,0,1.019.405,2.527,2.527,0,0,1,1.14.521,1.86,1.86,0,0,0,1.046.48c.567.059.9-.252.815-.768-.037-.228-.209-.425-.856-.977-.523-.445-.312-1.007.421-1.123a2.171,2.171,0,0,0,.6-.211l.29-.162.067.146c.052.115.042.2-.049.378a.846.846,0,0,1-.73.5c-.43.049-.42.154.054.582.649.586.777.951.514,1.465-.244.478-.611.634-1.276.546a1.46,1.46,0,0,0-.36-.023,3.136,3.136,0,0,0-.076.45,2.78,2.78,0,0,1-.131.6c-.071.155-.063.182.086.31a1,1,0,0,0,.477.184c.3.041.321.057.465.342a1.357,1.357,0,0,0,.43.489.954.954,0,0,1,.277.244c0,.029.095.108.21.176a.489.489,0,0,1,.253.322c.051.234-.024.3-.331.3C37.548,22.486,37.457,22.435,37.279,22.24Zm-9.773-1.23c.02-.032-.035-.105-.123-.163-.124-.082-.175-.088-.233-.029s-.047.094.046.163C27.335,21.083,27.454,21.1,27.506,21.01Zm-.768-1.321a.476.476,0,0,1,.192-.311c.175-.147.2-.153.3-.067q.262.237.064-.151c-.069-.136-.161-.247-.2-.247-.144,0-.474.5-.474.72,0,.112.027.2.061.2S26.738,19.77,26.738,19.689Zm2.57-2.6c-.072-.072-.225.1-.287.331-.1.349,0,.361.17.022C29.278,17.271,29.331,17.112,29.308,17.089ZM10.736,22.374c-.061-.039-.06-.105,0-.322s.1-.274.23-.274.149.027.136.154c-.024.228-.144.493-.223.492A.344.344,0,0,1,10.736,22.374Zm27.53-.119a1.378,1.378,0,0,1-.084-.323c-.013-.127.01-.154.135-.154s.165.045.231.274.063.283,0,.322C38.414,22.461,38.336,22.428,38.266,22.255Zm-.528-.759c-.221-.194-.238-.3-.046-.3.14,0,.381.21.381.327C38.073,21.7,37.958,21.689,37.738,21.5Zm-26.514,0a.426.426,0,0,1,.453-.28c.1.038.092.06-.065.225C11.4,21.658,11.2,21.688,11.224,21.5Zm7.032-.165c-.058-.127-.117-.253-.131-.281s.108-.041.27-.031c.268.018.3.036.343.2.058.217-.027.342-.231.342C18.4,21.562,18.334,21.5,18.256,21.331Zm12.311.15a.314.314,0,0,1-.019-.261c.044-.165.075-.183.343-.2.162-.01.284,0,.27.031s-.072.154-.13.281c-.079.172-.143.231-.251.231A.311.311,0,0,1,30.567,21.481Zm7.66-9.9a3.23,3.23,0,0,1-2.509-1.594l-.2-.409L35.5,7.225l-.017-2.358h2.1V6.855c0,1.973,0,1.989.147,2.264a1.286,1.286,0,0,0,1.994.347c.432-.379.444-.451.446-2.643V4.867h2.1l-.018,2.356L42.232,9.58l-.17.346a3.193,3.193,0,0,1-2.911,1.69A6.3,6.3,0,0,1,38.227,11.586Zm-27.538-.228A3.747,3.747,0,0,1,7.792,8.6a3.8,3.8,0,0,1,.061-1.755A3.4,3.4,0,0,1,10.412,4.4a5.075,5.075,0,0,1,2.218.1A2.993,2.993,0,0,1,14.444,6.1a4.263,4.263,0,0,1,.33,1.727l-.019.455L12.368,8.3l-2.387.016v.169a1.482,1.482,0,0,0,1.734,1.189,1.553,1.553,0,0,0,.942-.5l.216-.239.861.379.861.379-.105.185a3.318,3.318,0,0,1-1.9,1.362A7.975,7.975,0,0,1,10.689,11.358ZM12.63,6.867a1.366,1.366,0,0,0-.961-1.078A1.339,1.339,0,0,0,10,6.8l-.036.224H12.63Zm5.729,4.418a3.387,3.387,0,0,1-1.453-.9,3.1,3.1,0,0,1-.916-1.713,3.322,3.322,0,0,1,.859-3.225,2.9,2.9,0,0,1,2.427-1,2.916,2.916,0,0,1,1.669.529,1.172,1.172,0,0,0,.4.21c.019-.019.034-1.007.034-2.2S21.4.645,21.418.416L21.457,0h2.016V11.212H21.316v-.339c0-.368-.041-.407-.221-.209A3.227,3.227,0,0,1,18.359,11.285ZM20.44,9.39a1.741,1.741,0,0,0,.021-3.057,1.619,1.619,0,0,0-2.2,2A1.553,1.553,0,0,0,20.44,9.39ZM43.51,5.745,43.525.154,44.557.137,45.589.12V11.336H43.494Zm3.681-.016V.123h2.095V11.336H47.191Zm-18.312,5.5-2.264-.017V.606L29,.631a11.692,11.692,0,0,1,2.726.135,2.543,2.543,0,0,1,1.889,1.87,2.172,2.172,0,0,1,.131.962,2.5,2.5,0,0,1-.656,1.514,1.713,1.713,0,0,0-.254.3,1.379,1.379,0,0,0,.319.221A3.585,3.585,0,0,1,34.454,7a1.654,1.654,0,0,1,.2.978,3.217,3.217,0,0,1-.381,1.649,2.97,2.97,0,0,1-2.009,1.489A15.034,15.034,0,0,1,28.879,11.228ZM31.56,9.281a1.4,1.4,0,0,0,.672-.713,1.97,1.97,0,0,0-.026-1.144,1.594,1.594,0,0,0-.644-.609,5.694,5.694,0,0,0-1.724-.207l-.266.03V4.823l.446-.038a1.816,1.816,0,0,0,1.221-.446c.187-.193.21-.256.232-.634a1.048,1.048,0,0,0-.465-1.065c-.215-.134-.311-.147-1.234-.167l-1-.021V9.364h1.3A5.948,5.948,0,0,0,31.56,9.281ZM5.024,10.92c-.1-.161-.62-.982-1.155-1.825L2.9,7.562V5.122l.354-.037a3.455,3.455,0,0,0,1.233-.353,1.346,1.346,0,0,0,.061-2.061,2.216,2.216,0,0,0-1.617-.419l-.739,0-.016,4.42-.016,4.42H0L.016,5.806.031.524,2.219.505A21.074,21.074,0,0,1,4.744.557a3.157,3.157,0,0,1,2.148,1.72A2.793,2.793,0,0,1,5.865,6.121a5.853,5.853,0,0,1-.78.427,1.339,1.339,0,0,0-.384.207c-.009.029.677,1.023,1.523,2.209s1.539,2.177,1.539,2.2a8.846,8.846,0,0,1-1.278.046H5.206Z" fill="#fff"/>
  </g>
</svg>
