<svg xmlns="http://www.w3.org/2000/svg" width="10.847mm" height="13.086mm" viewBox="0 0 30.748 37.094">
  <title>taif</title>
  <g>
    <g>
      <path d="M15.361,13.045c.162-.082.176-.393.094-.555a9.418,9.418,0,0,0-.771-.975,1,1,0,0,0-.041-.338,4.268,4.268,0,0,0-1.61-1.57,1.628,1.628,0,0,0-.433-.068,2.056,2.056,0,0,1-.582-.46c-.135-.149-.2-.176-.311-.122-.136.055-.176.231-.217.515A17.4,17.4,0,0,1,9.663,7.536a1.246,1.246,0,0,0-.271.948c.149.487.339.338.42.852-.081.149-.338,0-.744-.6a1.621,1.621,0,0,0-.109,1.191,1.294,1.294,0,0,0,.366.568.787.787,0,0,0-.149.163l-.284-.244a1.261,1.261,0,0,0-.23.839c-.082.176-.149.339-.231.514a3.7,3.7,0,0,1-.974-1.082c-.677-1.1-.771-2.883-1.922-3.6-.189-.122-.3.054-.162.2.92,1.123.934,3.031,1.434,3.925a9.846,9.846,0,0,0,1.327,1.448c-.027.081-.027.243-.054.338a2.873,2.873,0,0,0-1.652-.92c-.338-.054-.527.081-.216.189a2.371,2.371,0,0,1,1.61,1.841C7.85,15.278,6.794,15.86,6.645,17c-.162,1.286.406,2.464.257,3.7a15.79,15.79,0,0,1-1.083,3.37c-.148.433-.974,2.314-1.028,2.463-.365,1-1.029.311-1.759.569a1.008,1.008,0,0,0-.664,1.136c0,.19.176.3.569.3h2.49a1.673,1.673,0,0,0,.663-.609,7.2,7.2,0,0,0,.961-1.84c-.081.825,1,1.448,1.665,1.448.352,0,.7-.055.839-.7.054-.257-.041-.69-.352-.663s-.393-.826-.027-1.259c.758-.88,2.977-1.57,3.965-2.355a1.646,1.646,0,0,0,.528-.92c2.125.122,3.871-1.408,4.615-.65a17.943,17.943,0,0,0,2.044,2.112c.7.392,3.112,1.651,3.464,2.287.338.609.8,2.125-.3,1.989a1.5,1.5,0,0,0-1.082.027c-.474.217-.515.528-.46,1.164h3.6a3.8,3.8,0,0,0,.744-1.786,3.493,3.493,0,0,0,2.531,1.786c.839,0,1.543-.067,1.813-1,.068-.23.19-.65.027-.8a.747.747,0,0,0-1.164.068c-.243.433-.433,1.042-1.123.487-1.367-1.11-1.841-2.9-2.328-4.71a32.844,32.844,0,0,0-.812-3.64,3.274,3.274,0,0,0-3.112-2.125,4.895,4.895,0,0,0-3.289-1.286c-.095-.013-.068-.216.135-.216a20.724,20.724,0,0,0,2.1.189c.23-.135.65-.568.6-.906a3.966,3.966,0,0,1-1.678.2c-.392,0-.379-.258-.013-.366.527-.081,1.651.068,1.989-.419.271-.393.514-.988.284-1.273a3.175,3.175,0,0,1-2.111.812c-.325.055-.338-.27-.108-.392.392-.19,1.57-.176,2.111-.88a1.726,1.726,0,0,0,.379-1.732,4.829,4.829,0,0,1-2.368,1.394c-.664.271-.664-.217-.19-.406.893-.365,1.827-.623,2.274-1.448a1.6,1.6,0,0,0,0-1.2,4.265,4.265,0,0,1-1.922,1.584c-.474.189-.46-.176-.081-.393.622-.365,1.448-.676,1.543-1.732a4.758,4.758,0,0,0-.014-1.1,14.01,14.01,0,0,1-3.045,2.585c-2.517,1.881-2,4.019-3.938,5.183-.731-.135-.528-.7-.163-.866a1.182,1.182,0,0,0,.745-1.123Zm7,4.75a4.547,4.547,0,0,1,.338.731c.582,1.922.568,3.6,1.218,4.818a13.678,13.678,0,0,1-3.952-1.854c-.595-.433-1.326-2.206-2.3-2.03-.812.148-2.179.649-2.991.365-.473-.162-.541-.88-.744-1.177-.081-.136-.162-.163-.23.04-.3.92-.379,2.328-1.015,3.072-.866,1.029-4.087,2.6-4.723,3.654a1.814,1.814,0,0,0,.379,1.76,1.51,1.51,0,0,1-.758-2c.677-1.448,2.016-2.558,2.9-3.776a2.319,2.319,0,0,0,0-1.7c-.041-.1-.108-.149-.122-.014a3.347,3.347,0,0,1-.108,1.083.9.9,0,0,1-.352.176,1.578,1.578,0,0,1-1.543-.393c-.108-.081-.216-.081-.122.095a2.617,2.617,0,0,0,1.015.771,1.743,1.743,0,0,1-.054.23C8.878,22.694,7.159,24.426,6.4,25.7a7.966,7.966,0,0,1-1.772,2.124c-.217.122-.758-.013-1.164-.054a1.016,1.016,0,0,0-.691.19c.1-.217.136-.352.285-.447A1.44,1.44,0,0,1,4.1,27.444c.636.176,1.082-1.177,1.326-1.786.663-1.583,1.786-3.37,1.841-5.129.04-1.327-.312-1.936-.3-3.086.013-1.028.771-1.638,1.055-2.585a4.414,4.414,0,0,0,.136-.717A4.669,4.669,0,0,1,9.88,10.406a.847.847,0,0,0,.189.216c.027.027.068,0,.054-.027-.027-.135-.067-.284-.095-.447a.97.97,0,0,1,.339-1.123.2.2,0,0,1,.284,0c.365.352.392.541.88.8a3.219,3.219,0,0,1,1.367.054,4.161,4.161,0,0,1,1.448,1.38.534.534,0,0,1,.04.339c.163.243.69.663.772.96a.348.348,0,0,1-.122.379c.081.6-.433.7-.839.921-.136.406-.731.541-.92.27-.352-.527-.907-.8-1.408-.311-.88.839.244,1.976,1.083,1.719a6.886,6.886,0,0,1,1.624-.217.9.9,0,0,0-.217.988c.136.312.907.3.907.3.582.027,1.813-.379,2.612-.3-.122-.284.054-.392.244-.528a4.921,4.921,0,0,1,3.924,1.5,3.072,3.072,0,0,1,3.018,1.962c.041.108-.081.135-.149.041-.23-.379-1.624-1.3-2.111-1.151L22.4,17.8c-.067-.054-.081-.1-.04,0Zm.839,1.069c1.57.433,1.678,3.532,2,4.791-.217-.135-.718-.365-.718-.365-.595-.718-.933-3.221-1.285-4.426ZM22.141,6.941A7.242,7.242,0,0,0,24.293,2.57c.162-.731.271-1.949.3-2.139.027-.311.311-.257.338.406a10.274,10.274,0,0,1-2.8,7.647c.162-.65.257-1.272.013-1.543Zm.433,1.665a10.531,10.531,0,0,0,2.45-5.1c.379-1.7.934-3.112,1.7-3.451.271-.121.352-.027.1.244a3.338,3.338,0,0,0-.894,1.692,18.088,18.088,0,0,1-1.894,6.13,13.025,13.025,0,0,1-1.381,1.909,1.9,1.9,0,0,0-.081-1.421Zm.23,1.759A9.769,9.769,0,0,0,24.78,7.388c.433-.988,1-3.086,2-3.519.42-.176.338.081.122.3a9.992,9.992,0,0,0-1.611,3.424,8.822,8.822,0,0,1-2.517,4.276,1.456,1.456,0,0,0,.027-1.5Zm-.189,2.179c2.1-1.787,1.854-2.612,2.8-4.128a3.512,3.512,0,0,1,1.123-1.191c.271-.162.176.135.095.23-1.353,1.611-1.488,3.113-2.03,3.993a8.2,8.2,0,0,1-2.165,2.395,1.609,1.609,0,0,0,.176-1.3ZM22.1,14.506a6.938,6.938,0,0,0,2.721-2.192,1.339,1.339,0,0,1,.7-.379c.2-.041.325-.014.231.068a17.523,17.523,0,0,0-1.394,1.637c-1.029,1.232-1.273,1.787-2.856,1.908.731-.6.487-.961.6-1.042ZM8.4,11.326c-.933-.609-1.6-2.707-2-4.141A12.153,12.153,0,0,0,4.94,3.95c-.041-.162.067-.325.189-.23A6.806,6.806,0,0,1,6.9,6.819a6.625,6.625,0,0,0,1.8,3.329,1.334,1.334,0,0,0-.3,1.178Zm.3-1.543a6.666,6.666,0,0,1-1.38-2.544,29.8,29.8,0,0,1-.853-3.248A12.075,12.075,0,0,0,5.2.215c-.122-.2,0-.23.23-.041C6.239.891,6.672,2.6,7.01,3.909A13.324,13.324,0,0,0,8.851,8.443,1.514,1.514,0,0,0,8.7,9.783Zm.406-1.5A14.606,14.606,0,0,1,7.065.959c0-.419.27-.528.3-.095A18.051,18.051,0,0,0,9.528,7.252a1.035,1.035,0,0,0-.42,1.029Zm4.1,3.085.122-.04.555.108.2.244-.163.122s.244.622.176.527c-.081-.135-.893-.961-.893-.961Zm12.356,12.79a1.87,1.87,0,0,1,.555.5,1.793,1.793,0,0,1,.108,1.625A3.745,3.745,0,0,0,25.565,24.156Z" fill="#fff" fill-rule="evenodd"/>
      <path d="M15.361,13.045c.162-.082.176-.393.094-.555a9.418,9.418,0,0,0-.771-.975,1,1,0,0,0-.041-.338,4.268,4.268,0,0,0-1.61-1.57,1.628,1.628,0,0,0-.433-.068,2.056,2.056,0,0,1-.582-.46c-.135-.149-.2-.176-.311-.122-.136.055-.176.231-.217.515A17.4,17.4,0,0,1,9.663,7.536a1.246,1.246,0,0,0-.271.948c.149.487.339.338.42.852-.081.149-.338,0-.744-.6a1.621,1.621,0,0,0-.109,1.191,1.294,1.294,0,0,0,.366.568.787.787,0,0,0-.149.163l-.284-.244a1.261,1.261,0,0,0-.23.839c-.082.176-.149.339-.231.514a3.7,3.7,0,0,1-.974-1.082c-.677-1.1-.771-2.883-1.922-3.6-.189-.122-.3.054-.162.2.92,1.123.934,3.031,1.434,3.925a9.846,9.846,0,0,0,1.327,1.448c-.027.081-.027.243-.054.338a2.873,2.873,0,0,0-1.652-.92c-.338-.054-.527.081-.216.189a2.371,2.371,0,0,1,1.61,1.841C7.85,15.278,6.794,15.86,6.645,17c-.162,1.286.406,2.464.257,3.7a15.79,15.79,0,0,1-1.083,3.37c-.148.433-.974,2.314-1.028,2.463-.365,1-1.029.311-1.759.569a1.008,1.008,0,0,0-.664,1.136c0,.19.176.3.569.3h2.49a1.673,1.673,0,0,0,.663-.609,7.2,7.2,0,0,0,.961-1.84c-.081.825,1,1.448,1.665,1.448.352,0,.7-.055.839-.7.054-.257-.041-.69-.352-.663s-.393-.826-.027-1.259c.758-.88,2.977-1.57,3.965-2.355a1.646,1.646,0,0,0,.528-.92c2.125.122,3.871-1.408,4.615-.65a17.943,17.943,0,0,0,2.044,2.112c.7.392,3.112,1.651,3.464,2.287.338.609.8,2.125-.3,1.989a1.5,1.5,0,0,0-1.082.027c-.474.217-.515.528-.46,1.164h3.6a3.8,3.8,0,0,0,.744-1.786,3.493,3.493,0,0,0,2.531,1.786c.839,0,1.543-.067,1.813-1,.068-.23.19-.65.027-.8a.747.747,0,0,0-1.164.068c-.243.433-.433,1.042-1.123.487-1.367-1.11-1.841-2.9-2.328-4.71a32.844,32.844,0,0,0-.812-3.64,3.274,3.274,0,0,0-3.112-2.125,4.895,4.895,0,0,0-3.289-1.286c-.095-.013-.068-.216.135-.216a20.724,20.724,0,0,0,2.1.189c.23-.135.65-.568.6-.906a3.966,3.966,0,0,1-1.678.2c-.392,0-.379-.258-.013-.366.527-.081,1.651.068,1.989-.419.271-.393.514-.988.284-1.273a3.175,3.175,0,0,1-2.111.812c-.325.055-.338-.27-.108-.392.392-.19,1.57-.176,2.111-.88a1.726,1.726,0,0,0,.379-1.732,4.829,4.829,0,0,1-2.368,1.394c-.664.271-.664-.217-.19-.406.893-.365,1.827-.623,2.274-1.448a1.6,1.6,0,0,0,0-1.2,4.265,4.265,0,0,1-1.922,1.584c-.474.189-.46-.176-.081-.393.622-.365,1.448-.676,1.543-1.732a4.758,4.758,0,0,0-.014-1.1,14.01,14.01,0,0,1-3.045,2.585c-2.517,1.881-2,4.019-3.938,5.183-.731-.135-.528-.7-.163-.866a1.182,1.182,0,0,0,.745-1.123Zm7,4.75a4.547,4.547,0,0,1,.338.731c.582,1.922.568,3.6,1.218,4.818a13.678,13.678,0,0,1-3.952-1.854c-.595-.433-1.326-2.206-2.3-2.03-.812.148-2.179.649-2.991.365-.473-.162-.541-.88-.744-1.177-.081-.136-.162-.163-.23.04-.3.92-.379,2.328-1.015,3.072-.866,1.029-4.087,2.6-4.723,3.654a1.814,1.814,0,0,0,.379,1.76,1.51,1.51,0,0,1-.758-2c.677-1.448,2.016-2.558,2.9-3.776a2.319,2.319,0,0,0,0-1.7c-.041-.1-.108-.149-.122-.014a3.347,3.347,0,0,1-.108,1.083.9.9,0,0,1-.352.176,1.578,1.578,0,0,1-1.543-.393c-.108-.081-.216-.081-.122.095a2.617,2.617,0,0,0,1.015.771,1.743,1.743,0,0,1-.054.23C8.878,22.694,7.159,24.426,6.4,25.7a7.966,7.966,0,0,1-1.772,2.124c-.217.122-.758-.013-1.164-.054a1.016,1.016,0,0,0-.691.19c.1-.217.136-.352.285-.447A1.44,1.44,0,0,1,4.1,27.444c.636.176,1.082-1.177,1.326-1.786.663-1.583,1.786-3.37,1.841-5.129.04-1.327-.312-1.936-.3-3.086.013-1.028.771-1.638,1.055-2.585a4.414,4.414,0,0,0,.136-.717A4.669,4.669,0,0,1,9.88,10.406a.847.847,0,0,0,.189.216c.027.027.068,0,.054-.027-.027-.135-.067-.284-.095-.447a.97.97,0,0,1,.339-1.123.2.2,0,0,1,.284,0c.365.352.392.541.88.8a3.219,3.219,0,0,1,1.367.054,4.161,4.161,0,0,1,1.448,1.38.534.534,0,0,1,.04.339c.163.243.69.663.772.96a.348.348,0,0,1-.122.379c.081.6-.433.7-.839.921-.136.406-.731.541-.92.27-.352-.527-.907-.8-1.408-.311-.88.839.244,1.976,1.083,1.719a6.886,6.886,0,0,1,1.624-.217.9.9,0,0,0-.217.988c.136.312.907.3.907.3.582.027,1.813-.379,2.612-.3-.122-.284.054-.392.244-.528a4.921,4.921,0,0,1,3.924,1.5,3.072,3.072,0,0,1,3.018,1.962c.041.108-.081.135-.149.041-.23-.379-1.624-1.3-2.111-1.151L22.4,17.8c-.067-.054-.081-.1-.04,0Zm.839,1.069c1.57.433,1.678,3.532,2,4.791-.217-.135-.718-.365-.718-.365-.595-.718-.933-3.221-1.285-4.426ZM22.141,6.941A7.242,7.242,0,0,0,24.293,2.57c.162-.731.271-1.949.3-2.139.027-.311.311-.257.338.406a10.274,10.274,0,0,1-2.8,7.647c.162-.65.257-1.272.013-1.543Zm.433,1.665a10.531,10.531,0,0,0,2.45-5.1c.379-1.7.934-3.112,1.7-3.451.271-.121.352-.027.1.244a3.338,3.338,0,0,0-.894,1.692,18.088,18.088,0,0,1-1.894,6.13,13.025,13.025,0,0,1-1.381,1.909,1.9,1.9,0,0,0-.081-1.421Zm.23,1.759A9.769,9.769,0,0,0,24.78,7.388c.433-.988,1-3.086,2-3.519.42-.176.338.081.122.3a9.992,9.992,0,0,0-1.611,3.424,8.822,8.822,0,0,1-2.517,4.276,1.456,1.456,0,0,0,.027-1.5Zm-.189,2.179c2.1-1.787,1.854-2.612,2.8-4.128a3.512,3.512,0,0,1,1.123-1.191c.271-.162.176.135.095.23-1.353,1.611-1.488,3.113-2.03,3.993a8.2,8.2,0,0,1-2.165,2.395,1.609,1.609,0,0,0,.176-1.3ZM22.1,14.506a6.938,6.938,0,0,0,2.721-2.192,1.339,1.339,0,0,1,.7-.379c.2-.041.325-.014.231.068a17.523,17.523,0,0,0-1.394,1.637c-1.029,1.232-1.273,1.787-2.856,1.908.731-.6.487-.961.6-1.042ZM8.4,11.326c-.933-.609-1.6-2.707-2-4.141A12.153,12.153,0,0,0,4.94,3.95c-.041-.162.067-.325.189-.23A6.806,6.806,0,0,1,6.9,6.819a6.625,6.625,0,0,0,1.8,3.329,1.334,1.334,0,0,0-.3,1.178Zm.3-1.543a6.666,6.666,0,0,1-1.38-2.544,29.8,29.8,0,0,1-.853-3.248A12.075,12.075,0,0,0,5.2.215c-.122-.2,0-.23.23-.041C6.239.891,6.672,2.6,7.01,3.909A13.324,13.324,0,0,0,8.851,8.443,1.514,1.514,0,0,0,8.7,9.783Zm.406-1.5A14.606,14.606,0,0,1,7.065.959c0-.419.27-.528.3-.095A18.051,18.051,0,0,0,9.528,7.252a1.035,1.035,0,0,0-.42,1.029Zm4.1,3.085.122-.04.555.108.2.244-.163.122s.244.622.176.527c-.081-.135-.893-.961-.893-.961Zm12.356,12.79a1.87,1.87,0,0,1,.555.5,1.793,1.793,0,0,1,.108,1.625A3.745,3.745,0,0,0,25.565,24.156Z" fill="#fff" fill-rule="evenodd"/>
    </g>
    <path d="M27.5,35.335a.814.814,0,0,0,.447-.691V32.953a.809.809,0,0,0-.447-.7v-.663h.555a1.846,1.846,0,0,1,1.922,1.746v1.123A1.846,1.846,0,0,1,28.055,36.2H27.5Zm-.433-3.208v3.3a.983.983,0,0,0,.447-.108v.853h-.433v.5a.414.414,0,0,1-.433.406H23.927v-.906h-.46v-.839a.9.9,0,0,0,.433.108h.027v-3.3H23.9a.977.977,0,0,0-.433.108v-.663h4.047v.663a.89.89,0,0,0-.447-.122Zm-3.613-.555v.663a.794.794,0,0,0-.447.7v1.692a.808.808,0,0,0,.46.7v.839h-.555a1.846,1.846,0,0,1-1.921-1.746V33.305a1.846,1.846,0,0,1,1.921-1.746h.542ZM6.483,37.08V35.944l1.732-4.128a.418.418,0,0,1,.365-.244h2.45l2.3,5.508h-2.22a.7.7,0,0,1-.622-.446l-1.6-3.763-.785,1.855H8.8a.5.5,0,0,1,.406.257l.785,1.854a.176.176,0,0,1-.176.257H6.483Zm0-4.425h.094a.3.3,0,0,0,.3-.311v-.758H6.483v1.069Zm11.246-1.083h2.639V37.08h-.555a.509.509,0,0,1-.473-.473L19.3,33.386l-2.5,3.343a.821.821,0,0,1-.555.351H13.628V31.572h.488a.489.489,0,0,1,.473.474l.041,3.37,2.531-3.492A.878.878,0,0,1,17.729,31.572Zm-11.246,0v1.069H5.062v4.033a.422.422,0,0,1-.433.406h-2.8V32.641H0V31.9a.313.313,0,0,1,.311-.338H6.483Zm0,4.372-.379.893a.165.165,0,0,0,.149.243H6.5V35.944Z" fill="#fff" fill-rule="evenodd"/>
  </g>
</svg>
