<svg xmlns="http://www.w3.org/2000/svg" width="8.281mm" height="10.099mm" viewBox="0 0 23.474 28.626">
  <title>tatenergo</title>
  <g>
    <path d="M21.661,28.626a.722.722,0,0,0-.279-.054.85.85,0,0,1-.733-.692,3.514,3.514,0,0,1-.015-1.309.83.83,0,0,1,.723-.734,3.825,3.825,0,0,1,1.337,0,.826.826,0,0,1,.72.72,3.366,3.366,0,0,1,0,1.281.888.888,0,0,1-.908.759c-.037,0-.085-.023-.112.028Zm.927-1.411c0-.087,0-.148,0-.209a.473.473,0,0,0-.517-.522c-.051,0-.1,0-.154,0a.419.419,0,0,0-.427.348,1.852,1.852,0,0,0-.026.487c0,.45.209.637.657.6a.445.445,0,0,0,.447-.385A1.712,1.712,0,0,0,22.588,27.215Z" fill="#fff"/>
    <path d="M.119,11.648q0-5.736,0-11.473C.116.035.147,0,.289,0Q11.763.006,23.234,0c.148,0,.171.042.171.177q0,11.472,0,22.945c0,.139-.029.176-.173.176Q11.76,23.292.288,23.3c-.148,0-.172-.042-.172-.178Q.122,17.384.119,11.648Zm18.258.005q0-3.575,0-7.148c0-.116-.03-.146-.146-.146q-6.474.014-12.947.018c-.118,0-.146.03-.146.146,0,1,0,1.994,0,2.991,0,.214-.028.183.188.183q4.775,0,9.549,0c.147,0,.174.042.173.179q-.012.969,0,1.937c0,.146-.038.175-.178.175q-4.78-.006-9.563-.007c-.147,0-.173.041-.172.178q.009,1.5,0,2.991c0,.145.038.173.176.173q4.789-.006,9.577-.006c.13,0,.162.035.161.162-.007.646,0,1.292,0,1.938,0,.208.023.178-.178.178q-4.789,0-9.577,0c-.121,0-.155.024-.154.151q.009,1.509,0,3.019c0,.135.032.169.168.169q6.452-.006,12.9,0c.138,0,.167-.037.167-.17Q18.374,15.206,18.377,11.653Z" fill="#fff"/>
    <path d="M12.633,27.2c0,.417,0,.833,0,1.25,0,.1-.025.14-.133.136-.205-.008-.411-.006-.617,0-.086,0-.113-.026-.111-.112.005-.29,0-.58,0-.87,0-.093-.026-.12-.118-.118-.234.006-.468.007-.7,0-.1,0-.116.033-.115.121.005.28,0,.561,0,.842,0,.1-.021.142-.13.138-.2-.009-.4-.009-.6,0-.11,0-.131-.037-.131-.138q.006-1.257,0-2.514c0-.1.03-.126.126-.123.206.007.412.008.618,0,.1-.005.123.035.121.128-.006.248,0,.5,0,.744,0,.085.021.114.109.112.239-.006.478-.007.716,0,.089,0,.111-.027.109-.112,0-.248,0-.5,0-.744,0-.093.014-.133.119-.128.211.008.422.006.632,0,.089,0,.11.027.11.111C12.631,26.352,12.633,26.778,12.633,27.2Z" fill="#fff"/>
    <path d="M12.9,27.213c0-.323,0-.646,0-.969a.388.388,0,0,1,.425-.427c.59,0,1.179,0,1.769,0,.1,0,.129.027.124.125-.008.144-.006.29,0,.435,0,.089-.02.12-.116.119-.375-.006-.749,0-1.123,0a.23.23,0,0,0-.226.33c.025.065.078.04.12.04.388,0,.776.006,1.165,0,.111,0,.147.029.138.14a1.984,1.984,0,0,0,0,.336c.008.106-.019.144-.135.141-.383-.008-.767,0-1.151,0-.106,0-.159.021-.14.136a.8.8,0,0,1,0,.1c0,.169.027.193.2.193.383,0,.767,0,1.151,0,.108,0,.136.032.13.135-.008.149,0,.3,0,.449,0,.078-.021.108-.1.108-.6,0-1.2,0-1.8,0-.309,0-.431-.145-.431-.46S12.9,27.517,12.9,27.213Z" fill="#fff"/>
    <path d="M15.4,27.348q0-.52,0-1.039a.428.428,0,0,1,.486-.492h1.361c.51,0,.691.143.772.647a1.875,1.875,0,0,1-.063.913.545.545,0,0,1-.556.405c-.346,0-.692,0-1.038,0-.1,0-.125.03-.122.126.008.187,0,.374,0,.561,0,.087-.016.125-.113.122-.206-.008-.412-.007-.618,0-.094,0-.117-.028-.116-.119C15.4,28.1,15.4,27.722,15.4,27.348Zm1.25-.261v0c.1,0,.206,0,.308,0,.161-.007.235-.105.235-.3,0-.171-.078-.262-.238-.267-.187,0-.374,0-.561,0a.127.127,0,0,0-.146.132.848.848,0,0,0,.017.411c.047.085.224.019.343.029A.3.3,0,0,0,16.647,27.087Z" fill="#fff"/>
    <path d="M8.27,25.817a4.993,4.993,0,0,1,.712.019.832.832,0,0,1,.762.789,3.618,3.618,0,0,1-.022,1.241.831.831,0,0,1-.808.705c-.453.035-.907.006-1.361.017-.077,0-.108-.02-.1-.1.006-.159.006-.319,0-.477,0-.091.022-.119.115-.119a6.9,6.9,0,0,0,.954-.022.4.4,0,0,0,.368-.256c.031-.087.022-.124-.085-.123-.374,0-.749,0-1.123,0-.121,0-.153-.037-.145-.151a2.82,2.82,0,0,0,0-.379c0-.087.024-.111.11-.11.379.005.759,0,1.138,0,.034,0,.082.021.1-.017s-.009-.082-.032-.116a.483.483,0,0,0-.411-.2c-.281-.008-.562-.007-.843,0-.093,0-.122-.028-.118-.12.007-.154.007-.309,0-.463,0-.09.02-.122.116-.119C7.8,25.822,8.015,25.817,8.27,25.817Z" fill="#fff"/>
    <path d="M4.792,28.587c-.12-.011-.3.059-.4-.025a.77.77,0,0,1-.163-.389c-.035-.136-.1-.171-.236-.165-.215.012-.43.008-.645,0a.125.125,0,0,0-.147.107c-.037.125-.093.244-.132.368a.122.122,0,0,1-.137.1c-.229,0-.458,0-.687,0-.077,0-.113-.005-.077-.1q.476-1.192.943-2.388a.446.446,0,0,1,.358-.3,1.4,1.4,0,0,1,.474,0,.454.454,0,0,1,.355.3c.313.791.622,1.584.936,2.376.032.08.023.109-.068.106C5.05,28.584,4.933,28.587,4.792,28.587ZM3.719,26.643l-.029,0c-.072.215-.144.43-.219.644-.021.062-.008.087.058.086.122,0,.243,0,.364,0,.043,0,.072,0,.051-.061C3.867,27.091,3.794,26.866,3.719,26.643Z" fill="#fff"/>
    <path d="M6.041,25.817c.411,0,.823,0,1.234,0,.1,0,.128.028.123.125a3.737,3.737,0,0,0,0,.449c.008.111-.036.131-.136.128-.219-.007-.44,0-.659,0-.108,0-.141.024-.14.137.006.6,0,1.2.006,1.8,0,.118-.033.151-.149.145-.186-.01-.374-.008-.56,0-.108,0-.144-.023-.142-.138.006-.6,0-1.2,0-1.8,0-.12-.034-.149-.148-.145-.224.009-.449,0-.673,0-.09,0-.126-.022-.123-.116q.009-.238,0-.477c0-.088.029-.11.113-.109C5.209,25.819,5.625,25.817,6.041,25.817Z" fill="#fff"/>
    <path d="M1.36,25.817c.412,0,.824,0,1.236,0,.089,0,.124.02.119.116a4.469,4.469,0,0,0,0,.463c.005.1-.036.125-.13.123-.215-.006-.431.008-.645-.006-.143-.009-.167.042-.165.172.007.59,0,1.179.006,1.769,0,.114-.034.142-.142.138-.191-.008-.384-.008-.575,0-.1,0-.135-.023-.134-.131.006-.6,0-1.2.006-1.8,0-.131-.039-.154-.156-.15-.224.009-.449,0-.674,0-.077,0-.108-.019-.1-.1.005-.164.006-.328,0-.491,0-.089.026-.11.111-.109C.527,25.819.944,25.817,1.36,25.817Z" fill="#fff"/>
    <path d="M18.234,27.353V26.3a.421.421,0,0,1,.478-.483c.585,0,1.17,0,1.755,0,.107,0,.136.028.13.132a3.008,3.008,0,0,0,0,.435c.009.118-.037.138-.142.136-.393,0-.786,0-1.18,0-.172,0-.192.019-.192.193,0,.58,0,1.161,0,1.741,0,.11-.028.146-.14.141-.2-.009-.4-.007-.6,0-.089,0-.111-.028-.11-.113C18.237,28.1,18.234,27.728,18.234,27.353Z" fill="#fff"/>
  </g>
</svg>
