<svg xmlns="http://www.w3.org/2000/svg" width="12.537mm" height="12.537mm" viewBox="0 0 35.538 35.538">
  <title>tatgov</title>
  <g>
    <path d="M17.769,30.9A13.131,13.131,0,1,1,30.881,17.75,13.136,13.136,0,0,1,17.769,30.9Zm0-.225A12.906,12.906,0,1,1,30.656,17.751,12.91,12.91,0,0,1,17.769,30.675Z" fill="#fff" fill-rule="evenodd"/>
    <path d="M17.77,35.538A17.769,17.769,0,1,0,0,17.769,17.777,17.777,0,0,0,17.77,35.538Zm0-.189A17.58,17.58,0,1,0,.189,17.769,17.588,17.588,0,0,0,17.77,35.349Z" fill="#fff" fill-rule="evenodd"/>
    <path d="M19.582,19.238a2.619,2.619,0,0,0-.12-.54,1.529,1.529,0,0,0-.13-.3,2.5,2.5,0,0,0-.25-.38h-.01c-.01-.02-.03-.04-.04-.06a2.364,2.364,0,0,0-1.32-.76,2.183,2.183,0,0,0-.44-.04,2.3,2.3,0,0,0-.9.18.689.689,0,0,0-.08.03,2.122,2.122,0,0,0-.36.21,2.328,2.328,0,1,0,3.67,1.9A1.791,1.791,0,0,0,19.582,19.238Zm-2.36,2.17a1.905,1.905,0,1,1,1.94-1.9A1.923,1.923,0,0,1,17.222,21.408Z" fill="#fff" fill-rule="evenodd"/>
    <path d="M10.809,31.567l-.218.37-.035-.021a.709.709,0,0,0,.037-.226.311.311,0,0,0-.056-.152.389.389,0,0,0-.122-.1l-.1-.06L9.7,32.436a.452.452,0,0,0-.065.137.127.127,0,0,0,.017.072.2.2,0,0,0,.08.075l.045.026-.022.037-.71-.42.021-.035.046.025a.217.217,0,0,0,.108.035.1.1,0,0,0,.069-.025.444.444,0,0,0,.086-.12l.618-1.054-.1-.057a.333.333,0,0,0-.234-.06.441.441,0,0,0-.245.168l-.038-.023.217-.37ZM8.867,30.359c-.372-.448-.782-.188-.782-.335a.275.275,0,0,0-.373-.3c-.037.037-.074-.261-.223-.447a1.221,1.221,0,0,0-.93-.3H6.148c-.149-.038-.409-.038-.483-.113H5.627a.886.886,0,0,1-.559-.334c-.149-.224-.223-.708.112-.858.187-.037.521.15.41.187a.241.241,0,0,0-.186.074.3.3,0,0,0,.186.485c.3.036.261-.3.3-.187a.683.683,0,0,0,.41.373.732.732,0,0,0,.372.037s-.075-.075-.261-.3c-.224-.187-.186-.3-.41-.635-.334-.521-.632-.334-.595-.446a.326.326,0,0,0-.336-.373c-.037,0-.037-.3-.149-.483a.969.969,0,0,0-.67-.522,1.767,1.767,0,0,1-.521-.149,1.3,1.3,0,0,1-.336-.149l-.075-.038a.962.962,0,0,1-.484-.446c-.111-.261-.074-.745.3-.82.222,0,.483.224.371.224-.037,0-.074.037-.187.073a.251.251,0,0,0,.038.448c.261.075.335-.149.335-.037a.761.761,0,0,0,.3.484,2.484,2.484,0,0,0,.373.112,1.882,1.882,0,0,1-.224-.336c-.149-.26-.075-.372-.223-.744-.149-.41-.447-.6-.41-.633a.329.329,0,0,0-.224-.522.6.6,0,0,0-.074-.372,1.042,1.042,0,0,0-.559-.634,3.224,3.224,0,0,1-.521-.3c-.075-.074-.223-.187-.3-.261l-.036-.037a1.023,1.023,0,0,1-.3-.558c-.037-.261.111-.708.483-.671.224,0,.449.335.3.3-.036-.037-.075-.037-.186,0a.3.3,0,0,0-.075.521c.225.15.373-.148.335,0a.613.613,0,0,0,.186.521,1.024,1.024,0,0,0,.3.187,2.286,2.286,0,0,1-.111-.373,4.673,4.673,0,0,1-.037-.782c-.038-.595-.41-.446-.336-.67.186-.372-.11-.408-.074-.447,0-.036.074-.3.112-.521a.793.793,0,0,0-.336-.67c-.075-.074-.372-.373-.372-.373a2.38,2.38,0,0,1-.336-.447l-.037-.038a.95.95,0,0,1-.149-.632c.038-.261.3-.671.634-.559.185.075.26.409.223.373a.414.414,0,0,0-.261-.038c-.186,0-.3.3-.149.485.187.223.41-.038.336.074a.74.74,0,0,0,.074.559,1.391,1.391,0,0,0,.225.3v-.41c-.039-.336.073-.373.148-.782.074-.559-.223-.671-.148-.707.186-.15.186-.412,0-.486-.039-.036.186-.223.259-.483a.943.943,0,0,0-.186-.744c-.148-.262-.3-.485-.3-.485-.038-.113-.149-.335-.187-.447v-.038a1.039,1.039,0,0,1,0-.67c.113-.26.448-.559.746-.372.186.112.186.483.149.41a.384.384,0,0,0-.224-.113c-.186-.037-.372.224-.3.449.149.26.409.073.335.147a.707.707,0,0,0-.11.559.755.755,0,0,0,.184.335,1.982,1.982,0,0,1,.076-.41,3.793,3.793,0,0,1,.335-.709c.223-.52-.075-.743.037-.707.186,0,.26-.371.112-.483-.036,0,.223-.186.372-.41a.754.754,0,0,0,0-.745,3.949,3.949,0,0,1-.186-.67.67.67,0,0,1-.038-.373V9.91a.946.946,0,0,1,.15-.633c.149-.224.6-.447.82-.186.149.186.111.558.036.447-.036-.037-.036-.112-.149-.15a.3.3,0,0,0-.409.336c.036.3.372.148.26.223a.682.682,0,0,0-.224.522,1.132,1.132,0,0,0,.076.372,2.443,2.443,0,0,1,.185-.372c.112-.261.225-.261.483-.6.374-.484,0-.707.225-.707.373-.038.187-.409.224-.409a3.416,3.416,0,0,0,.446-.335.792.792,0,0,0,.224-.709,5.92,5.92,0,0,1-.112-.744.8.8,0,0,1,.038-.3V6.633A1.092,1.092,0,0,1,6,6.035c.186-.184.708-.3.894,0,.075.188-.112.56-.149.448A.2.2,0,0,0,6.633,6.3c-.187-.15-.448,0-.485.261,0,.259.335.222.224.259A.908.908,0,0,0,6,7.266a1.082,1.082,0,0,0,0,.372s.075-.074.261-.3c.186-.261.3-.224.633-.485.448-.336.3-.633.373-.633.446.075.3-.3.336-.335A1.208,1.208,0,0,0,8.123,5.7a.915.915,0,0,0,.372-.634,4.624,4.624,0,0,1,.3-1.042V3.988A1.135,1.135,0,0,1,9.24,3.5c.223-.111.708-.111.782.225.075.223-.149.521-.149.409-.038-.037,0-.149-.074-.223a.3.3,0,0,0-.522.148c-.112.261.224.261.111.3a.939.939,0,0,0-.447.335,1.123,1.123,0,0,0-.074.371,2.156,2.156,0,0,1,.3-.222,2.409,2.409,0,0,1,.745-.3c.522-.259.3-.594.522-.52.372.112.372-.26.41-.26a1.8,1.8,0,0,0,.521-.075.737.737,0,0,0,.521-.521c.112-.3.261-.708.261-.708a1.64,1.64,0,0,1,.223-.261V2.163a.7.7,0,0,1,.6-.149c.223.037.409.149.3.411a.27.27,0,0,1-.186.185s0-.149-.223-.185a.293.293,0,0,0-.224.11c-.111.15.075.225,0,.26-.409.224-.409.6-.372.559a2.1,2.1,0,0,1,1.117-.521c.15.186.447.149.447-.111h.261A2.907,2.907,0,0,0,15.125,2.5a3.453,3.453,0,0,1-1.378-.409,1.755,1.755,0,0,0-.969-.373.738.738,0,0,0-.521.223c-.037.037-.15-.112-.334-.075-.225.075-.188.3-.262.3a1.179,1.179,0,0,0-.559.186c-.26.186-.26.261-.633.336a2.425,2.425,0,0,0-.484.148.412.412,0,0,0,.261.112.659.659,0,0,0,.522-.037.234.234,0,0,0,.148.261.3.3,0,0,0,.335-.15.2.2,0,0,0-.074-.259c-.112-.075.186-.113.3-.075.186.075.186.26.111.409a.669.669,0,0,1-.335.3,1.026,1.026,0,0,1-.67,0,2.529,2.529,0,0,0-.746-.223.889.889,0,0,0-.894.185c-.26.149-.26.224-.371.448l-.038.036c-.037.038-.148-.148-.335-.036s-.112.3-.186.335a2.858,2.858,0,0,0-.483.3C7.3,4.7,7.341,4.77,7,4.919c-.334.187-.445.261-.445.261a.767.767,0,0,0,.3.074.792.792,0,0,0,.485-.187s.036.224.223.224a.318.318,0,0,0,.3-.3c0-.112-.037-.112-.187-.148-.111-.038.075-.222.3-.149a.427.427,0,0,1,.223.335.838.838,0,0,1-.261.409,1.053,1.053,0,0,1-.67.15,4.23,4.23,0,0,0-.783-.038.965.965,0,0,0-.782.336.754.754,0,0,0-.3.558l-.037.037c0,.076-.149-.037-.3.112-.185.149-.037.3-.111.373-.112.112-.225.112-.373.409-.186.261-.148.335-.409.6-.261.224-.373.336-.373.336a.745.745,0,0,0,.3,0,.924.924,0,0,0,.446-.3.224.224,0,0,0,.261.187.326.326,0,0,0,.261-.335c-.037-.112-.111-.15-.261-.15-.111,0,.112-.223.261-.223.186,0,.261.149.3.3a.794.794,0,0,1-.149.446,1.016,1.016,0,0,1-.595.3,3.952,3.952,0,0,0-.784.149,1.143,1.143,0,0,0-.706.6,1.262,1.262,0,0,0-.113.6V9.91c-.373,0-.485.223-.335.521a.884.884,0,0,0-.26.485,1.445,1.445,0,0,1-.225.67l-.3.447a.665.665,0,0,0,.632-.484.314.314,0,0,0,.3.112.327.327,0,0,0,.187-.373.3.3,0,0,0-.335-.149.547.547,0,0,1,.224-.223.329.329,0,0,1,.371.223.568.568,0,0,1-.037.484.953.953,0,0,1-.521.41c-.187.074-.373.187-.708.335a1.118,1.118,0,0,0-.521.745,1.16,1.16,0,0,0,.074.634c-.372.074-.447.372-.223.557a1.9,1.9,0,0,0-.149.6c0,.334.074.371-.038.707a1.4,1.4,0,0,0-.149.484.627.627,0,0,0,.261-.149.822.822,0,0,0,.224-.447s.149.186.3.037a.35.35,0,0,0,.074-.447A.237.237,0,0,0,1.6,15.05c-.111.075,0-.225.112-.3a.338.338,0,0,1,.373.112.558.558,0,0,1,.075.484.849.849,0,0,1-.373.558,3.246,3.246,0,0,0-.6.522.979.979,0,0,0-.335.857.934.934,0,0,0,.148.484v.037c-.223.224-.223.485.037.633a1.068,1.068,0,0,0-.037.6,1.564,1.564,0,0,1,.112.708c-.037.371-.037.521-.037.521a.55.55,0,0,0,.223-.224.584.584,0,0,0,.113-.483.233.233,0,0,0,.334-.038c.074-.149.038-.373-.073-.41-.15-.074-.15-.074-.261,0-.113.111-.076-.187.037-.3.074-.112.3-.075.409,0a.625.625,0,0,1,.186.447.939.939,0,0,1-.224.633,7.046,7.046,0,0,0-.484.633,1.092,1.092,0,0,0-.11.894c.11.26.148.372.334.484v.038c.037.037-.186.149-.148.335.074.223.261.223.3.3a1.176,1.176,0,0,0,.111.52,2.72,2.72,0,0,1,.3.671,4.457,4.457,0,0,0,.074.522.559.559,0,0,0,.187-.261.873.873,0,0,0-.038-.521.244.244,0,0,0,.3-.112A.329.329,0,0,0,2.5,23.02c-.073-.073-.223,0-.259.074,0,.076-.15-.11,0-.335a.288.288,0,0,1,.371-.073,1.067,1.067,0,0,1,.3.372,1.333,1.333,0,0,1-.076.67,3.944,3.944,0,0,0-.3.745.949.949,0,0,0,.112.894.927.927,0,0,0,.447.41l.039.037c.036.038-.188.149-.076.336.076.186.26.149.3.223a1.544,1.544,0,0,0,.261.484c.223.262.3.224.447.558s.224.485.224.485a.775.775,0,0,0,.074-.3.647.647,0,0,0-.112-.483.239.239,0,0,0,.223-.225.322.322,0,0,0-.223-.3.233.233,0,0,0-.224.148c-.037.075-.148-.148-.111-.3a.35.35,0,0,1,.373-.186.671.671,0,0,1,.372.3.767.767,0,0,1,.073.633c-.036.223-.036.447-.109.818a1.231,1.231,0,0,0,.334.858,1.262,1.262,0,0,0,.558.261v.037a.5.5,0,0,0,.038.373c.186.148.3.037.372.111.112.112.037.15.3.374.3.185.372.147.559.447.222.26.335.371.335.371a1.381,1.381,0,0,0,.038-.3.817.817,0,0,0-.261-.447s.223-.037.186-.224c0-.187-.112-.224-.261-.261-.112-.037-.223.037-.223.187-.037.074-.15-.113-.15-.261a.28.28,0,0,1,.261-.261.65.65,0,0,1,.448.186.755.755,0,0,1,.222.6c0,.223.075.446.112.818a.879.879,0,0,0,.485.745l.186-.26c-.3-.149-.448-.671-.149-.893.149-.112.521-.039.41,0a.389.389,0,0,0-.112.186c-.112.222-.037.3.074.372ZM17.8,1.157c-.092.3-.518.729-.273,1.049a.337.337,0,0,0,.53.012c.244-.31-.16-.769-.257-1.061Zm-.037,1.6c-.862,0-.489-1.089-.895-1.191a.449.449,0,0,0-.372.112.538.538,0,0,1,.857-.484,1.157,1.157,0,0,1,.41-.782,1.225,1.225,0,0,1,.424.761c.049-.035.831-.283.954.429a.6.6,0,0,0-.335-.036c-.541.137-.181,1.191-1.043,1.191Zm8.835,27.6c.372-.448.782-.188.782-.335a.275.275,0,0,1,.372-.3c.037.037.075-.261.223-.447a1.225,1.225,0,0,1,.931-.3h.41c.15-.038.41-.038.484-.113h.038a.881.881,0,0,0,.558-.334c.15-.224.224-.708-.112-.858-.186-.037-.52.15-.409.187a.241.241,0,0,1,.186.074.3.3,0,0,1-.186.485c-.3.036-.261-.3-.3-.187a.686.686,0,0,1-.41.373.732.732,0,0,1-.372.037s.074-.075.261-.3c.223-.187.185-.3.41-.635.334-.521.632-.334.6-.446a.326.326,0,0,1,.336-.373c.037,0,.037-.3.149-.483a.969.969,0,0,1,.67-.522,1.767,1.767,0,0,0,.521-.149,1.3,1.3,0,0,0,.336-.149l.074-.038a.954.954,0,0,0,.484-.446c.112-.261.074-.745-.3-.82-.222,0-.483.224-.371.224.036,0,.074.037.186.073a.251.251,0,0,1-.037.448c-.261.075-.335-.149-.335-.037a.761.761,0,0,1-.3.484,2.484,2.484,0,0,1-.373.112,1.858,1.858,0,0,0,.223-.336c.15-.26.075-.372.224-.744.149-.41.446-.6.41-.633a.329.329,0,0,1,.224-.522.588.588,0,0,1,.074-.372,1.044,1.044,0,0,1,.558-.634,3.206,3.206,0,0,0,.522-.3c.075-.074.223-.187.3-.261l.036-.037a1.023,1.023,0,0,0,.3-.558c.037-.261-.111-.708-.483-.671-.224,0-.449.335-.3.3.036-.037.075-.037.186,0a.3.3,0,0,1,.075.521c-.225.15-.373-.148-.335,0a.613.613,0,0,1-.186.521,1.038,1.038,0,0,1-.3.187,2.286,2.286,0,0,0,.111-.373,4.783,4.783,0,0,0,.037-.782c.037-.595.41-.446.336-.67-.186-.372.11-.408.074-.447,0-.036-.074-.3-.112-.521a.793.793,0,0,1,.336-.67c.075-.074.371-.373.371-.373a2.339,2.339,0,0,0,.337-.447l.037-.038a.95.95,0,0,0,.149-.632c-.038-.261-.3-.671-.634-.559-.185.075-.26.409-.223.373a.412.412,0,0,1,.261-.038c.186,0,.3.3.149.485-.187.223-.41-.038-.336.074a.749.749,0,0,1-.074.559,1.391,1.391,0,0,1-.225.3v-.41c.039-.336-.073-.373-.148-.782-.074-.559.223-.671.148-.707-.186-.15-.186-.412,0-.486.039-.036-.186-.223-.259-.483a.943.943,0,0,1,.186-.744c.148-.262.3-.485.3-.485.038-.113.149-.335.187-.447v-.038a1.039,1.039,0,0,0,0-.67c-.113-.26-.448-.559-.746-.372-.186.112-.186.483-.149.41a.384.384,0,0,1,.224-.113c.186-.037.372.224.3.449-.149.26-.409.073-.335.147a.707.707,0,0,1,.11.559.755.755,0,0,1-.184.335,1.982,1.982,0,0,0-.076-.41,3.793,3.793,0,0,0-.335-.709c-.223-.52.075-.743-.037-.707-.186,0-.26-.371-.112-.483.036,0-.223-.186-.372-.41a.754.754,0,0,1,0-.745,3.949,3.949,0,0,0,.186-.67.67.67,0,0,0,.038-.373V9.91A.946.946,0,0,0,32,9.277c-.149-.224-.595-.447-.82-.186-.149.186-.111.558-.036.447.036-.037.036-.112.149-.15a.3.3,0,0,1,.409.336c-.037.3-.372.148-.26.223a.681.681,0,0,1,.223.522,1.145,1.145,0,0,1-.075.372,2.443,2.443,0,0,0-.185-.372c-.112-.261-.225-.261-.483-.6-.374-.484,0-.707-.225-.707-.373-.038-.187-.409-.224-.409a3.416,3.416,0,0,1-.446-.335.8.8,0,0,1-.225-.709,5.725,5.725,0,0,0,.112-.744.823.823,0,0,0-.037-.3V6.633a1.092,1.092,0,0,0-.409-.6c-.186-.184-.708-.3-.894,0-.075.188.111.56.149.448a.2.2,0,0,1,.11-.185c.188-.15.449,0,.486.261,0,.259-.335.222-.224.259a.908.908,0,0,1,.373.448,1.082,1.082,0,0,1,0,.372s-.075-.074-.261-.3c-.186-.261-.3-.224-.633-.485-.448-.336-.3-.633-.373-.633-.446.075-.3-.3-.336-.335a1.208,1.208,0,0,1-.521-.187.915.915,0,0,1-.372-.634,4.624,4.624,0,0,0-.3-1.042V3.988a1.135,1.135,0,0,0-.447-.485c-.223-.111-.708-.111-.783.225-.074.223.15.521.15.409.038-.037,0-.149.074-.223a.3.3,0,0,1,.522.148c.112.261-.224.261-.111.3a.939.939,0,0,1,.447.335,1.123,1.123,0,0,1,.074.371,2.156,2.156,0,0,0-.3-.222,2.409,2.409,0,0,0-.745-.3c-.522-.259-.3-.594-.522-.52-.372.112-.372-.26-.41-.26A1.8,1.8,0,0,1,24.1,3.69a.737.737,0,0,1-.521-.521c-.112-.3-.261-.708-.261-.708A1.64,1.64,0,0,0,23.1,2.2V2.163a.7.7,0,0,0-.6-.149c-.223.037-.409.149-.3.411a.27.27,0,0,0,.186.185s0-.149.223-.185a.293.293,0,0,1,.224.11c.111.15-.075.225,0,.26.409.224.409.6.371.559a2.093,2.093,0,0,0-1.116-.521c-.15.186-.447.149-.447-.111h-.261A2.907,2.907,0,0,1,20.341,2.5a3.453,3.453,0,0,0,1.378-.409,1.755,1.755,0,0,1,.969-.373.734.734,0,0,1,.52.223c.038.037.15-.112.335-.075.225.075.188.3.262.3a1.179,1.179,0,0,1,.559.186c.26.186.26.261.633.336a2.425,2.425,0,0,1,.484.148.412.412,0,0,1-.261.112.659.659,0,0,1-.522-.037.234.234,0,0,1-.148.261.3.3,0,0,1-.335-.15.2.2,0,0,1,.074-.259c.112-.075-.186-.113-.3-.075-.186.075-.186.26-.111.409a.664.664,0,0,0,.335.3,1.026,1.026,0,0,0,.67,0,2.529,2.529,0,0,1,.746-.223.889.889,0,0,1,.894.185c.26.149.26.224.371.448l.038.036c.037.038.149-.148.335-.036s.112.3.186.335a2.858,2.858,0,0,1,.483.3c.225.262.187.336.524.485.334.187.445.261.445.261a.767.767,0,0,1-.3.074.792.792,0,0,1-.485-.187s-.036.224-.223.224a.318.318,0,0,1-.3-.3c0-.112.037-.112.186-.148.112-.038-.074-.222-.3-.149a.427.427,0,0,0-.223.335.838.838,0,0,0,.261.409,1.053,1.053,0,0,0,.67.15,4.23,4.23,0,0,1,.783-.038.965.965,0,0,1,.782.336.754.754,0,0,1,.3.558l.037.037c0,.076.149-.037.3.112.185.149.037.3.111.373.112.112.225.112.373.409.186.261.148.335.409.6.261.224.373.336.373.336a.745.745,0,0,1-.3,0,.924.924,0,0,1-.446-.3.224.224,0,0,1-.261.187.326.326,0,0,1-.261-.335c.037-.112.111-.15.261-.15.111,0-.112-.223-.261-.223-.186,0-.261.149-.3.3a.794.794,0,0,0,.149.446,1.016,1.016,0,0,0,.595.3,3.952,3.952,0,0,1,.784.149,1.143,1.143,0,0,1,.706.6,1.262,1.262,0,0,1,.113.6V9.91c.372,0,.485.223.335.521a.884.884,0,0,1,.26.485,1.455,1.455,0,0,0,.224.67l.3.447a.663.663,0,0,1-.632-.484.316.316,0,0,1-.3.112.328.328,0,0,1-.186-.373.3.3,0,0,1,.335-.149.555.555,0,0,0-.224-.223.329.329,0,0,0-.371.223.564.564,0,0,0,.037.484.953.953,0,0,0,.521.41c.187.074.373.187.708.335a1.118,1.118,0,0,1,.521.745,1.16,1.16,0,0,1-.074.634c.372.074.447.372.223.557a1.9,1.9,0,0,1,.149.6c0,.334-.074.371.038.707a1.4,1.4,0,0,1,.149.484.627.627,0,0,1-.261-.149.822.822,0,0,1-.224-.447s-.149.186-.3.037a.35.35,0,0,1-.074-.447.235.235,0,0,1,.26-.037c.112.075,0-.225-.112-.3a.337.337,0,0,0-.372.112.551.551,0,0,0-.075.484.849.849,0,0,0,.373.558,3.279,3.279,0,0,1,.6.522.982.982,0,0,1,.335.857.934.934,0,0,1-.148.484v.037c.222.224.222.485-.037.633a1.068,1.068,0,0,1,.037.6,1.538,1.538,0,0,0-.112.708c.036.371.036.521.036.521a.551.551,0,0,1-.222-.224.584.584,0,0,1-.113-.483.234.234,0,0,1-.335-.038c-.074-.149-.037-.373.074-.41.149-.074.149-.074.261,0,.113.111.075-.187-.037-.3-.075-.112-.3-.075-.409,0a.625.625,0,0,0-.186.447.943.943,0,0,0,.223.633,6.687,6.687,0,0,1,.484.633,1.089,1.089,0,0,1,.111.894c-.111.26-.148.372-.334.484v.038c-.038.037.186.149.148.335-.074.223-.261.223-.3.3a1.162,1.162,0,0,1-.111.52,2.753,2.753,0,0,0-.3.671,4.259,4.259,0,0,1-.075.522.56.56,0,0,1-.186-.261.873.873,0,0,1,.038-.521.246.246,0,0,1-.3-.112.331.331,0,0,1,.15-.373c.073-.073.223,0,.259.074,0,.076.15-.11,0-.335a.288.288,0,0,0-.371-.073,1.056,1.056,0,0,0-.3.372,1.345,1.345,0,0,0,.075.67,3.936,3.936,0,0,1,.3.745.946.946,0,0,1-.113.894.921.921,0,0,1-.446.41l-.039.037c-.036.038.188.149.076.336-.076.186-.261.149-.3.223a1.544,1.544,0,0,1-.261.484c-.223.262-.3.224-.447.558s-.224.485-.224.485a.775.775,0,0,1-.074-.3.647.647,0,0,1,.112-.483.24.24,0,0,1-.224-.225.323.323,0,0,1,.224-.3.233.233,0,0,1,.224.148c.037.075.148-.148.111-.3a.351.351,0,0,0-.373-.186.671.671,0,0,0-.372.3.767.767,0,0,0-.073.633c.036.223.036.447.109.818a1.231,1.231,0,0,1-.334.858,1.267,1.267,0,0,1-.558.261v.037a.5.5,0,0,1-.038.373c-.186.148-.3.037-.373.111-.111.112-.036.15-.3.374-.3.185-.372.147-.558.447-.222.26-.335.371-.335.371a1.381,1.381,0,0,1-.038-.3.817.817,0,0,1,.261-.447s-.223-.037-.186-.224c0-.187.112-.224.26-.261a.171.171,0,0,1,.224.187c.037.074.15-.113.15-.261a.28.28,0,0,0-.261-.261.65.65,0,0,0-.448.186.755.755,0,0,0-.222.6c0,.223-.075.446-.113.818a.878.878,0,0,1-.484.745l-.186-.26c.3-.149.448-.671.149-.893-.149-.112-.522-.039-.41,0a.389.389,0,0,1,.112.186c.112.222.037.3-.075.372Zm-15.014,2.79-.513-.212-.121.117a.37.37,0,0,0-.078.1.107.107,0,0,0,.012.111.448.448,0,0,0,.132.086L11,33.4l-.484-.2.017-.04a.217.217,0,0,0,.155-.012.917.917,0,0,0,.216-.169l1-.953.02.009.029,1.418a.821.821,0,0,0,.035.267.186.186,0,0,0,.086.082l-.015.04-.7-.292.015-.041.03.012a.229.229,0,0,0,.129.026.059.059,0,0,0,.044-.04.136.136,0,0,0,.01-.042.717.717,0,0,0,0-.094Zm0-.094-.008-.594-.431.412Zm2.775-.207-.121.412-.04-.012a.708.708,0,0,0-.018-.228.321.321,0,0,0-.091-.135.4.4,0,0,0-.141-.064l-.113-.033-.346,1.173a.536.536,0,0,0-.031.149.126.126,0,0,0,.035.066.208.208,0,0,0,.1.052l.05.016-.012.04-.79-.234.012-.041.051.015a.207.207,0,0,0,.111.007.113.113,0,0,0,.062-.04.469.469,0,0,0,.054-.138l.347-1.172-.11-.032a.33.33,0,0,0-.241,0,.453.453,0,0,0-.2.223l-.043-.012L13,32.447ZM15.5,34.157l-.551-.081-.088.143a.342.342,0,0,0-.051.121.106.106,0,0,0,.039.1.427.427,0,0,0,.147.051l-.005.042-.519-.077.006-.041a.246.246,0,0,0,.148-.05.875.875,0,0,0,.169-.218l.745-1.168.021,0,.368,1.369a.821.821,0,0,0,.1.25.179.179,0,0,0,.1.058l-.006.043-.754-.113.006-.042.032.005a.26.26,0,0,0,.131-.007.063.063,0,0,0,.033-.05.089.089,0,0,0,0-.043.744.744,0,0,0-.021-.092Zm-.028-.091-.15-.574L15,34Zm1.935-.019-.019.439a.446.446,0,0,0,.008.162.107.107,0,0,0,.053.056.4.4,0,0,0,.146.026l0,.043-.8-.033V34.7a.373.373,0,0,0,.149-.014A.115.115,0,0,0,17,34.631a.447.447,0,0,0,.023-.16l.046-1.028a.506.506,0,0,0-.008-.162.122.122,0,0,0-.053-.055.355.355,0,0,0-.146-.027v-.042l.686.028a.768.768,0,0,1,.481.142.379.379,0,0,1,.133.31.4.4,0,0,1-.107.26.493.493,0,0,1-.269.139,1.944,1.944,0,0,1-.381.011Zm.034-.775-.03.684a.507.507,0,0,0,.058,0,.28.28,0,0,0,.221-.075.384.384,0,0,0,.089-.26.368.368,0,0,0-.065-.261.3.3,0,0,0-.225-.09Zm2.728-.315.07.543-.045.005a.586.586,0,0,0-.231-.3.481.481,0,0,0-.328-.071.47.47,0,0,0-.257.121.494.494,0,0,0-.15.245,1.013,1.013,0,0,0-.022.4,1.236,1.236,0,0,0,.1.377.512.512,0,0,0,.2.24.465.465,0,0,0,.3.049.6.6,0,0,0,.263-.1A.939.939,0,0,0,20.3,34.2l.018.137a.869.869,0,0,1-.247.236.847.847,0,0,1-.325.106.953.953,0,0,1-.456-.04.715.715,0,0,1-.338-.249.832.832,0,0,1-.094-.83.817.817,0,0,1,.273-.355.879.879,0,0,1,.408-.169,1.016,1.016,0,0,1,.358.025.5.5,0,0,0,.139.024.089.089,0,0,0,.061-.036.145.145,0,0,0,.024-.091Zm2.046-.4.091.418-.041.009a.648.648,0,0,0-.127-.19.3.3,0,0,0-.142-.073.4.4,0,0,0-.155.013l-.115.027.261,1.191a.529.529,0,0,0,.045.146.133.133,0,0,0,.063.041.211.211,0,0,0,.109,0l.052-.012.008.043-.805.18-.01-.041.052-.012a.216.216,0,0,0,.1-.049.107.107,0,0,0,.033-.065.441.441,0,0,0-.018-.145l-.262-1.194-.111.026a.333.333,0,0,0-.211.116.459.459,0,0,0-.067.292l-.044.009-.091-.418Zm1.644.6-.518.207-.006.168a.355.355,0,0,0,.016.13.1.1,0,0,0,.086.071.437.437,0,0,0,.153-.03l.017.039-.488.194L23.1,33.9a.242.242,0,0,0,.1-.118.911.911,0,0,0,.038-.273l.066-1.383.021-.009,1,1a.775.775,0,0,0,.209.167.187.187,0,0,0,.119,0l.016.041-.71.282-.015-.041.029-.012a.232.232,0,0,0,.111-.071.07.07,0,0,0,0-.06.149.149,0,0,0-.023-.037c0-.006-.026-.029-.064-.069Zm-.069-.065-.416-.42-.027.6Zm1.631-1.006.239.427a.484.484,0,0,0,.086.126.124.124,0,0,0,.071.019.193.193,0,0,0,.1-.032l.045-.025.021.038-.717.409-.021-.039.046-.025a.233.233,0,0,0,.084-.076.108.108,0,0,0,.012-.072.478.478,0,0,0-.06-.135l-.509-.906a.542.542,0,0,0-.085-.126.117.117,0,0,0-.071-.02.212.212,0,0,0-.1.033l-.044.025-.022-.038.717-.409.021.039-.046.025a.227.227,0,0,0-.084.077.11.11,0,0,0-.014.072.467.467,0,0,0,.061.134l.219.39.484-.277-.219-.389a.571.571,0,0,0-.084-.126.12.12,0,0,0-.072-.02.2.2,0,0,0-.1.033l-.044.025-.023-.038.717-.41.022.039L26,30.857a.234.234,0,0,0-.084.076.115.115,0,0,0-.014.073.493.493,0,0,0,.061.134l.509.906a.471.471,0,0,0,.085.126.117.117,0,0,0,.071.02.213.213,0,0,0,.1-.032l.044-.026.022.038-.717.408-.021-.037.044-.025a.211.211,0,0,0,.084-.076.11.11,0,0,0,.015-.073.571.571,0,0,0-.061-.135l-.239-.426Z" fill="#fff" fill-rule="evenodd"/>
    <path d="M17.77,32.518A14.75,14.75,0,1,0,3.057,17.769,14.727,14.727,0,0,0,17.77,32.518Zm0-.236A14.514,14.514,0,1,0,3.292,17.769,14.492,14.492,0,0,0,17.77,32.282Z" fill="#fff" fill-rule="evenodd"/>
    <path d="M12.384,8.631v.018L12.4,8.64Z" fill="#fff" fill-rule="evenodd"/>
    <path d="M15.652,19.483a1.618,1.618,0,1,0,1.617-1.617A1.623,1.623,0,0,0,15.652,19.483Zm.1,0a1.518,1.518,0,1,0,1.517-1.517A1.522,1.522,0,0,0,15.752,19.483Z" fill="#fff" fill-rule="evenodd"/>
    <path d="M10.678,26.558c-.15-.071-.194.345.088.487C10.664,26.827,10.971,26.7,10.678,26.558Z" fill="#fff" fill-rule="evenodd"/>
    <path d="M10.217,26.142c-.121-.059-.158.28.072.395C10.206,26.361,10.455,26.256,10.217,26.142Z" fill="#fff" fill-rule="evenodd"/>
    <path d="M10.428,26.287c-.128-.061-.165.294.076.416C10.416,26.517,10.679,26.406,10.428,26.287Z" fill="#fff" fill-rule="evenodd"/>
    <path d="M7.909,20.952c-.052.113.263.14.366-.076C8.112,20.957,8.009,20.726,7.909,20.952Z" fill="#fff" fill-rule="evenodd"/>
    <path d="M7.662,21.169c-.058.129.3.158.414-.086C7.891,21.176,7.776,20.916,7.662,21.169Z" fill="#fff" fill-rule="evenodd"/>
    <path d="M7.427,21.37c-.055.122.284.15.394-.083C7.646,21.376,7.536,21.128,7.427,21.37Z" fill="#fff" fill-rule="evenodd"/>
    <path d="M18.8,24.627c-.113-.054-.147.261.067.368C18.785,24.83,19.018,24.733,18.8,24.627Z" fill="#fff" fill-rule="evenodd"/>
    <path d="M18.4,24.143c-.121-.058-.157.279.073.395C18.393,24.361,18.642,24.257,18.4,24.143Z" fill="#fff" fill-rule="evenodd"/>
    <path d="M18.605,24.354c-.127-.06-.166.294.077.416C18.594,24.584,18.857,24.474,18.605,24.354Z" fill="#fff" fill-rule="evenodd"/>
    <path d="M22.955,26.627c-.111-.053-.145.261.069.368C22.946,26.831,23.178,26.734,22.955,26.627Z" fill="#fff" fill-rule="evenodd"/>
    <path d="M22.47,26.08c-.126-.061-.166.294.077.416C22.459,26.31,22.723,26.2,22.47,26.08Z" fill="#fff" fill-rule="evenodd"/>
    <path d="M22.694,26.324c-.127-.061-.165.294.076.416C22.683,26.553,22.946,26.443,22.694,26.324Z" fill="#fff" fill-rule="evenodd"/>
    <path d="M18.569,24.3c.055-.023.124,0,.183.1a.81.81,0,0,1,.79-.356.892.892,0,0,0-.807.528c.041-.025.156-.006.2.125a1.65,1.65,0,0,0,.311.123,2.925,2.925,0,0,0,.884-.105c.259-.061.558.018.809-.245s.17-.3.276-.373l.1-.071a.284.284,0,0,0,.269.166c.219.017.209-.031.209-.031s-.209-.048-.063-.4a6.607,6.607,0,0,1,1.806-1.334c.437-.245.3-.078.388-.373s-.033-.332,0-.645a2.818,2.818,0,0,1,.414-1.086v-.006a4.479,4.479,0,0,1-.471-1.047.979.979,0,0,0-1.074-.879,1.918,1.918,0,0,0-1.032.364l-.014.02A4.129,4.129,0,0,0,22,19.7a3.962,3.962,0,0,1,.438,1.511,1.241,1.241,0,0,1-.406.8c-.171.165-.883.967-1.175,1.206s-.348.445-.891.31c-.191-.12-1.7-.212-1.585.57.049-.041.146.03.159.078a.618.618,0,0,1,.686-.42.622.622,0,0,0-.658.539Z" fill="#fff" fill-rule="evenodd"/>
    <path d="M19.665,19.482a2.39,2.39,0,0,1-.608,1.6c1.167-.73,2.381-2.822,3.822-2.837a1.022,1.022,0,0,1,1.108.924,4.947,4.947,0,0,0,.49,1.1l.043.079.314.552a11.669,11.669,0,0,1,.612,1.132,1.943,1.943,0,0,1,.275.862,2.876,2.876,0,0,1-.187.9,7.18,7.18,0,0,1-.692,1.392.542.542,0,0,1-.547.268c-.232,0-.449-.085-.68-.1a1.811,1.811,0,0,0-.769.2.8.8,0,0,0-.351.335.056.056,0,0,0-.01.037.188.188,0,0,0,.019.1,1.353,1.353,0,0,1,.122.119c.2-.37.391-.39.742-.384-.313.044-.6.135-.7.5.076.028.161.059.179.139.137-.339.509-.335.788-.42-.116.073-.786.207-.741.581.082,0,.213.08.2.161l.036.034a1.674,1.674,0,0,0,.5.041,2.753,2.753,0,0,0,.406-.089,2.47,2.47,0,0,0,1.088-.377,1.358,1.358,0,0,0,.352-.479l.024-.055c.112.145.525.063.6-.1-.147,0-.28.068-.315-.145v-.025a3.787,3.787,0,0,1,.712-1.214,5.684,5.684,0,0,0,.847-1.529c0-.419-.473-.642-.473-1.152,0-.187.05-.588.109-1.053a16.834,16.834,0,0,0,.17-1.762,9.6,9.6,0,0,0-.133-1.513c-.005-.046-.176-.109-.184-.2,0-.056.049-.121.334-.282a1.869,1.869,0,0,0,1.03-1.451,2.9,2.9,0,0,0-.7-2.095,6.472,6.472,0,0,0-2.327-1.7,8.865,8.865,0,0,1-2.537-1.751A1.156,1.156,0,0,1,22.514,8.4c.062-.113.351-.687-.023-.9-.293-.169-.728.271-.946.638a2.3,2.3,0,0,0-.051,2.184,5.259,5.259,0,0,0,2.463,2.095,11.511,11.511,0,0,1,2.618,1.709c.4.521.718,1.066.354,1.522-.333.417-1.021.233-1.553-.134a4.3,4.3,0,0,0-1.266-.674,3.751,3.751,0,0,0-1.482-.175,3.562,3.562,0,0,0-1.671.733l-.105.081a1.708,1.708,0,0,1-.648.353,6.066,6.066,0,0,1-.049.721c.257-.476.675-.214.783.178-.484-.12-.449.277-.5.681a3.689,3.689,0,0,1-.06.4,3.357,3.357,0,0,1-.735,1.373,2.383,2.383,0,0,1,.019.306Z" fill="#fff" fill-rule="evenodd"/>
    <path d="M12.646,8.386c.454-.22,1,.107,1.339.382a6.157,6.157,0,0,1,1.606,4.03q.037.428.038.88a13.068,13.068,0,0,1-.215,2.286,1.383,1.383,0,0,0,.213.115,13,13,0,0,0,.223-2.32c0-.331-.016-.654-.046-.966a6.118,6.118,0,0,0-1.736-4.125c-.345-.256-1.01-.589-1.422-.282Z" fill="#fff" fill-rule="evenodd"/>
    <path d="M14.915,8.766a2.267,2.267,0,0,0-1.908-.941.767.767,0,0,0-.623.73c.462-.619,1.226-.315,1.727.057a6.2,6.2,0,0,1,1.763,4.174A11.917,11.917,0,0,1,15.7,16.1a2.419,2.419,0,0,0,.539.121,8.789,8.789,0,0,0-.67-5.913c-.217-.521-.455-1.008-.65-1.541Z" fill="#fff" fill-rule="evenodd"/>
    <path d="M16.037,17.429a2.277,2.277,0,0,1,.273-.142,13.785,13.785,0,0,0,.454-3.223,8.906,8.906,0,0,0-.963-3.843,6.26,6.26,0,0,1-.829-2.359c.015-.659.347-1.674,1.167-1.607-.694-.213-1.152.641-1.244,1.194a3.3,3.3,0,0,0,.083,1.293c.167.534.463,1.087.652,1.538a8.5,8.5,0,0,1,.843,4.855h0l-.006.057h0a18.469,18.469,0,0,1-.43,2.237Z" fill="#fff" fill-rule="evenodd"/>
    <path d="M16.391,17.254a2.354,2.354,0,0,1,.53-.142,11.74,11.74,0,0,0,.385-2.531h0v-.06a11.609,11.609,0,0,0-.671-3.623c-.077-.24-.127-.36-.192-.6l-.382-.789a4.207,4.207,0,0,1-.59-1.646,1.455,1.455,0,0,1,.915-1.487c-.912-.306-1.33.748-1.344,1.487a6.183,6.183,0,0,0,.822,2.33,9.758,9.758,0,0,1,.851,2.476,11.262,11.262,0,0,1-.325,4.585Z" fill="#fff" fill-rule="evenodd"/>
    <path d="M17,17.1a2.153,2.153,0,0,1,.242-.016,11.1,11.1,0,0,0,.358-2.534,5.856,5.856,0,0,0-.075-.966,15.138,15.138,0,0,0-.661-2.774,3.666,3.666,0,0,1-.3-1.242c0-.664.378-1.781,1.231-1.485-1.274-.526-1.566,1.4-1.247,2.3l.156.488a11.673,11.673,0,0,1,.674,3.667v.044A11.767,11.767,0,0,1,17,17.1Z" fill="#fff" fill-rule="evenodd"/>
    <path d="M17.311,17.087a2.411,2.411,0,0,1,.42.045,8.333,8.333,0,0,0,.387-2.255c0-.092,0-.184-.008-.275a10.422,10.422,0,0,0-.3-1.778,5.331,5.331,0,0,1-.15-1.15c0-.06,0-.12,0-.178-.031-.1-.061-.2-.094-.3-.067-.206-.14-.4-.213-.586-.273-.711-.6-2.288.623-2.357-.87-.593-1.347.629-1.347,1.314a3.638,3.638,0,0,0,.294,1.22,15,15,0,0,1,.665,2.787,6.1,6.1,0,0,1,.076.977,11.152,11.152,0,0,1-.356,2.534Z" fill="#fff" fill-rule="evenodd"/>
    <path d="M17.8,17.146c.06.014.12.03.178.047a8.432,8.432,0,0,0,.38-2.273c0-.109,0-.219-.011-.328a7.309,7.309,0,0,0-.255-1.488,6.288,6.288,0,0,1-.249-1.495,2.326,2.326,0,0,1,.324-1.249.678.678,0,0,1,.734-.245.555.555,0,0,0-.457-.02c-.559.2-.718,1.055-.718,1.579a5.171,5.171,0,0,0,.149,1.133,10.534,10.534,0,0,1,.3,1.789c.006.1.009.187.009.281a8.461,8.461,0,0,1-.388,2.269Z" fill="#fff" fill-rule="evenodd"/>
    <path d="M18.045,17.215a2.52,2.52,0,0,1,.262.107,4.624,4.624,0,0,0,.514-1.57,5.79,5.79,0,0,0-.049-1.424,6.307,6.307,0,0,1-.085-1.082c-.031-.121-.062-.24-.093-.358a3.787,3.787,0,0,1-.207-1.756c.073-.377.308-.881.789-.812a.791.791,0,0,0-.569-.155.629.629,0,0,0-.384.237c-.532.719-.247,1.94-.064,2.686a7.2,7.2,0,0,1,.26,1.5,7.82,7.82,0,0,1-.374,2.626Z" fill="#fff" fill-rule="evenodd"/>
    <path d="M18.369,17.353c.053.027.1.057.155.087a4.828,4.828,0,0,0,.528-1.655,5.325,5.325,0,0,0-.081-1.506,7.08,7.08,0,0,1-.105-1.034c0-.52.173-1.309.906-1.052a.6.6,0,0,0-.353-.082c-.561.016-.665.828-.665,1.251a7.086,7.086,0,0,0,.088.957,7.366,7.366,0,0,1,.076.966,3.782,3.782,0,0,1-.027.475,4.7,4.7,0,0,1-.522,1.593Z" fill="#fff" fill-rule="evenodd"/>
    <path d="M18.582,17.478a2.476,2.476,0,0,1,.317.248,3.5,3.5,0,0,0,.412-.86,5.554,5.554,0,0,0,.209-1.341c.01-.146.022-.293.036-.443-.056-.841-.264-1.58-.227-2.146.031-.475.175-.574.639-.561-.744-.546-1.032.313-1.032.869a7.167,7.167,0,0,0,.1,1.025,5.492,5.492,0,0,1,.082,1.524,4.875,4.875,0,0,1-.54,1.685Z" fill="#fff" fill-rule="evenodd"/>
    <path d="M18.949,17.775c.042.041.081.082.12.126a3.622,3.622,0,0,0,.457-.964,5.619,5.619,0,0,0,.185-1.481,1.65,1.65,0,0,1,.2-1,.439.439,0,0,1,.466-.123.365.365,0,0,0-.274-.038h0a.687.687,0,0,0-.45.574c-.028.222-.045.448-.061.666a5.708,5.708,0,0,1-.211,1.356,3.611,3.611,0,0,1-.43.889Z" fill="#fff" fill-rule="evenodd"/>
    <path d="M19.117,17.958a2.347,2.347,0,0,1,.256.378,10.241,10.241,0,0,0,.685-1.618h0a6.2,6.2,0,0,0,.077-1.054c0-.1,0-.2,0-.3,0-.325-.051-.785.362-.893a.376.376,0,0,0-.529.023c-.209.238-.173.678-.183.962a5.641,5.641,0,0,1-.189,1.5,3.663,3.663,0,0,1-.475,1Z" fill="#fff" fill-rule="evenodd"/>
    <path d="M19.415,18.416c.024.046.045.094.065.142a1.686,1.686,0,0,0,.094-.149,5.087,5.087,0,0,0,.509-1.359c.055-.248.239-.793.631-.614-.391-.293-.655.424-.714.632a5.692,5.692,0,0,1-.585,1.348Z" fill="#fff" fill-rule="evenodd"/>
    <path d="M19.512,18.636a2.394,2.394,0,0,1,.12.449,3.282,3.282,0,0,0,.68-1.3,3.1,3.1,0,0,0,.06-.389c.035-.294.026-.841.444-.771-.338-.492-.6.176-.663.44a5.209,5.209,0,0,1-.519,1.377,1.667,1.667,0,0,1-.122.192Z" fill="#fff" fill-rule="evenodd"/>
    <path d="M15.647,21.246a2.4,2.4,0,0,1,.3-3.762c.089-.392.192-.785.269-1.179a1.9,1.9,0,0,1-1.684-1.312,7.725,7.725,0,0,0-1.225-2.173,8.093,8.093,0,0,0-.656-.551l-.012-.01v-.016s-.009-.14-.035-.3-.038-.244-.192-.317a.424.424,0,0,0-.4,0,1.063,1.063,0,0,0-.287.268l-.011.018-.021,0s-.176-.026-.375-.034a1.3,1.3,0,0,0-1.175.4.656.656,0,0,1-.484.3l-.175.045c-.148.05-.266.215-.4.3-.091.054-.286.15-.286.279,0,.089.035.291.111.332.036.019.077.033.093,0,.04-.073.107-.151.1-.214a.281.281,0,0,1-.067.273c-.03.046-.1.01-.132,0a.44.44,0,0,0,.063.2.405.405,0,0,0,.158.16h0c.009.119.09.174.174.236A.517.517,0,0,1,9.27,14a.168.168,0,0,1,.007-.024l.031-.006a.091.091,0,0,0,.107.062.106.106,0,0,0,.082-.11v-.006a.063.063,0,0,0,0-.023l.018-.01a.1.1,0,0,0,.2-.024v0c0-.012,0-.025,0-.038l.013,0c.363-.019.55.39.188.574a.536.536,0,0,1-.252.022.8.8,0,0,0-.158.04l-.185-.141.056.2c-.016.009-.04.021-.04.043s.009.052.1.122a.519.519,0,0,1,.1.1.328.328,0,0,0,.132.117.554.554,0,0,0,.452-.017.789.789,0,0,0,.3-.175.427.427,0,0,1,.253-.138,1.014,1.014,0,0,1,.762.508,2.012,2.012,0,0,1,.352.957,4.809,4.809,0,0,1,.1,1.538,7.162,7.162,0,0,0,0,1.307,2.337,2.337,0,0,0,1.65,2.361,2.1,2.1,0,0,1,.533-2.158,2.8,2.8,0,0,0-.353,2.371,2.622,2.622,0,0,1-.009.656c-.033.125-.24.808-.439,1.471l-.327,1.086c-.141.476-.283.882-.574,1.008a.749.749,0,0,1-.638-.082.9.9,0,0,0-.389-.132c-.478-.12-1.125.1-1.179.64.071-.038.191.044.186.07a.5.5,0,0,1,.673-.373c-.141.029-.506-.069-.6.424.124.034.162.073.189.186.124-.33.514-.274.718-.211-.216-.011-.566-.008-.68.3a.265.265,0,0,1,.221.182c.322.025.537.185.887.1a2.5,2.5,0,0,1,.323-.072,1.739,1.739,0,0,0,1.214-.424c.349-.381.315-.51.314-.51l.064-.03s.065.107.31.06a.428.428,0,0,0,.229-.1.343.343,0,0,1-.247-.105.27.27,0,0,1-.066-.2,1.485,1.485,0,0,1,.164-.556c.044-.089.246-.442.479-.853.324-.568.691-1.212.747-1.337l.023-.056a2.086,2.086,0,0,0,.216-.87.94.94,0,0,1,.132-.478Zm-4.955-8.622a.15.15,0,0,1,.011-.051c0,.009-.006.015-.006.022a.136.136,0,0,0,.143.129.141.141,0,0,0,.116-.059.134.134,0,0,1-.127.1.138.138,0,0,1-.137-.137Zm.361,0a.114.114,0,0,1,.03.072c0,.092-.113.167-.251.167s-.252-.075-.252-.167a.114.114,0,0,1,.025-.068.224.224,0,0,0,.448,0Zm-.561.057a.311.311,0,0,1,.34-.238.367.367,0,0,1,.3.132l.252.117-.017.048a.323.323,0,0,0-.156-.011l-.055.048.006-.009a.344.344,0,0,1-.327.184.425.425,0,0,1-.145-.027l-.16-.026-.154,0-.049-.109.028-.007a.262.262,0,0,0,.1-.049.2.2,0,0,0,.041-.049Zm1.493-.892a.262.262,0,0,1,.455.066c.046.134.075.4-.014.475a.689.689,0,0,0-.359.02c.117-.183.344.048.289-.37a.243.243,0,0,0-.371-.191Zm.692,1.558a1.013,1.013,0,0,1-.411,1.163,1.4,1.4,0,0,1-1.009-.078,1.9,1.9,0,0,0,.984-.008,1.048,1.048,0,0,0,.436-1.077Z" fill="#fff" fill-rule="evenodd"/>
    <path d="M7.325,20.5a.952.952,0,0,0,.274.7c-.012-.076.126-.192.188-.168.02-.029-.013-.045-.011-.071a.692.692,0,0,1-.051-.655.952.952,0,0,0,.121.659c.025-.074.093-.2.216-.145.1-.177.005-.561.028-.67.082-.383.534-.445.859-.409l.036.07a.305.305,0,0,0-.078.244c0,.181.07.217.07.217a.351.351,0,0,1,.235-.3.926.926,0,0,1,.547.122c.1.044,1.469.818,2.129,1.122a1.442,1.442,0,0,0,1.351-.008,2.167,2.167,0,0,1-1.461-1.948,3.079,3.079,0,0,1-.707-.053,10.226,10.226,0,0,0-1.964-.339,2.438,2.438,0,0,0-1.355.261,2.072,2.072,0,0,0-.88,1.291c-.027.2.118.992.5.957.036-.094.069-.151.145-.155a.778.778,0,0,1-.19-.72Z" fill="#fff" fill-rule="evenodd"/>
    <path d="M16.817,21.836A2.392,2.392,0,0,1,15.7,21.3a.863.863,0,0,0-.116.431c0,.062-.006.119-.012.176A7.546,7.546,0,0,0,16.817,21.836Z" fill="#fff" fill-rule="evenodd"/>
    <path d="M15.818,19.59a1.433,1.433,0,0,0,.366.859.3.3,0,0,1,.046-.4c.08-.08.67-.48.814-.337s-.246.721-.338.813a.325.325,0,0,1-.431.02,1.479,1.479,0,0,0,.9.391.312.312,0,0,1-.241-.317c0-.108.137-.815.338-.815s.337.708.337.815a.311.311,0,0,1-.241.317,1.483,1.483,0,0,0,.852-.347.315.315,0,0,1-.385-.064c-.077-.077-.481-.673-.338-.813s.739.26.815.337a.312.312,0,0,1,.062.387,1.434,1.434,0,0,0,.35-.839.316.316,0,0,1-.319.227c-.11,0-.815-.136-.815-.338s.709-.337.815-.337a.315.315,0,0,1,.319.227,1.443,1.443,0,0,0-.348-.836.316.316,0,0,1,.034.145.339.339,0,0,1-.1.239c-.1.1-.674.479-.815.337s.261-.738.338-.815a.328.328,0,0,1,.387-.061,1.45,1.45,0,0,0-.842-.35.315.315,0,0,1,.229.319c0,.106-.135.814-.337.814s-.338-.678-.338-.814a.316.316,0,0,1,.229-.319,1.453,1.453,0,0,0-.854.361.3.3,0,0,1,.4.05c.074.075.482.672.338.815s-.738-.262-.814-.337a.324.324,0,0,1-.026-.428,1.449,1.449,0,0,0-.386.884.315.315,0,0,1,.319-.231c.107,0,.814.135.814.337s-.7.338-.814.338a.315.315,0,0,1-.319-.231Zm1.208-.107a.244.244,0,1,1,.243.244A.244.244,0,0,1,17.026,19.483Z" fill="#fff" fill-rule="evenodd"/>
    <path d="M17.879,20.474a.27.27,0,0,0,.382-.381c-.076-.076-.629-.427-.72-.336s.264.642.338.717Zm-.224-.991c0,.128.64.271.747.271a.271.271,0,0,0,0-.541C18.3,19.213,17.655,19.356,17.655,19.483Zm.224-.992c-.075.075-.427.63-.338.719s.642-.258.72-.336a.27.27,0,0,0-.382-.383Zm-.88-.14c0,.111.137.747.27.747s.27-.64.27-.747A.27.27,0,0,0,17,18.351Zm-.722.522c.076.075.63.428.719.337s-.263-.644-.338-.719C16.4,18.231,16.049,18.643,16.277,18.873Zm.606.61c0-.127-.639-.27-.746-.27a.271.271,0,0,0,0,.541C16.245,19.754,16.883,19.611,16.883,19.483Zm.114.273c-.092-.09-.643.26-.719.337-.263.265.162.6.38.381C16.734,20.4,17.085,19.844,17,19.756Zm.542.86c0-.107-.143-.748-.27-.748s-.27.641-.27.748A.27.27,0,0,0,17.539,20.616Zm-.446-1.133a.176.176,0,1,0,.176-.177A.176.176,0,0,0,17.093,19.483Z" fill="#fff" fill-rule="evenodd"/>
  </g>
</svg>
