<svg xmlns="http://www.w3.org/2000/svg" width="28.188mm" height="7.749mm" viewBox="0 0 79.904 21.967">
  <title>tatneft</title>
  <g>
    <g>
      <path d="M9,4.581c1.411,3.582-.89,5.882-3.183,8.185-2.134,2.353-4.013,4.8-.233,9.2-1.412-3.582.89-5.882,3.181-8.183,2.135-2.358,4.015-4.8.235-9.2" fill="#fff"/>
      <path d="M5.582,0C7,3.584,4.7,5.881,2.4,8.183c-2.134,2.355-4.013,4.8-.231,9.2C.757,13.8,3.058,11.5,5.351,9.2,7.485,6.847,9.363,4.4,5.582,0" fill="#fff"/>
    </g>
    <path d="M63.594,14.187v7.322H66.8V18.828h3.524v-1.6H66.8V15.789h6.99v5.72H77v-5.72H79.9v-1.6H63.594" fill="#fff"/>
    <path d="M56.714,19.92V18.65H60.9v-1.6H56.714V15.789h5.371v-1.6H53.507v7.322h8.644V19.92H56.714" fill="#fff"/>
    <path d="M22.891,14.187H14.005v1.6h2.84v5.72h3.207v-5.72h2.839v-1.6" fill="#fff"/>
    <path d="M25.319,18.734,26.8,15.9l1.42,2.834Zm3.9-4.547H25.785l-4,7.322h2.084l.658-1.257h4.5l.656,1.257h3.551l-4-7.322" fill="#fff"/>
    <path d="M49.572,14.187v3.66l-5.129-3.66H41.955v7.322h2.2V17.48l5.266,4.029h2.351V14.187h-2.2" fill="#fff"/>
    <path d="M40.865,14.187h-8.7v1.6H35v5.72h3.208v-5.72h2.653v-1.6" fill="#fff"/>
  </g>
</svg>
