<svg xmlns="http://www.w3.org/2000/svg" width="19.488mm" height="7.346mm" viewBox="0 0 55.243 20.823">
  <title>tele2</title>
  <path d="M0,7.333v3.006l8.11-.892V6.193L0,7.333m2.588,3.189v10.3H5.557v-10.6l-2.969.3M9.205,6.039V20.823h3.128V5.6l-3.128.44m3.711-.521v3.4l4.518-.5V4.883l-4.518.635m0,5.932v3.462l2.966-.161V11.194l-2.966.256m0,5.958v3.415h4.518V17.272l-4.518.136m16.2-14.172V20.823h4.1V2.659l-4.1.577m4.867-.685V6.6l5.977-.657V1.711l-5.977.84m0,7.088V13.76l3.917-.214V9.3l-3.917.335m0,7.133v4.051h5.977V16.591l-5.977.181M18.629,4.714V20.823h3.564V4.213l-3.564.5m4.229,12.4v3.714h5.173V16.952l-5.173.157m30.5-15.6A6.245,6.245,0,0,0,48.085.084V4.571a1.789,1.789,0,0,1,1.828.9c.48.991-.016,2.479-1.183,3.858-1.8,2.127-6.6,6.481-6.6,6.481l6.882-.226c4.2-4.108,5.714-6.6,5.985-9.714a5.319,5.319,0,0,0-1.64-4.353m1.883,19.311V16.128l-13.958.421m0,0,0,4.275H55.243M47.283.185c-4.055.863-6.046,3.846-5.817,8.714l4.324-.384c-.2-2.75.644-3.4,1.495-3.761l0-4.569" fill="#fff"/>
</svg>
