<svg width="181" height="80" viewBox="0 0 181 80" fill="none" xmlns="http://www.w3.org/2000/svg">
<path d="M0 0V80H180.124V0H0ZM170.119 69.9982H10.0018V10.006H170.118V69.9982H170.119Z" fill="white"/>
<path d="M60.0247 40.0184H50.0201V30.0124H30.0123V40.0184H50.0201L60.0247 60.0247H50.0201L45.0185 50.0229H30.0123V60.0247H20.0078V20.0106H60.0247V40.0184Z" fill="white"/>
<path d="M90.0371 40.0184H80.0325V60.0247H70.0265V20.0106H80.0325L90.0371 40.0184Z" fill="white"/>
<path d="M90.0342 40.0184H100.04V60.0247H110.045V20.0106H100.04L90.0342 40.0184Z" fill="white"/>
<path d="M130.103 29.9827V32.4849L160.116 39.9845V59.9922H120.097V49.9905H150.111V47.4883L120.097 39.9845V19.9781H160.116V29.9827H130.103Z" fill="white"/>
</svg>
